<svg xmlns="http://www.w3.org/2000/svg" viewBox="0 0 160 160"><g style="isolation:isolate"><g id="baa106d7-a4a6-488c-9011-227af8711433" data-name="レイヤー 1"><circle cx="80" cy="80" r="80" style="fill:#eff6f9"/><path d="M80.482,79.35263s-.52518-12.36325,1.48911-13.10118,9.65019-1.30547,10.99163.55191,2.6059,13.21979,2.6059,13.21979Z" style="fill:#daeef5"/><ellipse cx="76.9257" cy="115.30273" rx="54.89776" ry="5.99496" style="fill:#f8d4d4"/><path d="M89.60879,63.47538a12.41116,12.41116,0,0,0-.21154,1.53344c0,.44946,2.2814.56368,2.4665.61657a5.53391,5.53391,0,0,1-4.00932,3.32285c-2.50238.238-4.07321-3.47539-4.07321-3.47539a13.36206,13.36206,0,0,0,2.46976-.78134c.07933-.07927.58168-2.19445.58168-2.19445Z" style="fill:#fcc2c4"/><path d="M89.41559,64.712c.04608-.49432.1932-1.23663.1932-1.23663l-2.77619-.97832s-.093.40975-.24771,1.01431A3.05156,3.05156,0,0,0,89.41559,64.712Z" style="fill:#fcc2c4;opacity:0.30000000000000004;mix-blend-mode:multiply"/><path d="M85.72423,64.90864a16.87787,16.87787,0,0,0-3.75316,1.34281c-1.03441.68739,2.19043,11.05161,1.60916,13.69558-.58128,2.64391,8.1654.89893,9.18565.423,0-4.28317.29571-7.46759.307-10.373.01188-3.069-.439-4.08539-1.30437-4.41109a7.36336,7.36336,0,0,0-1.94825-.28632C89.46778,67.309,87.198,68.11344,85.72423,64.90864Z" style="fill:#bee1ed"/><path d="M123.16452,70.20567s3.67226-13.64748,10.123-11.77821C139.88417,60.33908,123.66467,70.66026,123.16452,70.20567Z" style="fill:#fabdb8"/><path d="M119.904,76.17028s5.63729-12.51982,1.14565-15.09832S119.904,76.17028,119.904,76.17028Z" style="fill:#fabdb8"/><path d="M117.87862,80.36242s.33641-17.24291-6.2302-14.778C105.08173,68.04937,117.87862,80.36242,117.87862,80.36242Z" style="fill:#fabdb8"/><path d="M114.94145,87.9115s-3.98986-16.7783-9.73059-12.74831C99.47008,79.19318,114.94145,87.9115,114.94145,87.9115Z" style="fill:#fabdb8"/><path d="M119.904,76.17028s9.6586-9.85791,13.87311-4.48965S119.904,76.17028,119.904,76.17028Z" style="fill:#fabdb8"/><path d="M117.79184,80.28123s13.54962-6.151,14.62008.19168C133.48238,86.81565,117.79184,80.28123,117.79184,80.28123Z" style="fill:#fabdb8"/><path d="M114.77418,87.85506s13.76279-7.32309,15.29943-.76153C131.61032,93.65508,114.77418,87.85506,114.77418,87.85506Z" style="fill:#fabdb8"/><path d="M113.25582,92.72167a.25812.25812,0,0,1-.076-.0113.26245.26245,0,0,1-.1756-.32751c.06773-.22435,6.90338-22.54215,17.403-31.45692a.2628.2628,0,0,1,.33986.401c-10.381,8.81418-17.17244,30.98509-17.23971,31.20793A.26287.26287,0,0,1,113.25582,92.72167Z" style="fill:#f79695"/><path d="M119.904,76.433a.2629.2629,0,0,1-.09907-.50637c.403-.16355,9.90713-4.01031,12.494-3.66091a.26265.26265,0,0,1,.2254.29542.26559.26559,0,0,1-.29518.22563c-2.46726-.33391-12.12854,3.58723-12.226,3.627A.26482.26482,0,0,1,119.904,76.433Z" style="fill:#f79695"/><path d="M119.96514,76.19865a.27346.27346,0,0,1-.04514-.00385.26331.26331,0,0,1-.21463-.30339c.01643-.09447,1.61562-9.47875.98776-12.04356a.26271.26271,0,1,1,.51027-.12528c.654,2.67058-.91279,11.86743-.97948,12.2576A.26332.26332,0,0,1,119.96514,76.19865Z" style="fill:#f79695"/><path d="M130.187,80.90916a.25784.25784,0,0,1-.117-.02773c-2.09357-1.04372-12.07-.26541-12.17013-.257l-.21148.01666-.06116-.20275c-.922-3.04794-3.68193-11.19932-5.36167-12.3003a.26283.26283,0,0,1,.28853-.43939c2.04476,1.34013,5.03418,10.82505,5.51469,12.38552,1.50827-.11247,10.16433-.70592,12.2353.327a.26277.26277,0,0,1-.11707.498Z" style="fill:#f79695"/><path d="M114.6373,88.14313l-.09033-.15655c-1.51137-2.61648-5.84994-9.5296-7.751-10.09118a.26285.26285,0,0,1,.14893-.50416c2.3446.69281,7.21551,8.89241,7.96657,10.17668,1.39027-.2123,9.94923-1.45388,12.69426-.28289a.26289.26289,0,1,1-.20636.4836c-2.7876-1.19027-12.48587.33088-12.58389.346Z" style="fill:#f79695"/><path d="M59.77261,62.52333S53.615,49.80239,59.71512,46.99278C65.95325,44.11968,60.44823,62.53958,59.77261,62.52333Z" style="fill:#f8d4d4"/><path d="M61.21239,69.16672s-3.93407-13.1548-9.01751-12.16378S61.21239,69.16672,61.21239,69.16672Z" style="fill:#f8d4d4"/><path d="M62.42543,73.66167S51.39234,60.40646,48.04176,66.56841C44.69117,72.73047,62.42543,73.66167,62.42543,73.66167Z" style="fill:#f8d4d4"/><path d="M65.14675,81.29124s-13.9995-10.072-15.70126-3.26753C47.74378,84.8282,65.14675,81.29124,65.14675,81.29124Z" style="fill:#f8d4d4"/><path d="M61.21239,69.16672s.84838-13.77492,7.54855-12.47556C75.46106,57.99052,61.21239,69.16672,61.21239,69.16672Z" style="fill:#f8d4d4"/><path d="M62.30674,73.65713s6.21645-13.51969,11.17764-9.42557C78.44569,68.32574,62.30674,73.65713,62.30674,73.65713Z" style="fill:#f8d4d4"/><path d="M64.98338,81.3581s5.61031-14.54536,11.06728-10.59091C81.50762,74.72153,64.98338,81.3581,64.98338,81.3581Z" style="fill:#f8d4d4"/><path d="M67.02126,86.031a.263.263,0,0,1-.412-.09151c-.09563-.21392-9.53762-21.56-7.436-35.17252a.26279.26279,0,0,1,.51936.08067C57.61486,64.3064,66.99406,85.51262,67.08906,85.725A.26285.26285,0,0,1,67.02126,86.031Z" style="fill:#fabdb8"/><path d="M61.38433,69.36533a.26294.26294,0,0,1-.40643-.318c.19762-.38743,4.86428-9.517,7.04859-10.94625a.26262.26262,0,0,1,.36379.07578.26559.26559,0,0,1-.07543.36379c-2.08384,1.36267-6.8205,10.6513-6.86826,10.74525A.26353.26353,0,0,1,61.38433,69.36533Z" style="fill:#fabdb8"/><path d="M61.2771,69.14819a.27228.27228,0,0,1-.03669.02662.26322.26322,0,0,1-.36082-.08888c-.04939-.08212-4.98356-8.22319-7.13718-9.751a.26275.26275,0,1,1,.3038-.42879c2.24261,1.59075,7.07858,9.5689,7.28348,9.90759A.26315.26315,0,0,1,61.2771,69.14819Z" style="fill:#fabdb8"/><path d="M72.088,66.01783a.25836.25836,0,0,1-.10658.05562C69.71555,66.655,62.6831,73.774,62.613,73.84589l-.149.15109-.17887-.11329c-2.69225-1.70054-10.11465-6.056-12.10518-5.78872a.26283.26283,0,0,1-.0696-.521c2.42311-.32547,10.89191,4.88792,12.27665,5.75295,1.06662-1.07232,7.22175-7.18732,9.46349-7.76213a.26275.26275,0,0,1,.23751.45308Z" style="fill:#fabdb8"/><path d="M65.06847,81.66545l-.17083-.05923c-2.85533-.98851-10.66051-3.37458-12.4653-2.55468a.26283.26283,0,0,1-.21743-.47859c2.226-1.01105,11.2758,1.999,12.68425,2.47821.912-1.07058,6.56953-7.612,9.41124-8.52367a.26288.26288,0,1,1,.16052.50066c-2.8865.925-9.22224,8.42349-9.28643,8.49915Z" style="fill:#fabdb8"/><path d="M125.40166,100.369s4.47644-7.10357,7.8107-4.91192C136.622,97.6983,125.60593,100.71468,125.40166,100.369Z" style="fill:#f8d4d4"/><path d="M122.50549,103.18351s5.39424-6.11908,3.29642-8.37C123.704,92.5626,122.50549,103.18351,122.50549,103.18351Z" style="fill:#f8d4d4"/><path d="M120.62108,105.20829s3.21289-9.72925-.94675-9.48084S120.62108,105.20829,120.62108,105.20829Z" style="fill:#f8d4d4"/><path d="M117.63079,108.97881s.67551-10.22363-3.2896-8.942C110.37614,101.31831,117.63079,108.97881,117.63079,108.97881Z" style="fill:#f8d4d4"/><path d="M122.50549,103.18351s7.21051-3.90326,8.66212-.11731S122.50549,103.18351,122.50549,103.18351Z" style="fill:#f8d4d4"/><path d="M120.586,105.147s8.76957-1.11711,8.2657,2.671S120.586,105.147,120.586,105.147Z" style="fill:#f8d4d4"/><path d="M117.54564,108.91748s9.09608-1.745,8.81844,2.249C126.08644,115.1605,117.54564,108.91748,117.54564,108.91748Z" style="fill:#f8d4d4"/><path d="M115.83083,111.414a.15428.15428,0,0,1-.04112-.01974.15591.15591,0,0,1-.04228-.21667c.07775-.11549,7.86941-11.58646,15.392-14.807a.15612.15612,0,0,1,.12266.28714c-7.43766,3.18424-15.17847,14.57955-15.25564,14.69429A.15629.15629,0,0,1,115.83083,111.414Z" style="fill:#fabdb8"/><path d="M122.45948,103.33261a.1562.1562,0,0,1,.0325-.30485c.25738-.02219,6.32672-.54015,7.734.11154a.156.156,0,0,1,.07613.20723.15782.15782,0,0,1-.20712.0763c-1.34205-.62193-7.51355-.08929-7.57592-.08375A.156.156,0,0,1,122.45948,103.33261Z" style="fill:#fabdb8"/><path d="M122.5352,103.2103a.16052.16052,0,0,1-.025-.01008.15641.15641,0,0,1-.06861-.20985c.02592-.05073,2.57833-5.09754,2.67135-6.66354a.1561.1561,0,1,1,.31166.01829c-.09675,1.63059-2.598,6.57676-2.70425,6.78655A.15633.15633,0,0,1,122.5352,103.2103Z" style="fill:#fabdb8"/><path d="M127.51224,107.67572a.15331.15331,0,0,1-.06157-.03628c-1.00552-.95933-6.80519-2.266-6.86349-2.27873l-.123-.0276.00081-.12581c.01077-1.89175-.12732-7.00269-.88793-7.92207a.15616.15616,0,0,1,.24084-.19884c.92585,1.11909.96055,7.02721.95985,7.99726.87593.20047,5.89362,1.38061,6.88825,2.32986a.15613.15613,0,0,1-.15376.26221Z" style="fill:#fabdb8"/><path d="M117.4175,109.057l-.02388-.10472c-.39943-1.75011-1.65067-6.43476-2.63138-7.0868a.15614.15614,0,1,1,.17287-.26006c1.20948.80417,2.53755,6.31245,2.73884,7.17312.82636.12307,5.90259.91832,7.25559,2.06415a.15619.15619,0,1,1-.20193.23833c-1.3738-1.16423-7.14568-2.00037-7.204-2.00894Z" style="fill:#fabdb8"/><rect x="57.95162" y="79.48009" width="61.40831" height="34.62206" style="fill:#b4dbda"/><rect x="61.29824" y="83.60182" width="2.57268" height="26.89389" style="fill:#86bdbd"/><rect x="64.98949" y="83.60182" width="0.89491" height="26.89389" style="fill:#86bdbd"/><rect x="66.77927" y="83.60182" width="0.89485" height="26.89389" style="fill:#86bdbd"/><rect x="68.56903" y="83.60182" width="0.89486" height="26.89389" style="fill:#86bdbd"/><rect x="70.35868" y="83.60182" width="0.89491" height="26.89389" style="fill:#86bdbd"/><rect x="72.14845" y="83.60182" width="1.52872" height="26.89389" style="fill:#86bdbd"/><rect x="74.57203" y="83.60182" width="2.57274" height="26.89389" style="fill:#86bdbd"/><rect x="78.26333" y="83.60182" width="0.89486" height="26.89389" style="fill:#86bdbd"/><rect x="80.05304" y="83.60182" width="0.89491" height="26.89389" style="fill:#86bdbd"/><rect x="81.84282" y="83.60182" width="0.89485" height="26.89389" style="fill:#86bdbd"/><rect x="83.63258" y="83.60182" width="0.8948" height="26.89389" style="fill:#86bdbd"/><rect x="85.42223" y="83.60182" width="1.52872" height="26.89389" style="fill:#86bdbd"/><rect x="87.71534" y="83.60182" width="0.89486" height="26.89389" style="fill:#86bdbd"/><rect x="89.50511" y="83.60182" width="0.8948" height="26.89389" style="fill:#86bdbd"/><rect x="91.29477" y="83.60182" width="0.89491" height="26.89389" style="fill:#86bdbd"/><rect x="93.08453" y="83.60182" width="0.89486" height="26.89389" style="fill:#86bdbd"/><rect x="94.8743" y="83.60182" width="1.52872" height="26.89389" style="fill:#86bdbd"/><rect x="97.39107" y="83.60182" width="0.89486" height="26.89389" style="fill:#86bdbd"/><rect x="99.18079" y="83.60182" width="0.89485" height="26.89389" style="fill:#86bdbd"/><rect x="100.97055" y="83.60182" width="0.89486" height="26.89389" style="fill:#86bdbd"/><rect x="102.76026" y="83.60182" width="0.89486" height="26.89389" style="fill:#86bdbd"/><rect x="104.54997" y="83.60182" width="1.52872" height="26.89389" style="fill:#86bdbd"/><rect x="107.06679" y="83.60182" width="0.89486" height="26.89389" style="fill:#86bdbd"/><rect x="108.8565" y="83.60182" width="0.89486" height="26.89389" style="fill:#86bdbd"/><rect x="110.64627" y="83.60182" width="0.8948" height="26.89389" style="fill:#86bdbd"/><rect x="112.43593" y="83.60182" width="0.89491" height="26.89389" style="fill:#86bdbd"/><rect x="114.2257" y="83.60182" width="1.52871" height="26.89389" style="fill:#86bdbd"/><circle cx="49.80642" cy="91.13045" r="27.11929" style="fill:#f18c8c"/><circle cx="49.80641" cy="91.13045" r="22.80995" style="fill:#fdfffe"/><path d="M30.87805,94.42384a22.81116,22.81116,0,0,1,35.5083-18.94951A22.8073,22.8073,0,1,0,37.108,110.08,22.72441,22.72441,0,0,1,30.87805,94.42384Z" style="fill:#f8d4d4"/><path d="M52.34089,91.13045a2.53453,2.53453,0,1,1-2.53447-2.53453A2.53449,2.53449,0,0,1,52.34089,91.13045Z" style="fill:#86bdbd"/><polygon points="49.819 91.13 48.386 84.397 49.819 74.305 51.312 84.397 49.819 91.13" style="fill:#86bdbd"/><polygon points="49.801 91.155 45.18 98.132 35.309 105.646 42.774 95.727 49.801 91.155" style="fill:#86bdbd"/><rect x="49.37152" y="69.68788" width="0.95386" height="3.85218" style="fill:#86bdbd"/><rect x="35.54035" y="75.37735" width="0.95375" height="3.85203" transform="translate(-44.11097 48.10537) rotate(-44.99694)" style="fill:#86bdbd"/><rect x="28.33386" y="90.62985" width="3.85218" height="0.95386" style="fill:#86bdbd"/><rect x="34.02329" y="104.46143" width="3.85237" height="0.95377" transform="translate(-63.67308 56.15551) rotate(-44.99981)" style="fill:#86bdbd"/><rect x="49.276" y="108.76942" width="0.95386" height="3.85218" style="fill:#86bdbd"/><rect x="63.10752" y="103.0799" width="0.95377" height="3.85233" transform="translate(-55.62863 75.7229) rotate(-45.00306)" style="fill:#86bdbd"/><rect x="67.4154" y="90.72577" width="3.85218" height="0.95386" style="fill:#86bdbd"/><rect x="61.72577" y="76.89426" width="3.85235" height="0.95375" transform="translate(-36.06647 67.67058) rotate(-45.00022)" style="fill:#86bdbd"/><path d="M87.44073,56.31031a3.73911,3.73911,0,0,1,3.64867,3.75438c.26437,3.75433-2.61753,5.279-5.235,2.34425C83.23693,59.47422,85.19339,56.01944,87.44073,56.31031Z" style="fill:#fcc2c4"/><path d="M90.50766,58.47837a14.34149,14.34149,0,0,1-1.58632,0,2.10954,2.10954,0,0,0-.79316-.68751c.15865.26442.44946.711.44946.711-.60806.02935-.72321.188-.72321.188a.982.982,0,0,0-.62519-.58174s.39659.44953.39659.71389c-.47591.26437-1.21619.64127-1.21619,1.2989-1.084-1.2724-1.42773.499,0,1.13353-.39658.81967.631,2.18694,1.79612,2.65341-1.05584.88944-5.4007,1.53285-5.9295-.1593,2.32619-1.76373-1.65685-7.22675,3.31377-8.28428,4.97052-1.05759,6.27494,2.3266,6.20441,4.8648s.6345,2.57344,1.02229,2.64391-1.38235,1.80247-3.2571.76847C90.6644,63.04676,91.79933,61.108,90.50766,58.47837Z" style="fill:#4a5c7f"/><path d="M116.67839,45.1902V41.15991h-1.87a8.03178,8.03178,0,0,0-.86154-2.09724l1.33431-1.3343-2.84986-2.84986L111.108,36.20175a8.03151,8.03151,0,0,0-2.09124-.87686V33.44007h-4.03034v1.87008a8.03088,8.03088,0,0,0-2.09718.86154l-1.3343-1.3343L98.7051,37.68725l1.32324,1.32318a8.03287,8.03287,0,0,0-.87691,2.09124H97.26672V45.132h1.87a8.02713,8.02713,0,0,0,.86148,2.09718l-1.3343,1.3343,2.84986,2.84986,1.32323-1.32317a8.03155,8.03155,0,0,0,2.09125.87685V52.8518h4.03034v-1.87a8.03206,8.03206,0,0,0,2.09723-.86154l1.33425,1.3343L115.24,48.60467l-1.32318-1.32324a8.0335,8.0335,0,0,0,.87686-2.09123Zm-9.70589,2.06607a4.11034,4.11034,0,1,1,4.11037-4.11031A4.11029,4.11029,0,0,1,106.9725,47.25627Z" style="fill:#f8d4d4"/><path d="M81.59,51.15306V49.38415h-.82077a3.52709,3.52709,0,0,0-.37812-.92043l.58565-.58564L79.72589,46.6273l-.58075.58075a3.52592,3.52592,0,0,0-.91786-.38488v-.82723H76.45836v.82077a3.52583,3.52583,0,0,0-.92042.37812l-.58564-.58564L73.70146,47.86l.5808.58074a3.52391,3.52391,0,0,0-.38487.91787h-.82723v1.76891h.82076a3.52368,3.52368,0,0,0,.37812.92043l-.58564.58564,1.25084,1.25084.58075-.58075a3.52506,3.52506,0,0,0,.91786.38482v.82723h1.76892V53.695a3.52192,3.52192,0,0,0,.92042-.37812l.58564.58564,1.25079-1.25084-.58075-.58074a3.52476,3.52476,0,0,0,.38487-.91787ZM77.33,52.05992a1.804,1.804,0,1,1,1.804-1.804A1.804,1.804,0,0,1,77.33,52.05992Z" style="fill:#f8d4d4"/><path d="M85.84986,34.858V33.60146h-.583a2.502,2.502,0,0,0-.26862-.65384l.416-.416-.8885-.88851-.41254.41254a2.5064,2.5064,0,0,0-.652-.27339V31.1946H82.20462v.58308a2.50337,2.50337,0,0,0-.65384.26856l-.416-.416-.8885.88851.41254.41254a2.50311,2.50311,0,0,0-.2734.652h-.58762v1.25654h.583a2.50223,2.50223,0,0,0,.26862.65385l-.416.416.88851.88851.41254-.41254a2.5064,2.5064,0,0,0,.652.27339v.58762h1.25655v-.58307a2.50507,2.50507,0,0,0,.65384-.26856l.416.416.8885-.8885L84.98884,35.51a2.504,2.504,0,0,0,.2734-.652Zm-3.026.64411a1.28148,1.28148,0,1,1,1.28148-1.28147A1.28148,1.28148,0,0,1,82.82387,35.50212Z" style="fill:#f8d4d4"/></g></g></svg>