<svg id="f2610435-edb7-4ad8-8ef0-1d2b3307bc13" data-name="レイヤー 1" xmlns="http://www.w3.org/2000/svg" viewBox="0 0 160 160"><circle cx="80" cy="80" r="80" style="fill:#eff6f9"/><ellipse cx="76.9257" cy="122.14797" rx="54.89776" ry="5.99496" style="fill:#86bdbd"/><path d="M59.95754,123.04725c-1.22855.708-9.49513-1.04809-11.8273-2.03368-1.26321-.53446.347-3.165.97869-4.52547a2.58342,2.58342,0,0,0,.22211-.61081l4.56017.472s.19432.28456.52057.69409a10.18084,10.18084,0,0,0,3.32467,2.91514C59.5966,120.72206,60.59609,121.61048,59.95754,123.04725Z" style="fill:#6d4a4a"/><path d="M54.41178,117.0434c-1.2494.0347-2.59589,1.291-3.80364,1.20771-1.27015-.07638-1.08973-.9301-1.49921-1.763a2.58342,2.58342,0,0,0,.22211-.61081l4.56017.472S54.08553,116.63387,54.41178,117.0434Z" style="fill:#ffddc3"/><path d="M76.33277,121.83318c-1.10169.89267-9.54168.46073-12-.14518-1.33163-.3288-.15587-3.18019.25359-4.62314a2.58382,2.58382,0,0,0,.12312-.63816l4.57759-.25222s.23672.25039.6234.60342a10.18117,10.18117,0,0,0,3.74237,2.355C75.61006,119.59388,76.737,120.31376,76.33277,121.83318Z" style="fill:#6d4a4a"/><path d="M69.91048,116.7779c-1.22833.23107-2.36011,1.68379-3.5659,1.7918-1.26632.12465-1.22263-.74683-1.75821-1.50484a2.58382,2.58382,0,0,0,.12312-.63816l4.57759-.25222S69.5238,116.42487,69.91048,116.7779Z" style="fill:#ffddc3"/><path d="M104.54628,118.72111c-.19379-1.78161-1.0806-8.30209-1.0806-8.30209l2.88527-.267s1.68107,4.98942,2.26934,7.71914A3.67679,3.67679,0,0,1,104.54628,118.72111Z" style="fill:#ffddc3"/><path d="M104.54628,118.72111a3.67679,3.67679,0,0,0,4.074-.85,3.8171,3.8171,0,0,1,.15382,1.66654c-.44927.86221-1.71075,2.04753-2.1917,2.02063a3.77839,3.77839,0,0,1-2.00314-2.50174C104.57349,118.98049,104.56183,118.86419,104.54628,118.72111Z" style="fill:#6d4a4a"/><path d="M92.589,118.67131c-.14248-1.86407-.48185-8.72039-.48185-8.72039l-3.00986.27875s-.76833,5.43838-.8488,8.35026A3.83559,3.83559,0,0,0,92.589,118.67131Z" style="fill:#ffddc3"/><path d="M92.589,118.67131a3.83559,3.83559,0,0,1-4.34051-.09138,3.98233,3.98233,0,0,0,.16143,1.73843c.62584.79811,2.14644,1.772,2.63448,1.65233a3.94158,3.94158,0,0,0,1.575-2.94907C92.61075,118.94251,92.60043,118.821,92.589,118.67131Z" style="fill:#6d4a4a"/><path d="M93.76818,64.11209a21.59083,21.59083,0,0,1-7.93-2.62156,67.27755,67.27755,0,0,0-.63983,8.98871c-.02257,3.39216.18691,11.29628,1.11407,20.80553.62053,6.36439,1.77932,13.4969,2.60117,20.2947a2.67012,2.67012,0,0,0,3.20139-.11431s.40472-3.02323.80037-7.4033c.57656-6.38306.58243-9.08648.05715-12.46268-.52523-3.37616,1.43032-15.748,1.43032-15.748s.035.14266.09773.40117A101.03343,101.03343,0,0,1,93.76818,64.11209Z" style="fill:#ffddc3"/><path d="M105.62084,100.83439a68.8622,68.8622,0,0,0-2.15134-10.47845c-.35813-1.82-.25039-17.19326-1.468-24.9479-.14207-.90475-.32136-1.73874-.52356-2.518a18.98391,18.98391,0,0,1-8.39577,1.222,101.03343,101.03343,0,0,0,.73233,12.14023c.41582,1.71258,2.0841,8.6447,3.35983,14.83235,1.46834,7.12163,6.46,20.59487,6.46,20.59487s.87992.312,2.778-.8749C106.41234,110.80464,106.053,104.66527,105.62084,100.83439Z" style="fill:#ffddc3"/><path d="M86.69826,56.26115s-3.473,10.44749-2.44394,26.65467c7.77488,2.1724,18.56042.576,19.90883-1.15765.80036-1.029-1.01473-23.42468-5.2166-26.82619" style="fill:#86bdbd"/><path d="M97.1268,31.49762a2.35957,2.35957,0,0,0,1.1384,1.40162,6.0421,6.0421,0,0,1,.59989.18411c.48019.23657.61746.84433.6996,1.37329a1.88139,1.88139,0,0,1,1.90692,1.70352,3.90182,3.90182,0,0,1-.8455,2.64415,2.95659,2.95659,0,0,1-.91263.92176,2.78971,2.78971,0,0,1-.713.26429,5.04841,5.04841,0,0,1-4.43368-.84285,3.97226,3.97226,0,0,1-.27854-5.819c.50947-.51984,1.17768-.92136,1.48162-1.58273" style="fill:#6d4a4a"/><path d="M100.51792,47.24111s1.68748,7.1062,4.686,7.03947,8.16111-11.7743,8.18078-11.8602a5.712,5.712,0,0,0-2.05309-1.32246s-1.83366,2.49055-3.185,4.04939a32.51616,32.51616,0,0,1-2.5456,2.63037c-1.4068-5.17365-1.47448-8.26821-3.02959-8.71471S100.51792,47.24111,100.51792,47.24111Z" style="fill:#ffddc3"/><path d="M84.70459,43.20205l-3.77182,6.726-9.31085,3.25727a2.83278,2.83278,0,0,0,.41064,2.312s9.22229-.94346,11.24771-2.312c2.08673-1.41,5.03788-7.794,5.03788-7.794" style="fill:#ffddc3"/><path d="M93.73172,24.2356s-3.02485-.31517-3.26244,2.18753c.06336,1.9008,2.1638,1.97138,2.1638,1.97138s1.95029,5.34348,4.13162,4.59358,3.66046-4.64348,1.84975-7.39834C96.41305,22.24048,93.73172,24.2356,93.73172,24.2356Z" style="fill:#6d4a4a"/><path d="M97.175,36.53348c-.67216,1.02628-2.91978,1.92967-5.29748-.07225.57816-.36859.72994-1.42376.72994-2.43553v-.00724c0-.37582-.0217-.74441-.05059-1.06241-.0506-.62152-.13009-1.07683-.13009-1.07683L95.28867,29.899l1.75618.19515S96.38,33.98234,97.175,36.53348Z" style="fill:#ffddc3"/><path d="M94.5226,33.40418a1.63463,1.63463,0,0,1-1.91516,1.34423v-.00724c0-.37582-.0217-.74441-.05059-1.0624A1.99209,1.99209,0,0,1,94.5226,33.40418Z" style="fill:#ffd2b0"/><path d="M93.48463,25.96308c-1.07995.09532-2.43969,1.01607-2.73519,3.97645s.68612,4.1047,1.68,4.2521A4.04955,4.04955,0,0,0,96.543,31.60255C97.4403,29.33709,95.45159,25.78948,93.48463,25.96308Z" style="fill:#ffddc3"/><path d="M99.589,55.12469a2.14375,2.14375,0,0,1-.31585-1.02614c-.07913-.87042,1.71229-7.49006,1.71229-7.49006a5.52189,5.52189,0,0,0,4.25318-1.52323s-1.02867-5.32143-2.31452-6.82488-4.996-1.74084-4.996-1.74084-1.04185,2.59808-2.941,2.62443-2.50145-.538-3.39826-2.70086l-2.43322.1088a24.48534,24.48534,0,0,0-2.60894,4.86045c-.47477,1.71445.337,11.61807.337,12.62039a1.98014,1.98014,0,0,1-.05208.35168C89.11878,54.80094,94.36227,55.89029,99.589,55.12469Z" style="fill:#fff"/><path d="M102.69565,63.20722A56.90836,56.90836,0,0,0,99.589,55.12469c-5.22669.7656-10.47018-.32375-12.75735-.74026-.25786,1.22283-1.80508,6.17453-2.09091,9.10507C86.65908,64.19392,92.77516,66.52086,102.69565,63.20722Z" style="fill:#fff"/><path d="M96.47341,29.54779s.44455-.756,1.04034-.4358.18849,2.752-1.24887,2.40192" style="fill:#ffddc3"/><path d="M92.27131,36.37387l-.33623.06924-.318.06792s.12606,3.00822,2.92721,2.94888a3.60372,3.60372,0,0,0,3.35925-2.88283s-.62676-.03444-.79746-.29161-3.33152.217-3.33152.217" style="fill:#ffddc3"/><path d="M89.1556,36.55191c-2.4464.92647-5.03129,6.96666-5.03129,6.96666a5.84178,5.84178,0,0,0,3.42893,2.37387" style="fill:#fff"/><path d="M72.1505,53.16226s-3.28651-1.26189-3.39645-.91987c-.21228.66042,1.27367,1.32084,1.27367,1.32084s-2.66527.8727-2.57092,2.19354,4.25342.8098,5.25977-.73118" style="fill:#ffddc3"/><path d="M90.50072,26.75334c.11794,1.36015,1.30512,2.31147,3.63231,2.09133-.22014-.69187.69973-2.3036,1.58029-2.14636,1.3916-.80194-3.137-1.879-3.137-1.879" style="fill:#6d4a4a"/><path d="M111.23318,41.67568s.23586-4.3399.75477-4.76445.66041,2.12277.66041,2.12277,3.44362-1.46235,4.76446-.14152-4.43425,3.91535-4.43425,3.91535" style="fill:#ffddc3"/><path d="M59.37972,37.17829c2.79835,1.08594,10.66639,1.91286,10.66639,1.91286l7.93043-8.39232,2.90037,1.366S75.936,41.77109,72.178,44.18949c-2.16149,1.391-13.8817-1.37434-13.8817-1.37434" style="fill:#ffd2b0"/><path d="M71.8754,62.65975s1.00789,23.75293-.52647,30.57555-1.06,20.29632-1.53409,22.8517c-.08315.44824-5.31027,2.735-5.67508.70845-1.45986-8.10958-2.715-19.44138-.80938-24.60823-1.04905-7.22158-1.9056-25.337-1.9056-25.337" style="fill:#969696"/><path d="M70.30154,66.46461S66.81511,86.47423,62.539,93.30125s-7.6181,23.50442-7.6181,23.50442-3.91086,1.61562-5.95353-.80345c-.08639-2.24634,1.51841-20.41172,5.42145-26.50247,2.08808-4.20652,1.57762-18.48557,1.57762-18.48557l.1467-8.43034" style="fill:#969696"/><path d="M62.59013,24.8587s.42008.9578,1.06683.21727c.63627-.72852.19842-1.61255-.08351-1.612.20763-.146.48185.03074.7019-.09574.23887-.13731.17441-.50664.01634-.73231a.90566.90566,0,0,0-.45311-.36367c-.18844-.05834-.01056.03853-.1314.19444.28438-.37244-.1247-.98072-.38793-1.3684a1.47262,1.47262,0,0,0-1.70733-.25076c-.33823.2021-.791-.81053-2.97426-.93446-1.08495-.06159-3.57059.781-3.73218,2.54448-.78295-.31162-1.66527.56495-2.10207,1.2856a3.42356,3.42356,0,0,0-.29812,2.57182,7.59208,7.59208,0,0,0,1.15616,2.377c.49419.73505,1.00107,1.06072,1.432,1.83454A4.72532,4.72532,0,0,0,56.475,31.78827c.102.07837-.108.40059.02025.41068a.80693.80693,0,0,0,.307-.05571,18.48255,18.48255,0,0,0,1.80033-.68731,4.06987,4.06987,0,0,0,1.0639-.62275c.76282-.67137,1.00171-1.77018,1.68069-2.52623" style="fill:#6d4a4a"/><path d="M62.96809,32.09453a2.14874,2.14874,0,0,1-1.717.22232l.0803.89528.32468,3.893s-7.11133-.50194-6.322-1.70429c.97305-1.48229.169-4.355.169-4.355s1.37453.187,1.817-.2782a2.53876,2.53876,0,0,0,.58916-1.06486,3.42648,3.42648,0,0,1-1.32885-2.2198c-.02575-1.24274,1.41193-.32038,1.41193-.32038l.47479,1.00856.52748.41187a4.745,4.745,0,0,1,.65109-2.05951,3.08589,3.08589,0,0,0,3.06015-2.14631S64.4525,30.82889,62.96809,32.09453Z" style="fill:#ffddc3"/><path d="M61.42269,36.12186a37.96383,37.96383,0,0,1,3.177,3.92751c1.86117,2.69229,4.29756,9.14616,4.29756,9.14616a128.36285,128.36285,0,0,1,3.999,16.75816c-6.22351,5.5364-15.26794,4.81634-17.37444,3.25513a54.42254,54.42254,0,0,0-1.347-12.28189c-1.8551-8.09311-2.52746-11.93258-2.486-13.99229.0591-2.93258,1.49377-6.91672,4.00551-8.64478" style="fill:#7c83ba"/><path d="M61.25105,32.31685l.0803.89528A7.031,7.031,0,0,1,59.56652,31.568Z" style="fill:#ffd2b0"/><path d="M77.197,31.79348s.71241-5.27411,1.55914-5.38722.68094,2.33576.68094,2.33576,2.34507-2.30274,3.99686-1.58778c1.93767.83869-.23783,5.327-3.71986,5.97512" style="fill:#ffd2b0"/><path d="M64.158,91.233l-.58789-.35635c2.24819-3.70984,5.45538-18.068,5.48759-18.21266l.6711.149C69.5966,73.40792,66.46458,87.42687,64.158,91.233Z" style="fill:#7c7c7c"/><path d="M95.63144,41.12363c.37778-.10663,2.02425-.81436,2.26857.03466s.07907,4.46434-.40728,4.55715-1.14771-.68773-1.76182-3.0428" style="fill:#6d4a4a"/><path d="M89.31923,38.07168l-.0061-.03075c-1.36441.5076-2.23376.94481-2.72688,2.0841A2.88719,2.88719,0,0,0,87.96,41.16616c1.14482.43041,7.3276,1.48425,7.79043,1.57978a1.26358,1.26358,0,0,0,.58563-1.83283c-.68324-.32536-1.24529-.62621-1.78221-.91822A14.24751,14.24751,0,0,0,89.31923,38.07168Z" style="fill:#ffddc3"/><path d="M87.793,47.24334c.3677.1514,2.12187.61722,1.78661,1.44821s-2.72384,3.61463-3.16944,3.38419-.4855-1.26787.49516-3.53312" style="fill:#6d4a4a"/><path d="M84.71523,41.0312s.02025-.042.05265-.11086a13.19307,13.19307,0,0,1-3.60284.80344,1.93742,1.93742,0,0,0,.388.90938c.84262.92294,5.01439,5.74124,5.326,6.11014.47016.16,1.59424-.36874,1.57255-1.18212C86.54649,42.46758,84.71523,41.0312,84.71523,41.0312Z" style="fill:#ffddc3"/><path d="M76.19692,27.43977c-1.53124-1.72115-2.92276,1.33544-3.94907,2.66514s-3.24862,4.42325-4.08891,4.9333-3.50719.79491-3.31344,1.2322,2.47066.55946,3.39358.45765c-.09483.58383-.32287,1.7275.14031,1.72918.31253.00114.8046-2.02955,1.17934-2.38056a36.85866,36.85866,0,0,0,4.56919-4.0069C76.40885,29.70306,77.155,28.51666,76.19692,27.43977Z" style="fill:#ffddc3"/><path d="M74.97107,26.28592c-1.27641.78569-2.54406,3.39587-3.08218,3.77872.23485.79267,2.58894,2.18816,2.58894,2.18816l2.473-2.731" style="fill:#86bdbd"/><path d="M87.0706,34.74892c.71637-3.26049-1.91849-3.99673-2.53594-4.32348l-4.70044,4.56165S81.048,36.071,81.14953,36.60293a27.77459,27.77459,0,0,0-.017,5.12085,7.138,7.138,0,0,0,3.82461-.85024A31.75329,31.75329,0,0,0,87.0706,34.74892Z" style="fill:#d16464"/><path d="M89.73857,38.01384a22.71176,22.71176,0,0,0-2.541-6.00069,4.82074,4.82074,0,0,0-4.9827-1.95276l-.19081,6.37287a5.39046,5.39046,0,0,1,1.9889.44851c.7614,1.0191,2.018,2.90878,2.93481,3.87951A5.60429,5.60429,0,0,0,89.73857,38.01384Z" style="fill:#d16464"/><path d="M76.48406,25.06787c4.39567-1.18421,7.69092,4.29847,10.18185,5.70317a8.32948,8.32948,0,0,1-5.81052,6.67082c-2.72752-1.62-7.08727-6.25771-7.36324-8.12812C73.26185,27.75285,75.26968,25.395,76.48406,25.06787Z" style="fill:#86bdbd"/><path d="M76.81471,26.19634c-.96984-2.06193,5.36295-2.55955,6.966-2.97489s5.26876-1.2313,6.05628-1.7966,1.97865-2.54351,2.30053-2.19716-.33181,2.23431-.78087,3.03365c.56637.14106,1.67475.27312,1.49727.69482-.11976.28455-2.15239-.05862-2.61569.14539a54.78707,54.78707,0,0,1-5.76294,2.473C81.44646,26.72674,77.42152,27.48646,76.81471,26.19634Z" style="fill:#ffddc3"/><path d="M75.84567,25.43935c.789-.73942,2.99174-1.59166,6.33167-2.01486a6.53058,6.53058,0,0,1,1.01251,3.015,18.33685,18.33685,0,0,1-7.09959,1.07538" style="fill:#86bdbd"/><path d="M71.48982,22.84511s-.93908.58057-1.4171.10122a.90084.90084,0,0,1,.23871-1.43322c-.58648-.09343-.32412-1.181.58044-1.471a2.27753,2.27753,0,0,1,1.48055-.00872s-.73153.10814-.45839-.47689,1.42365-.48349,1.82313-.014c.29133-.55972,1.54783-.25132,2.14411.6291.70916,1.04707,1.02,3.45954-.14016,4.322-.73148.54377-1.89589-.32312-1.89589-.32312" style="fill:#6d4a4a"/><ellipse cx="75.46321" cy="23.47457" rx="0.69378" ry="0.4204" transform="translate(30.74741 88.63782) rotate(-72.82113)" style="fill:#ffddc3"/><path d="M75.37747,23.42667a2.83431,2.83431,0,0,0,1.26109,1.80464S75.975,28.826,75.05433,28.71159c-.30681-.08809-.75023-1.19119-.81652-1.54882a2.28351,2.28351,0,0,0-1.02809-1.251" style="fill:#ffddc3"/><path d="M75.08446,24.58732s.03739,1.54244-.73215,1.90294c-.34389.16184-.83577-.48438-.83577-.48438" style="fill:#ffd2b0"/><path d="M70.81554,22.73482c-.04232.49408.5035,3.24414,2.45062,3.57788.82434.10482,1.6182-.621,1.89153-1.678a4.52107,4.52107,0,0,0,.07291-1.64655,2.25187,2.25187,0,0,1-1.4633-1.24921,2.344,2.344,0,0,1-2.68237.55672C70.70849,21.98325,70.81554,22.73482,70.81554,22.73482Z" style="fill:#ffddc3"/><path d="M61.56522,39.15857c2.668,1.37537,10.17785,3.37279,10.17785,3.37279l8.99921-7.85225,2.73991,1.6646s-5.85861,10.26181-10.15755,11.4826c-4.57544,1.29932-14.20946-2.86089-14.20946-2.86089" style="fill:#ffddc3"/><path d="M66.66964,40.50905c1.62774.73408-2.04819,6.99792-2.04819,6.99792s-6.19716-1.7461-8.50451-3.16389c-3.35678-2.06262-2.69692-6.77881-.056-7.61534S63.99122,39.30113,66.66964,40.50905Z" style="fill:#7c83ba"/><path d="M80.419,35.58083s.667-5.4946,1.51376-5.60771.46369,2.35041.46369,2.35041S83.76389,29,85.16607,30.12851c2.75511,2.21734.39381,6.34107-2.30105,6.824" style="fill:#ffddc3"/><path d="M63.095,26.54422s1.03363,1.772,1.08286,2.01805-.78754.54143-.78754.54143" style="fill:#ffddc3"/></svg>