<svg xmlns="http://www.w3.org/2000/svg" viewBox="0 0 160 160"><g style="isolation:isolate"><g id="e86db04d-2e93-46a7-aea6-8c18288120db" data-name="レイヤー 1"><circle cx="80" cy="80" r="80" style="fill:#eff6f9"/><path d="M121.2733,124.4872c.52633-3.527.81183-7.20382-.28607-10.59665-1.0979-3.393-3.8691-6.45374-7.40324-6.93136a2.26978,2.26978,0,0,0-1.74348.31311c-.76772.62181-.60954,1.82229-.31369,2.76487,1.7247,5.4941,5.59054,10.01358,9.3609,14.36586" style="fill:#86bdbd"/><path d="M114.11134,109.42661a32.02611,32.02611,0,0,1,4.49917,6.73453,30.40206,30.40206,0,0,1,1.547,3.72867c.43619,1.28678.70276,2.62546,1.13581,3.91.01624.04816.09733.04378.09352-.01265a15.72381,15.72381,0,0,0-.93085-3.87146,30.93022,30.93022,0,0,0-1.57048-3.79461,29.66322,29.66322,0,0,0-4.64472-6.824c-.0798-.08785-.206.0411-.12948.12948Z" style="fill:#428a66"/><path d="M121.04264,124.54281a22.22257,22.22257,0,0,0,9.18047-7.07862c1.02906-1.35771,1.86408-3.389.70157-4.63453-.31234-.33458-.73494-.55642-1.02408-.91153a2.45715,2.45715,0,0,1,.31848-2.99841,16.53413,16.53413,0,0,1,2.53345-2.05391,8.61737,8.61737,0,0,0,2.50469-9.64006c-.80473-2.00233-3.13781-3.79835-5.00842-2.72212a4.02589,4.02589,0,0,0-1.60236,2.243c-.76274,2.1469-.87414,4.59886-2.2746,6.39584a20.46832,20.46832,0,0,1-2.961,2.60228,4.47668,4.47668,0,0,0-1.82516,3.35256c.04582,1.06875.71058,2.04662.70847,3.11653-.00307,1.64972-1.51416,2.83888-2.33231,4.27137a5.575,5.575,0,0,0,.68968,6.33065" style="fill:#85bea3"/><path d="M131.51761,97.21117c-.22069,4.16452-3.08915,7.41613-5.00167,10.91752a21.99161,21.99161,0,0,0-1.89181,4.96545,22.37324,22.37324,0,0,1-1.70929,5.01188,8.9056,8.9056,0,0,1-1.90873,2.401c-.82653.73946-1.721,1.39292-2.48893,2.19747a.0568.0568,0,0,0,.08028.08028c1.39307-1.24031,3.01073-2.26278,4.08549-3.82042a15.55387,15.55387,0,0,0,1.95209-4.84464,26.8124,26.8124,0,0,1,1.90232-5.45692c.9531-1.83418,2.16095-3.51847,3.17831-5.31543a13.51359,13.51359,0,0,0,1.99238-6.13624c.00438-.1229-.184-.12187-.19044,0Z" style="fill:#428a66"/><path d="M133.44037,100.46088c-.80131.60362-1.5805,1.23436-2.32544,1.90651-.37493.33829-.74781.68072-1.10293,1.03985a10.443,10.443,0,0,0-1.00407,1.09412c-.02516.034.02653.06536.05464.04217.37846-.31225.71324-.679,1.0692-1.01652.36672-.34776.73021-.69854,1.10438-1.0384.73712-.66952,1.49235-1.32038,2.27079-1.94145.04824-.03848-.01666-.12387-.06657-.08628Z" style="fill:#428a66"/><path d="M125.363,111.20956a15.03158,15.03158,0,0,0,.2598-3.48309,10.28992,10.28992,0,0,0-.39891-3.32168c-.01248-.03367-.07359-.03258-.06834.00925a32.20075,32.20075,0,0,1,.23127,3.24659,21.98628,21.98628,0,0,1-.06619,3.53724c-.00374.02714.03639.04.04237.01169Z" style="fill:#428a66"/><path d="M127.67183,112.70409A15.21733,15.21733,0,0,0,125.28805,114.9a13.89389,13.89389,0,0,0-.96748,1.2444,5.49934,5.49934,0,0,0-.803,1.389c-.00991.032.03538.06068.05816.03385.32457-.38242.55284-.86236.83818-1.276.30573-.44322.63528-.87119.98315-1.28214a15.08769,15.08769,0,0,1,2.32649-2.21639c.05133-.03942.00163-.12822-.05176-.08855Z" style="fill:#428a66"/><path d="M120.74557,120.53884a18.27871,18.27871,0,0,0,.85314-3.04842c.08929-.49272.15777-.98947.19943-1.48862a5.75029,5.75029,0,0,0,.00325-1.47866.03691.03691,0,0,0-.07063,0,11.57454,11.57454,0,0,0-.167,1.47866c-.05295.51531-.11541,1.03011-.1949,1.54207a25.48073,25.48073,0,0,1-.63388,2.99205c-.00194.00691.00819.00946.0106.00292Z" style="fill:#428a66"/><path d="M126.34173,94.39165a6.06369,6.06369,0,0,1,.64425-2.20806,3.32135,3.32135,0,0,1,1.66851-1.5343.87626.87626,0,0,1,1.00874.13057.73368.73368,0,0,1,.12386.46382,2.19733,2.19733,0,0,1-.83157,1.46891,6.38043,6.38043,0,0,1-2.2282,1.33086" style="fill:#81b8b3"/><path d="M124.7804,96.86815c-.13287.02493-.22606-.12386-.278-.24868a6.58013,6.58013,0,0,1-.742-4.047c.03164-.124.08552-.26268.2065-.30448.19347-.06692.354.15819.43161.34762a5.762,5.762,0,0,1,.26805,4.4401" style="fill:#81b8b3"/><path d="M124.2815,98.49659c-.05906-.25386.14514-.488.34129-.65977a7.61534,7.61534,0,0,1,3.28258-1.68366c.33957-.07881.76983-.0999.95946.1927a.70634.70634,0,0,1,.00613.6381,1.95793,1.95793,0,0,1-.90079.94432,5.15632,5.15632,0,0,1-1.25263.43908q-1.19531.29682-2.41188.49488" style="fill:#81b8b3"/><path d="M123.09943,101.6762a12.25123,12.25123,0,0,1-1.5366-1.90608,2.93737,2.93737,0,0,1-.62545-1.98545.52423.52423,0,0,1,.18618-.36584.50225.50225,0,0,1,.50484.028,2.01179,2.01179,0,0,1,.73283.78134,5.5875,5.5875,0,0,1,.71059,3.76479" style="fill:#81b8b3"/><path d="M122.99646,104.38126a2.66046,2.66046,0,0,1,1.37822-1.56306,5.4019,5.4019,0,0,1,2.359-.984.55278.55278,0,0,1,.32634.04487.48976.48976,0,0,1,.18062.48932,1.508,1.508,0,0,1-.60724.97979,4.47981,4.47981,0,0,1-1.04383.55125q-.58786.24676-1.17593.49353a8.15975,8.15975,0,0,1-1.63746.5549" style="fill:#81b8b3"/><path d="M121.8721,107.56412a8.8036,8.8036,0,0,1-1.20488-1.44322,3.79412,3.79412,0,0,1-.76466-2.80744c.03451-.16087.1068-.34034.26422-.38865.18963-.05829.36852.10756.497.259a7.15951,7.15951,0,0,1,1.3414,2.0702,4.03478,4.03478,0,0,1,.14323,2.31909" style="fill:#81b8b3"/><path d="M121.718,110.00554a6.711,6.711,0,0,1,3.25074-2.58714c.28512-.10565.664-.166.84289.08a.58376.58376,0,0,1,.0742.42585,1.751,1.751,0,0,1-.79438,1.152,5.18812,5.18812,0,0,1-1.31667.57407q-1.12368.37073-2.24737.74126" style="fill:#81b8b3"/><path d="M121.32546,113.32588a13.44185,13.44185,0,0,1-2.29109-1.63937,2.24892,2.24892,0,0,1-.85823-1.28656.67966.67966,0,0,1,.04583-.38751.66221.66221,0,0,1,.57081-.32346,1.8,1.8,0,0,1,1.36786.766,5.4461,5.4461,0,0,1,1.21237,2.59327" style="fill:#81b8b3"/><path d="M121.46063,114.94589a5.36779,5.36779,0,0,1,2.307-2.11987c.338-.16125.785-.27,1.05226-.00748a.677.677,0,0,1,.16816.55681,1.32926,1.32926,0,0,1-.524.86033,3.95193,3.95193,0,0,1-.905.49316q-1.20306.52488-2.40575,1.04977" style="fill:#81b8b3"/><path d="M120.87219,118.3435a5.46214,5.46214,0,0,1-1.4996-.646,5.6136,5.6136,0,0,1-1.406-1.04344,2.30083,2.30083,0,0,1-.65038-1.58645.46463.46463,0,0,1,.13019-.35146.419.419,0,0,1,.205-.079,1.76607,1.76607,0,0,1,1.147.32787,3.58509,3.58509,0,0,1,1.93407,3.02545" style="fill:#81b8b3"/><path d="M120.87372,119.72211a4.11689,4.11689,0,0,1,2.82815-2.73248.89279.89279,0,0,1,.79955.07286c.311.25943.18618.77789-.07228,1.08966a3.14041,3.14041,0,0,1-1.6156.89791,8.2551,8.2551,0,0,0-1.77761.58883" style="fill:#81b8b3"/><path d="M120.73931,124.10852a12.64767,12.64767,0,0,1-1.92448-1.49556,4.24166,4.24166,0,0,1-1.20489-2.08382.62891.62891,0,0,1,.02281-.42643c.14745-.27074.55068-.22645.83177-.10028a3.62305,3.62305,0,0,1,1.66142,1.62154,6.07268,6.07268,0,0,1,.63408,2.26194" style="fill:#81b8b3"/><path d="M120.97381,124.05042a1.37921,1.37921,0,0,1,.167-1.02983,3.16909,3.16909,0,0,1,.70445-.79917,4.46253,4.46253,0,0,1,2.38984-1.19338.69768.69768,0,0,1,.35682.03317c.29413.13211.31311.54646.22127.85554a3.16515,3.16515,0,0,1-1.56574,1.78107,9.39162,9.39162,0,0,1-2.29358.78938" style="fill:#81b8b3"/><path d="M120.847,124.07247a101.44859,101.44859,0,0,1,.98352-13.24956,75.51341,75.51341,0,0,1,2.51529-12.23751A8.75718,8.75718,0,0,1,127.65,93.62419a.06231.06231,0,0,0-.06285-.10752c-3.09038,1.8111-3.77972,5.959-4.48851,9.15353a99.08926,99.08926,0,0,0-2.035,13.54221q-.31451,3.92235-.3215,7.86006a.05252.05252,0,0,0,.105,0Z" style="fill:#9ac9c7"/><path d="M23.49368,102.26254a3.62229,3.62229,0,0,1-1.466-1.31456,2.52907,2.52907,0,0,1-.59976-1.86562.56914.56914,0,0,1,.27476-.43027c.23373-.10679.4968.06711.677.25022a3.59606,3.59606,0,0,1,1.01833,2.61686" style="fill:#81b8b3"/><path d="M24.822,104.26334a1.39043,1.39043,0,0,1-1.35367.53361,2.46691,2.46691,0,0,1-1.32339-.72823.71355.71355,0,0,1-.18924-.25942.27394.27394,0,0,1,.06212-.29777.40189.40189,0,0,1,.284-.05733,8.3259,8.3259,0,0,1,2.80034.65364" style="fill:#81b8b3"/><path d="M26.11916,105.05292a1.94374,1.94374,0,0,1-.43793-1.1305,4.41665,4.41665,0,0,1,.1112-1.22425c.055-.27131.17736-.59612.45232-.62871a.50136.50136,0,0,1,.41492.195,1.56036,1.56036,0,0,1,.26057,1.17574,5.73363,5.73363,0,0,1-.64788,2.19292" style="fill:#81b8b3"/><path d="M27.94969,106.91068q-.33276.23871-.66533.47743a3.7727,3.7727,0,0,1-1.19377.654,1.28151,1.28151,0,0,1-1.26835-.29164.51822.51822,0,0,1-.15493-.40782c.03643-.24639.30793-.37639.54761-.44407a4.63433,4.63433,0,0,1,2.8477.11332" style="fill:#81b8b3"/><path d="M29.87,108.48121a5.36077,5.36077,0,0,1-.70618-2.37584,1.60118,1.60118,0,0,1,.10623-.77788.61122.61122,0,0,1,1.01391-.23392,1.33769,1.33769,0,0,1,.40553.93837,3.97079,3.97079,0,0,1-.12674,1.03922q-.14179.66639-.28377,1.33317" style="fill:#81b8b3"/><path d="M32.39938,109.89721a5.38206,5.38206,0,0,1-1.0189.88353,2.15632,2.15632,0,0,1-1.01718.40879,1.76333,1.76333,0,0,1-.9656-.24294c-.19749-.1091-.40265-.296-.36257-.51808a.47652.47652,0,0,1,.1114-.21206,1.98678,1.98678,0,0,1,1.59277-.49737q.63648.00574,1.27085.06212" style="fill:#81b8b3"/><path d="M34.274,110.59993a3.24225,3.24225,0,0,1-.90462-3.20013c.05982-.2111.17007-.44234.38213-.49756a.60248.60248,0,0,1,.57407.27994,2.39242,2.39242,0,0,1,.46132,1.48023,7.12881,7.12881,0,0,1-.2228,1.56056" style="fill:#81b8b3"/><path d="M36.80094,111.76992q-.41272.31522-.82544.63044a5.55161,5.55161,0,0,1-1.14238.73244,1.86407,1.86407,0,0,1-1.32587.1045.59953.59953,0,0,1-.34935-.25712c-.13058-.24639.04448-.548.25674-.729a2.6682,2.6682,0,0,1,1.37649-.5386c.4945-.07.99743-.07344,1.48962-.1578" style="fill:#81b8b3"/><path d="M38.9511,112.11563a2.97533,2.97533,0,0,1-1.37017-1.85642,1.31782,1.31782,0,0,1,.01477-.79188.63755.63755,0,0,1,.62027-.4201.72737.72737,0,0,1,.40975.22069,2.77025,2.77025,0,0,1,.56966,1.98507q.0115.54387.0232,1.08793" style="fill:#81b8b3"/><path d="M41.23951,112.989a2.24815,2.24815,0,0,1-.4341.51673q-.55826.53726-1.15619,1.03137a3.18634,3.18634,0,0,1-1.01813.63063,1.20333,1.20333,0,0,1-1.14123-.167.55205.55205,0,0,1-.20075-.33075.68691.68691,0,0,1,.21532-.51635,3.21044,3.21044,0,0,1,1.47428-.89811,9.57387,9.57387,0,0,1,1.71664-.316" style="fill:#81b8b3"/><path d="M43.8554,113.56613a7.36,7.36,0,0,1-1.76783-2.05947,1.30132,1.30132,0,0,1-.16221-.55547.52058.52058,0,0,1,.7706-.51117,1.36409,1.36409,0,0,1,.42777.33171,3.72,3.72,0,0,1,1.05034,2.31889.64508.64508,0,0,1-.05541.35318" style="fill:#81b8b3"/><path d="M47.401,114.2771a2.2835,2.2835,0,0,0-2.57429,1.89841.43681.43681,0,0,0,.0813.3992c.13652.1231.3528.051.51424-.03681a4.43821,4.43821,0,0,0,.92687-.67186,8.88137,8.88137,0,0,0,.64827-.70752q.39978-.46908.79955-.93837" style="fill:#81b8b3"/><path d="M22.94176,101.21768c3.7322,6.69795,11.41382,10.1678,18.53783,11.96567a36.63732,36.63732,0,0,0,6.98886,1.15878c.03372.00175.04249-.055.00812-.06-7.62211-1.08981-15.70384-3.17382-21.57959-8.45395a22.35669,22.35669,0,0,1-3.91938-4.6315.02077.02077,0,0,0-.03584.02095Z" style="fill:#91baa5"/><path d="M49.02239,120.67984a67.76,67.76,0,0,0,.12194-10.71418,7.13139,7.13139,0,0,0-1.18916-4.09536,21.99285,21.99285,0,0,0-2.44333-2.04739c-2.3189-2.131-2.456-5.7119-2.12505-8.84377.33075-3.13167.93205-6.4618-.41991-9.306-.83981-1.76669-3.27145-3.18671-4.66558-1.81443-.50178.49392-.72842,1.24841-1.31706,1.635-1.37227.9006-2.9127-.8751-3.597-2.36721-1.79966-3.923-3.8252-8.11306-7.613-10.18173-.96694-.52805-2.2631-.859-3.097-.13882a2.78387,2.78387,0,0,0-.76561,1.54849,11.03236,11.03236,0,0,0,.67012,6.81977c.69295,1.56689,1.74751,2.95777,2.3931,4.54479a5.09936,5.09936,0,0,1-.214,4.90814,9.14861,9.14861,0,0,0-1.10614,1.4066c-.69813,1.46143.63849,3.11767,2.08171,3.85222,1.44341.73475,3.1612,1.09867,4.2148,2.32848,1.93235,2.25524.78709,6.43189,3.27893,8.04748,1.31092.84979,3.06093.52824,4.52926,1.06224,2.64044.96061,3.49541,4.15939,4.5053,6.78142,1.17842,3.059,3.38112,6.0858,6.59889,6.7126" style="fill:#86bdbd"/><path d="M44.44538,113.06649a.02382.02382,0,0,0,0-.04761.02382.02382,0,0,0,0,.04761Z" style="fill:#428a66"/><path d="M46.4267,116.744c.68431-6.55862-4.64-11.458-8.07635-16.37061A37.749,37.749,0,0,1,33.76744,91.673a24.51083,24.51083,0,0,0-3.91933-7.73655c-2.09565-2.48822-4.689-4.52931-6.31175-7.39659-.04078-.07205-.149-.00818-.11068.0647,1.26879,2.41428,3.35006,4.22742,5.18643,6.19483a18.74322,18.74322,0,0,1,2.66031,3.4753,27.953,27.953,0,0,1,1.8934,4.42,40.73579,40.73579,0,0,0,3.91094,8.331c1.7236,2.69679,3.83381,5.1,5.68282,7.70546,2.07434,2.923,3.76586,6.33371,3.49133,10.01291-.00849.11383.16424.11074.17579,0Z" style="fill:#428a66"/><path d="M27.89218,76.50824a35.3683,35.3683,0,0,0,.93557,4.37413,21.40435,21.40435,0,0,0,1.48806,4.06611.0423.0423,0,0,0,.077-.03246c-.45367-1.39352-1.00594-2.74613-1.4107-4.15763a36.66537,36.66537,0,0,1-.95571-4.28714c-.01424-.08852-.1474-.05048-.1342.037Z" style="fill:#428a66"/><path d="M35.96141,96.64392a8.61559,8.61559,0,0,0-2.99864-3.557c-.71921-.54095-1.47565-1.02963-2.21982-1.53493-.7728-.52473-1.51227-1.08569-2.25977-1.64473-.06376-.04769-.13226.05244-.08211.10641a26.30042,26.30042,0,0,0,4.14565,3.06816,10.7097,10.7097,0,0,1,3.37453,3.579c.01124.02166.04966.0064.04016-.01693Z" style="fill:#428a66"/><path d="M39.52624,87.82785a36.20481,36.20481,0,0,0-1.15954,7.66857c-.07758,1.98873-.26879,4.60367,1.06732,6.26.05249.06507.14942-.01795.11216-.08654-1.10268-2.03-1.06159-4.27808-.95473-6.53077a39.31161,39.31161,0,0,1,1.0266-7.28595.04765.04765,0,0,0-.09181-.02531Z" style="fill:#428a66"/><path d="M41.28823,104.77622a31.407,31.407,0,0,0-4.59629-3.06144,23.52539,23.52539,0,0,0-5.08866-2.15847c-.09128-.024-.12091.104-.038.13772a51.8136,51.8136,0,0,1,5.1,2.23434,33.15554,33.15554,0,0,1,4.552,2.93988c.05219.04023.12309-.0506.071-.092Z" style="fill:#428a66"/><path d="M45.776,105.73973c-.09678.76305-.2054,1.52441-.30971,2.28644q-.07446.54393-.15444,1.08708a5.98925,5.98925,0,0,0-.13214,1.066.06073.06073,0,0,0,.1187.01607,5.78133,5.78133,0,0,0,.19813-1.12158q.07717-.53343.149-1.06763c.10136-.75353.18155-1.51.25866-2.26638.00844-.08274-.118-.08021-.12818,0Z" style="fill:#428a66"/><path d="M46.23884,114.53663a14.88535,14.88535,0,0,0-1.89419-2.83227,13.47079,13.47079,0,0,0-1.19852-1.22631,6.54566,6.54566,0,0,0-1.36612-1.004c-.05024-.02559-.10548.03819-.06213.08052.39641.38707.84042.72835,1.25261,1.09911a16.50068,16.50068,0,0,1,1.18256,1.18322,14.8867,14.8867,0,0,1,1.98776,2.757c.03571.06409.13156.00736.098-.05731Z" style="fill:#428a66"/><path d="M48.73075,116.45545a21.33088,21.33088,0,0,1-3.839-11.87459,37.77983,37.77983,0,0,1,1.93906-12.45844,7.05146,7.05146,0,0,1,1.0956-2.37392,2.58614,2.58614,0,0,1,2.28169-1.05418,3.44588,3.44588,0,0,1,2.29052,2.13,14.01893,14.01893,0,0,1,1.47006,6.31607,27.96343,27.96343,0,0,1-1.00778,6.303q-1.59509,6.66476-3.19035,13.3297" style="fill:#b3d2c3"/><path d="M49.52671,116.86634c-.2276-1.84246-.539-3.6669-.68718-5.51991a45.38844,45.38844,0,0,1-.10674-5.4563,42.9856,42.9856,0,0,1,.60749-5.63563c.32112-1.84114.85833-3.609,1.2817-5.42317a.07514.07514,0,0,0-.14479-.03992,30.46032,30.46032,0,0,0-1.304,5.53693,47.80324,47.80324,0,0,0-.58785,5.44573,35.23021,35.23021,0,0,0,.89529,11.09851c.00684.02445.04937.02078.046-.00624Z" style="fill:#428a66"/><path d="M49.35136,100.21746c-.15612-.93732-.31977-1.87252-.43122-2.81655-.05417-.45884-.095-.91881-.127-1.37969a11.12614,11.12614,0,0,0-.11123-1.29476c-.01135-.06-.11427-.06235-.1236,0a6.59844,6.59844,0,0,0,.00011,1.4011q.04568.6911.12954,1.37918a17.44339,17.44339,0,0,0,.53273,2.74675.06781.06781,0,0,0,.13066-.036Z" style="fill:#428a66"/><path d="M48.8615,103.90333a28.99227,28.99227,0,0,1,1.4615-2.80272c.26462-.44734.54533-.885.83413-1.31705a13.84582,13.84582,0,0,0,.90708-1.32265.06255.06255,0,0,0-.09779-.07545,6.46,6.46,0,0,0-.935,1.212c-.31276.45524-.60354.92477-.87868,1.40362a20.597,20.597,0,0,0-1.35816,2.874c-.01478.03838.04982.066.06693.02822Z" style="fill:#428a66"/><path d="M48.5414,107.54269a17.7544,17.7544,0,0,0-.7595-3.07983c-.1607-.46571-.33179-.92964-.52774-1.38181a7.40612,7.40612,0,0,0-.72684-1.43486c-.02872-.03916-.09975-.01809-.08367.03528.15182.504.41682.99351.616,1.48157.18983.46508.37593.931.54283,1.40494.345.97954.6499,1.97724.91418,2.98153.0043.01632.02719.00909.02472-.00682Z" style="fill:#428a66"/><path d="M48.864,111.46225c.3238-1.03886.65282-2.07808,1.02089-3.10224.18417-.51244.382-1.01936.58122-1.52608.1976-.50263.43295-.99916.58555-1.51765a.04967.04967,0,0,0-.09037-.0381,15.432,15.432,0,0,0-1.222,2.98138,28.85857,28.85857,0,0,0-.91063,3.193.01833.01833,0,0,0,.03532.00973Z" style="fill:#428a66"/><path d="M44.90277,117.72576c-.97286-1.27593-2.15942-2.363-3.09-3.67631a20.4519,20.4519,0,0,1-2.19315-4.03555,45.88469,45.88469,0,0,1-2.30494-8.62758c-.01219-.06111-.11855-.04822-.11031.01493a34.69913,34.69913,0,0,0,2.246,8.87158,19.75739,19.75739,0,0,0,2.08712,3.818,30.74945,30.74945,0,0,0,3.31345,3.67488c.02539.02582.075-.00948.05177-.04Z" style="fill:#9ac9c7"/><path d="M38.59488,98.273c.00486.43646.10376.8625.12573,1.29718a3.97318,3.97318,0,0,1-.10624,1.11025,4.42475,4.42475,0,0,1-.41,1.07888c-.18868.35148-.4577.6397-.6622.97742-.03248.05365.03668.1344.09187.09186a2.95137,2.95137,0,0,0,.69271-.91332,4.6338,4.6338,0,0,0,.44543-1.11834,4.03208,4.03208,0,0,0,.12093-1.12418c-.017-.473-.15253-.92893-.18588-1.39975a.05619.05619,0,0,0-.11231,0Z" style="fill:#9ac9c7"/><path d="M34.58609,103.35127a3.81741,3.81741,0,0,0,1.16339,1.10711,3.406,3.406,0,0,0,1.58756.55875.038.038,0,0,0,.01006-.07433c-.25782-.083-.52221-.14519-.777-.23745a4.2136,4.2136,0,0,1-.73624-.3505,3.8599,3.8599,0,0,1-1.15708-1.05657c-.0387-.05426-.129-.00348-.09065.053Z" style="fill:#9ac9c7"/><path d="M41.717,101.45647a5.872,5.872,0,0,1-1.0086,2.9839,6.8984,6.8984,0,0,1-1.05957,1.24429,13.81576,13.81576,0,0,1-1.40813,1.05865c-.04926.0353-.02125.134.04515.1071a6.05248,6.05248,0,0,0,2.55778-2.2848,5.84428,5.84428,0,0,0,1.01253-3.10914.06962.06962,0,0,0-.13916,0Z" style="fill:#9ac9c7"/><path d="M37.114,109.088a6.33977,6.33977,0,0,0,1.05326,1.43851,2.19614,2.19614,0,0,0,1.41411.68356.0405.0405,0,0,0,.01071-.07913,6.491,6.491,0,0,1-.74229-.30786,3.09448,3.09448,0,0,1-.60835-.45028,7.07285,7.07285,0,0,1-1.03258-1.34025c-.03836-.05887-.13123-.00585-.09486.05545Z" style="fill:#9ac9c7"/><path d="M43.17957,107.71706a3.45938,3.45938,0,0,1-.54137,2.67795,3.38023,3.38023,0,0,1-.945,1.06992c-.37133.242-.8403.26345-1.15909.58742a.02214.02214,0,0,0,.02138.03672,3.75208,3.75208,0,0,0,1.37993-.55365A3.9925,3.9925,0,0,0,42.844,110.43a3.33157,3.33157,0,0,0,.48393-2.75382.077.077,0,0,0-.14832.04089Z" style="fill:#9ac9c7"/><path d="M40.70963,114.74984q.25415.28944.50829.57885a4.592,4.592,0,0,0,.46643.48437,1.73746,1.73746,0,0,0,.51672.31251,1.34389,1.34389,0,0,0,.31977.07564.70485.70485,0,0,0,.32265-.05858.02208.02208,0,0,0-.00584-.04317,3.02563,3.02563,0,0,1-.31681-.03659,1.241,1.241,0,0,1-.30123-.07236,1.70664,1.70664,0,0,1-.54138-.3475c-.32414-.29422-.62187-.62106-.92889-.93288-.02561-.026-.06337.01277-.03971.03971Z" style="fill:#9ac9c7"/><path d="M34.80992,103.73505a.46539.46539,0,0,0,0-.93023.46539.46539,0,0,0,0,.93023Z" style="fill:#f5bf6b"/><path d="M38.53062,98.78991a.46539.46539,0,0,0,0-.93023.46539.46539,0,0,0,0,.93023Z" style="fill:#f5bf6b"/><path d="M41.93859,101.91621a.46539.46539,0,0,0,0-.93022.46539.46539,0,0,0,0,.93022Z" style="fill:#f5bf6b"/><path d="M37.28662,109.33939a.46539.46539,0,0,0,0-.93023.46539.46539,0,0,0,0,.93023Z" style="fill:#f5bf6b"/><path d="M42.96,108.32931a.46539.46539,0,0,0,0-.93023.46539.46539,0,0,0,0,.93023Z" style="fill:#f5bf6b"/><path d="M40.96034,114.75238a.46539.46539,0,0,0,0-.93023.46539.46539,0,0,0,0,.93023Z" style="fill:#f5bf6b"/><path d="M62.09216,118.42852a.31263.31263,0,0,1-.3125-.3125V93.14849a.3125.3125,0,0,1,.625,0V118.116A.31263.31263,0,0,1,62.09216,118.42852Z" style="fill:#d7d9d9"/><path d="M49.14246,120.52959a.30806.30806,0,0,1-.05957-.00561.31252.31252,0,0,1-.24756-.36621l5.72021-29.64551a.31233.31233,0,1,1,.61328.11865l-5.72021,29.64551A.31233.31233,0,0,1,49.14246,120.52959Z" style="fill:#d7d9d9"/><path d="M76.66931,120.52959a.31233.31233,0,0,1-.30615-.25317L70.64343,90.63067a.3123.3123,0,1,1,.61328-.11841L76.97644,120.158a.31218.31218,0,0,1-.30713.37158Z" style="fill:#d7d9d9"/><path d="M123.5448,123.64727a.31263.31263,0,0,1-.3125-.3125V77.7188a.3125.3125,0,0,1,.625,0v45.616A.31263.31263,0,0,1,123.5448,123.64727Z" style="fill:#a6adaf"/><path d="M103.31349,115.55715a52.60106,52.60106,0,0,1,.635,5.42583c0,1.55481-.81642,3.74735,1.17939,4.15019,1.99562.40266,15.91913.36316,15.92009-1.38723.001-2.05832-3.40183-3.19878-6.25932-3.46722-2.8573-.26843-4.4449-1.67867-5.26132-5.1689Z" style="fill:#6f7271"/><path d="M75.90516,118.5036s-.39958,4.13083-.74912,5.50771c-.34954,1.37707-1.39817,4.45218,5.09335,4.13082,3.74524-.04582,3.79509-3.02909,3.4954-5.04868-.29949-2.01958-.94872-4.58985-.94872-4.58985Z" style="fill:#6f7271"/><path d="M62.16073,50.87878s-9.67515-1.9475-14.31907,2.09724-5.992,35.3538,5.99223,39.92294c11.98445,4.569,21.422,2.02228,21.422,2.02228l.44944-9.43759s-8.9707-19.32481-9.0543-19.924C66.56728,64.96028,62.16073,50.87878,62.16073,50.87878Z" style="fill:#f2a9ac"/><polygon points="71.355 51.717 62.774 53.909 59.378 62.033 59.378 68.073 68.764 73.204 73.119 69.035 75.258 60.056 71.355 51.717" style="fill:#daeef5"/><path d="M112.52253,116.81189s-3.44517,3.17347-10.11807,1.42826c0,0-2.4928-9.34842-3.98952-13.55844-1.49671-4.20445-4.39773-12.7959-4.44681-14.71827-.0163-.81087-2.69413-1.29942-6.368-1.82037-5.051-.71941-11.996-1.48195-16.49167-3.19495-7.75584-2.95316-3.03695-8.98873-3.03695-8.98873l11.47884-.01073L90.523,75.94329s10.68409,2.24986,12.24618,5.74009C104.33661,85.1738,112.52253,116.81189,112.52253,116.81189Z" style="fill:#969696"/><path d="M90.02041,88.39271c-.06576.39556-.16777,1.01871-.30563,1.82766-5.56062-.803-13.20679-1.65394-18.15634-3.56539-8.53872-3.29561-3.34336-10.03083-3.34336-10.03083l12.63733-.01208C86.08957,79.91382,90.57166,84.99529,90.02041,88.39271Z" style="fill:#969696;opacity:0.30000000000000004;mix-blend-mode:multiply"/><path d="M55.40691,68.40583S52.86024,85.2735,58.77749,87.68309s14.531,2.96045,14.98038,3.85549c.44944.89484-.29968,9.11067-.29968,12.50713s.4433,15.37594.4433,15.37594,7.39652,1.78988,10.99182,0c0,0,2.64658-30.29285,2.94626-34.35484.2995-4.062-7.93972-9.94858-14.98057-11.7212L61.02448,71.091Z" style="fill:#969696"/><path d="M74.5906,47.11417a6.89125,6.89125,0,0,1-3.16389.7568,5.71844,5.71844,0,0,1-1.04862-.10891l.20976-3.92548.17391-3.29043.7729.61567,2.51082,1.98853a8.312,8.312,0,0,0-.102,3.04654,1.36343,1.36343,0,0,0,.41952.76332A1.8931,1.8931,0,0,0,74.5906,47.11417Z" style="fill:#f7dac6"/><path d="M84.34417,66.14887c-.64923-1.55-3.895-13.30918-4.79386-15.60755-.83867-2.1448-3.78148-2.70717-4.96221-3.42427a6.561,6.561,0,0,1-4.2102.64213L68.76441,78.06833l20.37343-.96214,7.24045-7.00193S84.99321,67.69889,84.34417,66.14887Z" style="fill:#daeef5"/><g style="opacity:0.30000000000000004;mix-blend-mode:multiply"><path d="M73.81,95.21268c.57387-2.38869,1.52509-6.68613.80684-8.88212a9.053,9.053,0,0,0-3.83843-5.14244,9.398,9.398,0,0,0-3.45571-1.00261,60.85064,60.85064,0,0,1-6.72563-.82812c-4.83911-1.18514-10.11462-2.12427-12.39152-7.39365,0,0,.29413,12.96751,7.78863,17.57193C63.48852,94.1399,73.81,95.21268,73.81,95.21268Z" style="fill:#969696"/></g><path d="M73.81,95.21268a25.563,25.563,0,0,0-1.06281-8.88212,9.05223,9.05223,0,0,0-3.83843-5.14244,9.39794,9.39794,0,0,0-3.45571-1.00261,60.86214,60.86214,0,0,1-6.72563-.82812c-4.83911-1.18514-9.16378-5.10773-11.44068-10.3773,0,0-.65652,15.95116,6.83779,20.55558C61.61888,94.1399,73.81,95.21268,73.81,95.21268Z" style="fill:#f2a9ac"/><path d="M71.55844,39.8534l-.02378,1.30842-.05407,3.579L71.42671,47.871v.01284a5.08508,5.08508,0,0,1-4.2963-2.36031,2.96785,2.96785,0,0,0,.4853-.16681c.827-.404,1.11458-3.00167,1.21639-4.66942.05388-.82735.05388-1.42385.05388-1.42385Z" style="fill:#f7dac6"/><path d="M73.94348,46.19689a7.75919,7.75919,0,0,1-2.46289-1.45606,8.05964,8.05964,0,0,1-.89274-.90425,9.52817,9.52817,0,0,1-1.75575-3.14931c.05388-.82735.05388-1.42385.05388-1.42385l2.67246.59-.02378,1.30842,2.51082,1.98853A8.312,8.312,0,0,0,73.94348,46.19689Z" style="fill:#f7dac6;opacity:0.30000000000000004;mix-blend-mode:multiply"/><path d="M74.11125,30.73007s5.11905,1.022,4.88379,7.03337c-.23546,6.01121-1.65682,7.03989-3.11308,7.31044S68.31555,43.865,68.27145,35.434C68.97744,32.09774,70.77211,30.85029,74.11125,30.73007Z" style="fill:#f7dac6"/><path d="M64.42175,123.64727a.31263.31263,0,0,1-.3125-.3125V77.7188a.3125.3125,0,0,1,.625,0v45.616A.31263.31263,0,0,1,64.42175,123.64727Z" style="fill:#a6adaf"/><g style="opacity:0.5;mix-blend-mode:multiply"><path d="M79.10222,72.38672c.08034-6.47714.1277-13.14352-2.23626-19.17429,0,0,3.34547,6.13738,2.99593,19.57522Z" style="fill:#daeef5"/></g><g style="opacity:0.5;mix-blend-mode:multiply"><path d="M71.31109,71.28a78.502,78.502,0,0,1-10.76672-4.4029.57721.57721,0,0,1-.34992-.87682c1.04382-3.02335,2.06023-6.55556,3.10387-9.57871,0,0-2.09724,8.8384-1.9475,9.51256C61.50076,66.60828,71.31109,71.28,71.31109,71.28Z" style="fill:#daeef5"/></g><path d="M71.31109,71.28s-.3482,1.93446-.53955,2.6299c0,0,.77846-1.78394.96579-2.483Z" style="fill:#daeef5;opacity:0.5;mix-blend-mode:multiply"/><path d="M70.2,72.78765a9.55618,9.55618,0,0,0,3.25822-.18733c1.01123-.41186,3.10847-1.83495,4.04473-1.64781a24.13686,24.13686,0,0,1,5.61776,4.00735c-.03738.29949-2.734.74893-3.895.48682a5.54344,5.54344,0,0,0-2.56528-.24964c-.33094.19979-1.27967,1.34812-2.478,1.42309a25.48758,25.48758,0,0,1-4.71889-.87376Z" style="fill:#f7dac6"/><path d="M67.12754,45.52446c-1.79468.4968-6.388.90137-7.97558,3.36C57.3918,51.61045,51.18731,68.23327,53.13481,71.387c1.94749,3.15353,13.63226,4.91734,16.62818,5.13113A16.292,16.292,0,0,0,71.31109,71.28S61.374,68.44725,59.97586,66.89723c-.94872-.96215,3.64515-9.78157,3.64515-9.78157l7.69008-2.619.11275-6.61423A5.08429,5.08429,0,0,1,67.12754,45.52446Z" style="fill:#daeef5"/><path d="M73.11862,75.10577H88.82089a.56141.56141,0,0,1,.56141.56141v.37753a.5616.5616,0,0,1-.5616.5616H73.11862a0,0,0,0,1,0,0V75.10577A0,0,0,0,1,73.11862,75.10577Z" transform="translate(162.50092 151.71209) rotate(-180)" style="fill:#8b8a87"/><path d="M118.98413,57.29743l-.79131-.6569a1.00251,1.00251,0,0,0-.63714-.219H91.96657a.95111.95111,0,0,0-.96522.66514l-4.37759,19.5198h1.12953Z" style="fill:#8b8a87"/><path d="M88.67977,76.60651H114.317a.74718.74718,0,0,0,.7589-.52421l4.0549-18.28213c.08705-.39306-.27706-.75526-.75909-.75526H93.55225a1.69784,1.69784,0,0,0-1.7245,1.1907L87.92087,75.85106C87.83363,76.24413,88.19774,76.60651,88.67977,76.60651Z" style="fill:#9b9995"/><rect x="60.5484" y="76.26503" width="66.71637" height="2.38523" rx="0.89255" style="fill:#546c7e"/><path d="M69.21558,39.26342l.60033.20535a13.53951,13.53951,0,0,1-.12578-3.07109c.1996-.67415,2.07212-1.37323,2.14709-2.19713.04986-.24965,6.429-.79975,6.75555.56927,0,0-.72363-3.98856-4.18394-4.26447-3.44536-.27457-7.48147,1.50669-6.74116,7.44024Z" style="fill:#2e3e71"/><path d="M69.10974,37.70477s-1.01488-1.47006-1.76515-.43084c-.75009,1.03923,1.41216,4.2986,2.47132,3.30654Z" style="fill:#f7dac6"/><path d="M112.28439,94.41265a.01564.01564,0,0,0,0-.03126.01564.01564,0,0,0,0,.03126Z" style="fill:#f0979f"/><path d="M45.5804,65.94541A19.47312,19.47312,0,0,0,48.99309,72.541a21.0802,21.0802,0,0,0,5.83871,5.31668c.06726.03942.12317-.0602.06038-.1033-4.178-2.868-7.76326-6.88786-9.20348-11.83883a.0562.0562,0,0,0-.1083.02986Z" style="fill:#f0979f"/></g></g></svg>