<svg xmlns="http://www.w3.org/2000/svg" viewBox="0 0 160 160"><g style="isolation:isolate"><g id="b601bfb7-041e-4e9c-9587-6a1d6e7ed573" data-name="レイヤー 1"><circle cx="80" cy="80" r="80" style="fill:#eff6f9"/><path d="M59.9049,61.298s-.47429-1.33016-.88362-1.14944c-.93156.54367-4.40587,7.72035-5.02352,13.9424.68465,1.59158,2.69166,2.58349,3.28419,2.183.891-1.15378,2.50467-6.33027,2.50467-6.33027Z" style="fill:#ffd8d0"/><path d="M49.84517,63.18685s5.55531,6.32944,6.7463,8.27748c1.191,2.02339,1.62808,2.82995.69048,4.80959-2.21407,2.07753-6.67122-5.38184-9.2269-11.282A19.91023,19.91023,0,0,1,49.84517,63.18685Z" style="fill:#ffd8d0"/><path d="M49.996,64.28863l-.15082-1.10178a12.45368,12.45368,0,0,0-1.03605-2.81836c-.82943-1.71069-2.16163-3.67126-2.237-2.84177a7.07094,7.07094,0,0,0,.74176,2.50241s-2.12343,1.3936-1.67139,2.5498c.452,1.15625,2.84705,2.71464,2.84705,2.71464Z" style="fill:#ffd8d0"/><path d="M60.32055,60.31017a4.63728,4.63728,0,0,0-1.42-.32067c-.939.27483-3.52692,6.77912-4.03078,8.8632-2.45053-3.36664-2.90862-3.55913-2.90862-3.55913L49.0984,68.34888c2.7025,5.01561,6.41267,9.50684,8.0845,8.28034,1.67189-1.24937,3.13765-6.88333,3.13765-6.88333Z" style="fill:#ffbc6c"/><path d="M61.08419,61.88268c-2.42349,3.98682-4.225,8.45452-2.83809,13.386a28.58711,28.58711,0,0,0,2.07445-5.52277Z" style="fill:#ffbc6c;opacity:0.28;mix-blend-mode:multiply"/><rect x="21.13469" y="111.25976" width="115.42762" height="1.09931" style="fill:#ddf2f9"/><path d="M105.13131,76.68067s-1.23672,5.99822-6.66457,5.1064c-2.42117-.56735-1.61247-1.22182-1.61247-1.22182s-10.34253-1.1694-11.167-8.08049c-.54966-5.33088,5.32017-6.32543,5.32017-6.32543s-7.06192-.67118-5.504-5.67838c-5.03792-4.5263-.41972-12.71529,4.00446-11.47213-3.61453-8.16969,2.75784-11.42706,6.62357-9.13511-.96267-3.56924,3.18651-2.40122,3.18651-2.40122s-4.3553-8.28743,3.33987-10.49908c7.69518-2.2117,13.20108,1.33225,12.5399,8.58776,4.91166-.837,7.86606.05623,5.80485,6.99563,2.47345.75577.6647,3.89425.6647,3.89425s13.92123,9.5407-1.7014,16.5117c5.80034,6.321,7.40253,11.05445-.85,12.40287C119.73022,81.97566,109.68883,84.53563,105.13131,76.68067Z" style="fill:#aed6c3"/><path d="M101.56619,102.06485s1.97711-31.96812,1.981-34.848c-3.42155-7.7337-9.89-21.40187-9.89-21.40187l1.4158-.8534,9.322,15.8353,1.1899-11.43806L107.02817,32.013l1.46192.048-1.19522,17.62371v8.74886l5.3255-6.95193.15374-6.58789,1.34984-.41318-.26686,6.02461,4.67207-6.874,1.23673,1.193L107.74218,62.50077l.4887,5.403,1.98969,34.48768Z" style="fill:#d4ebde"/><path d="M75.12733,112.35907H23.14093a3.86587,3.86587,0,0,1,.17589-3.57831,2.30033,2.30033,0,0,1,2.76477-.9619s-1.03335-1.3521.9454-1.3411c.91243-8.11291,7.33241-10.361,12.90042-5.51854-.06047-3.05609,1.68744-1.16527,1.81386-1.02236-.03848-.20887-.885-4.815,4.28731-1.73141.84647-5.08987,4.63909-6.43647,7.43134-5.09531,2.79775,1.3466,4.44671,6.11217,4.44671,6.11217s2.20962-4.27082,6.19462-2.7153a5.26346,5.26346,0,0,1,3.57276,5.29868s2.96264.49469,2.99012,2.06121C73.36844,100.58,77.52383,104.04828,75.12733,112.35907Z" style="fill:#aed6c3"/><path d="M90.88156,112.35907s-2.85129-2.70342-2.43223-4.09141,3.60464-1.4644,3.60464-1.4644-.97564-1.85816.62754-1.66259c-.36645-5.80491,4.97262-5.68377,8.00578-2.767.07872-8.55731,11.43586-10.7212,17.3-3.009,1.467-5.41086,3.33273-2.3003,3.6656.44616,1.85509-2.28426,1.83348.40658,1.83348.40658s7.44195-4.73655,4.07532,6.077c2.55-1.4,6.25232-1.91582,2.61086,6.02912Z" style="fill:#aed6c3"/><rect x="31.72534" y="91.44974" width="3.56298" height="20.90933" style="fill:#c08e7b"/><rect x="79.15416" y="91.44974" width="3.56303" height="20.90933" style="fill:#c08e7b"/><rect x="26.99836" y="87.50074" width="60.44582" height="5.57087" style="fill:#d09e8d"/><path d="M60.12944,75.9233s-.78359.51118-.637.54262c.14654.03144-1.58834,4.82394-2.45855,7.83209a124.20207,124.20207,0,0,0-2.73355,14.75418,15.867,15.867,0,0,0,6.52018.86856l2.67479-12.95669,1.77758-10.49814Z" style="fill:#ffd8d0"/><path d="M54.80157,98.537s-.2618-.40691-.50123.51519c-.49864,2.17762-2.76652,24.87322-2.76652,24.87322l3.83412.47556s4.28478-14.809,4.7615-16.72584c.48463-1.96337.88522-9.85016.88522-9.85016Z" style="fill:#ffd8d0"/><path d="M69.79688,75.44427l.568,1.08634s1.08068,5.42131,1.13839,7.31877c.05145,1.94457-1.85519,16.232-1.85519,16.232s-5.47721,1.42877-5.95854,0c-.32358-3.94251-.64282-18.97674-.64282-18.97674V76.38506Z" style="fill:#ffd8d0"/><path d="M64.94859,98.2907s-1.13569-.39806-1.25909,1.79072c-.09877,2.21264,5.4041,24.52743,5.4041,24.52743l3.95917-.38135s-.8302-15.13305-.97938-17.33552c-.215-2.46559-2.95516-8.60128-2.95516-8.60128Z" style="fill:#ffd8d0"/><path d="M72.82675,123.56341l.28252.57868a16.80326,16.80326,0,0,1,.91314,3.39879c-3.52427,1.40745-10.46406,1.14394-10.92516.75088-.02309-1.96743,1.45246-3.61689,2.9511-2.69677a16.36213,16.36213,0,0,0,3.51526-1.45428Z" style="fill:#ffd8d0"/><path d="M74.02253,127.54033c-3.52329,1.40712-10.46544,1.14328-10.92715.753-.022-1.96777,1.45658-3.61673,2.95165-2.69881a15.56219,15.56219,0,0,0,2.58338-.97289c1.06633.57164,3.177,1.40162,4.67756.07146A13.83929,13.83929,0,0,1,74.02253,127.54033Z" style="fill:#d16464"/><path d="M55.47061,124.11576s.1588,2.95528.10339,3.54423c-4.77089.63837-10.90279-1.21935-10.90279-1.21935A2.5999,2.5999,0,0,1,48.6788,124.401c.94255-.17,3.39412-.88879,3.39412-.88879Z" style="fill:#ffd8d0"/><path d="M55.58577,127.98649c-4.771.63754-10.91484-1.54547-10.91484-1.54547a2.599,2.599,0,0,1,4.007-2.03922c.56614-.10444,1.67095-.40125,2.468-.62661.69806.91793,2.03373,1.84135,4.34228.72555C55.53212,125.31972,55.62974,127.53022,55.58577,127.98649Z" style="fill:#d16464"/><path d="M59.267,76.08984s-2.49637,7.48889-3.504,11.97782-2.97732,19.55866-2.97732,19.55866,16.441,4.1682,20.26711.41224a25.91765,25.91765,0,0,0-2.76972-8.428S72.14523,86.144,71.78669,82.846a59.3171,59.3171,0,0,0-1.75026-8.06647Z" style="fill:#d16464"/><path d="M68.9547,78.632a4.38555,4.38555,0,0,0,1.98365-.38234c-.45335-1.93221-.90192-3.47014-.90192-3.47014L59.267,76.08984s-1.14565,3.43755-2.19807,7.0506A12.94108,12.94108,0,0,1,68.9547,78.632Z" style="fill:#d16464;opacity:0.22;mix-blend-mode:multiply"/><path d="M66.94549,47.79738l-.42763.06271s-6.60207-2.8748-8.53323,9.20118c4.89995,2.71728,11.33021,1.02555,11.33021,1.02555S72.07685,48.17021,66.94549,47.79738Z" style="fill:#6d4a4a"/><path d="M90.11022,49.4387s.02452-.34793.8905-.29159a4.03521,4.03521,0,0,1,5.8059,1.06045c1.93968,2.87871.95629,3.33465,2.51187,4.00067,1.55552.666,2.98331.77633,2.43035,3.33168-.58873,1.87592,3.043,2.33433,1.47748,4.98378-1.85284,2.62262-12.01756,2.53177-13.78266-.66355-.91694-1.40574-.96811-2.74058.27834-3.23615s-.669-3.55808.73571-5.35248C91.86247,51.47705,90.11022,49.4387,90.11022,49.4387Z" style="fill:#9b4e4e"/><path d="M91.57088,57.3461l-.35035,2.71282a13.2213,13.2213,0,0,0-3.76723,1.01994,23.87222,23.87222,0,0,0-.573,8.55468s.65381,7.44063,1.14729,8.81773c7.22874,1.87449,10.61577.6962,10.61577.6962l1.10239-7.39056s.11565-9.07767.08124-10.21919a13.88716,13.88716,0,0,0-4.7145-1.53233l-.84494-4.05948Z" style="fill:#ffd8d0"/><path d="M94.6136,57.60834l-.34606-1.66243L91.57088,57.3461l-.31919,2.4718C92.6465,60.18458,94.05994,59.11077,94.6136,57.60834Z" style="fill:#ffd8d0;opacity:0.27;mix-blend-mode:multiply"/><path d="M99.7464,71.75581l-.4837,3.92454-.29132,2.369L98.845,79.08821s-3.58925,1.23673-10.81722-.6376a11.88278,11.88278,0,0,1-.35177-1.70943c-.19238-1.2642-.38476-2.94615-.53317-4.35327v-.00549c-.1539-1.53354-.26384-2.74828-.26384-2.74828a23.558,23.558,0,0,1,.51668-8.60211,10.51478,10.51478,0,0,1,3.1935-.874c.41774.874,1.7589,2.68782,5.07332-.08245a16.27279,16.27279,0,0,1,4.28181,1.34666C99.97176,62.56557,99.7464,71.75581,99.7464,71.75581Z" style="fill:#f17774"/><path d="M99.2627,75.68035l-.29132,2.369c-3.49031.38476-9.06931-.34078-11.29541-1.30818-.19238-1.2642-.38476-2.94615-.53317-4.35327v-.00549c.62661-1.30818,1.74241-3.8311,1.76439-5.27669A6.10565,6.10565,0,0,0,92.81524,68.205s-2.46245-1.78638-1.84134-3.53429c.6266-1.7424,6.35951,2.94616,6.35951,2.94616S98.65258,72.60778,99.2627,75.68035Z" style="fill:#f17774;opacity:0.25;mix-blend-mode:multiply"/><path d="M93.22352,77.7907l-5.4523-.19766s-2.35269,14.933-2.96693,21.99264a23.16057,23.16057,0,0,0,6.14141,1.0316s2.62328-13.55637,2.57074-13.791C93.46394,86.59167,93.22352,77.7907,93.22352,77.7907Z" style="fill:#ffd8d0"/><path d="M86.66993,98.73438s-1.56569-.42153-1.86564.8513c-.56153,6.94754-.50733,24.88873-.50733,24.88873l4.102.22382s2.54144-16.35434,2.74157-19.19067a32.4484,32.4484,0,0,0-.58219-6.87245Z" style="fill:#ffd8d0"/><path d="M98.28563,78.14957l.57516.46116s.98735,4.012,1.40486,6.73982c.41824,2.7989.28137,13.80074.28137,13.80074s-3.55456,2.09446-5.74472,1.04292c-.93941-6.00795-1.91143-15.29185-1.91143-15.29185l.33265-7.11166Z" style="fill:#ffd8d0"/><path d="M99.95746,98.17763l.58956.97366s1.95128,4.19035,2.7668,5.87362c.81558,1.75439,4.7084,16.89168,4.7084,16.89168l-3.02805,1.132s-8.50784-16.01607-10.19187-22.85439C95.73528,98.33632,99.95746,98.17763,99.95746,98.17763Z" style="fill:#ffd8d0"/><path d="M88.37513,123.61733s.43631,2.50192.50458,3.84237c-5.08855,1.00669-10.61308.20749-10.93017-.03518-.19815-2.14613,1.87454-2.65484,3.24175-2.14085a8.83714,8.83714,0,0,0,3.39055-1.66634Z" style="fill:#ffd8d0"/><path d="M88.9942,127.66582a27.30488,27.30488,0,0,1-11.04713-.24092c-.19788-2.14915,1.87432-2.65483,3.243-2.14365a7.4776,7.4776,0,0,0,2.8692-1.2862,4.06688,4.06688,0,0,0,4.415.21745A21.8709,21.8709,0,0,1,88.9942,127.66582Z" style="fill:#b074a6"/><path d="M107.51138,120.77089h.16989a27.82354,27.82354,0,0,1,2.40815,3.18552,15.3082,15.3082,0,0,1-6.84194,3.734c-3.38456.33034-2.85936.0155-2.85936.0155s-.7222-3.73386,2.66242-3.19487c2.009-1.19968,1.75543-2.14179,1.75543-2.14179Z" style="fill:#ffd8d0"/><path d="M110.09091,123.95658a15.33388,15.33388,0,0,1-6.84321,3.73216c-3.38588.32979-2.85821.01649-2.85821.01649s-.72554-3.73216,2.66034-3.1935a4.33256,4.33256,0,0,0,1.539-1.35765c.3188.18139.82448.20887,1.605-.22536a4.9193,4.9193,0,0,0,1.83585-1.7534A25.22486,25.22486,0,0,1,110.09091,123.95658Z" style="fill:#b074a6"/><path d="M98.6434,62.24468a1.10646,1.10646,0,0,1,1.20633-.69762s1.15724.70307,2.19648,3.91591,2.75058,9.73368,1.58125,10.59241c-3.22736.91034-2.66056.4234-2.66056.4234L98.6434,68.56Z" style="fill:#ffd8d0"/><path d="M88.59141,62.08188s-.824-1.30478-1.13811-1.00521c-1.21881.96261-5.96794,14.32907-5.96794,14.32907a27.7446,27.7446,0,0,0,3.584,2.03208c.86868-1.28642,3.57886-8.79125,3.57886-8.79125Z" style="fill:#ffd8d0"/><path d="M82.50217,74.77957l-.95321.4239a39.26244,39.26244,0,0,0-4.0895,12.50246,3.9101,3.9101,0,0,0,2.6544.81113s4.75155-10.10393,5.19595-11.78291A3.73364,3.73364,0,0,0,82.50217,74.77957Z" style="fill:#ffd8d0"/><path d="M66.54908,56.9863l.19112,2.53517a19.96153,19.96153,0,0,1,4.76408,1.13246,18.12033,18.12033,0,0,1-.57054,7.40341s-.18985,7.45707-.6996,8.54071a28.914,28.914,0,0,1-11.06918-.068s-.13654-8.2096-.14368-10.30114a18.15843,18.15843,0,0,1,0-6.08035,25.645,25.645,0,0,1,4.21206-.85119c.23042-1.83838.51376-3.64818.51376-3.64818Z" style="fill:#ffd8d0"/><path d="M66.61883,57.91131l-.06975-.925-2.802-1.337s-.21749,1.38909-.42631,2.96957A2.568,2.568,0,0,0,66.61883,57.91131Z" style="fill:#ffd8d0;opacity:0.27;mix-blend-mode:multiply"/><path d="M70.93346,68.05663s.382,7.23165.19694,9.16248a36.69727,36.69727,0,0,1-12.66493-.28186s.56246-8.61679.557-10.711a20.806,20.806,0,0,1-.12186-6.23678s2.50187-.51849,3.96395-.66689c.808.808,2.53391,2.08319,4.08394.22535a18.70655,18.70655,0,0,1,4.70412.9912A17.44784,17.44784,0,0,1,70.93346,68.05663Z" style="fill:#ffbc6c"/><path d="M58.85973,70.32638c-.16434,3.08823-.39426,6.61081-.39426,6.61081a36.6956,36.6956,0,0,0,12.66493.28186c.02914-.30374.0442-.739.04892-1.25623C66.12783,76.72992,60.43285,74.85213,58.85973,70.32638Z" style="fill:#ffbc6c;opacity:0.28;mix-blend-mode:multiply"/><path d="M70.544,66.34214s.311-5.70349,1.01912-5.68821c.94343.133,1.985,2.68385,2.92246,6.57272s2.16014,8.266,2.16014,8.266-3.19184,1.27317-3.70368,1.13636c-.99-2.92527-2.90564-8.85269-2.90564-8.85269Z" style="fill:#ffd8d0"/><path d="M75.25166,75.64946s.72286-.88885,1.39409-.15682c.6719,2.50956,1.823,11.89526,1.823,11.89526l-2.43277.67976S73.11614,79.334,72.94207,76.629C73.34315,75.49264,75.25166,75.64946,75.25166,75.64946Z" style="fill:#ffd8d0"/><path d="M77.82372,86.63355l-.36426,1.07238s-2.33532,3.22757-1.75406,3.84313c.58121.61562,1.97657,1.61973,2.634,1.26784.65739-.35189,1.17868-2.87574,1.17868-2.87574s-.44588,2.611.62946,2.611c.602,0,0-4.84625,0-4.84625Z" style="fill:#ffd8d0"/><path d="M76.036,88.06766s-.0835,3.81922.77259,4.04546a2.854,2.854,0,0,0,2.6428-.56406c.47545-.61731-.65563-2.7314-.65563-2.7314s.99746,1.58224,1.68013,1.32027c.68262-.26191-2.16558-3.27984-2.16558-3.27984Z" style="fill:#ffd8d0"/><path d="M72.57325,76.36286s-2.83985-7.76207-2.88569-8.40335c-.06871-.91606.655-7.78675,1.965-7.42035,1.35583.41224,3.02772,4.66349,5.22634,14.90511,1.55844,7.4873,1.58982,9.73781,1.58982,9.73781l-3.422,1.00768S72.52746,78.6741,72.57325,76.36286Z" style="fill:#ffbc6c"/><path d="M88.94842,68.94432s.37788-6.00042-.24048-7.06538-1.314-.847-1.314-.847-2.77406,2.79368-4.76656,10.07661a42.63514,42.63514,0,0,0,4.39724,2.24881Z" style="fill:#f17774"/><path d="M99.94476,72.895s-1.61785-4.36289-1.6522-4.569c-.13742-4.70642-.48095-7.62647,1.649-6.905,2.12992.74434,3.9163,10.52359,3.9163,10.52359Z" style="fill:#f17774"/><path d="M88.76928,69.12725s-1.34,4.81432-1.60724,5.65232c.08948,1.30483.27483,3.01113.27483,3.01113s-3.36664,14.60016-3.50406,22.69884a19.51887,19.51887,0,0,0,7.97.81035L93.28,91.61761s.54658,8.44023,1.09623,9.68228c6.18363-.33814,7.31932-1.33824,7.31932-1.33824l-.86087-2.9849s.08586-10.68393-.26625-12.16113-1.56608-7.02492-1.56608-7.02492l-.359-3.1437-1.31274-5.51975Z" style="fill:#b074a6"/><path d="M84.336,95.14573c-.22476,1.9244-.37635,3.75915-.40323,5.34381a19.51887,19.51887,0,0,0,7.97.81035l.32122-2.258C89.02812,99.16338,85.34207,97.92628,84.336,95.14573Z" style="fill:#b074a6;opacity:0.15;mix-blend-mode:multiply"/><path d="M93.74762,97.30253a21.37728,21.37728,0,0,0,.62864,3.99736c6.18363-.33814,7.31932-1.33824,7.31932-1.33824l-.39987-1.38645A8.7991,8.7991,0,0,1,93.74762,97.30253Z" style="fill:#b074a6;opacity:0.15;mix-blend-mode:multiply"/><path d="M94.41364,66.70112l.15918-.91951a21.39183,21.39183,0,0,0-1.62176-3.34433c-.27428-.072.10279,1.73774.10279,1.73774s-1.05573-1.80974-1.54585-1.52694c-.49013.28274-1.71548,1.6477-1.28191,2.66187s2.5764,2.30608,2.5764,2.30608Z" style="fill:#ffd8d0"/><path d="M89.06275,70.2154l-.29347-1.08815a71.782,71.782,0,0,1-.404-8.50284s.14021-.04595.404-.10828c-.04413,1.51457.93491,9.39009.93491,9.39009l-.54965.30918" style="fill:#b074a6"/><path d="M97.95523,60.63447s-.61028,5.94386-1.05973,8.95114a1.17452,1.17452,0,0,0,.61836.458,74.25272,74.25272,0,0,0,.81475-9.283Z" style="fill:#b074a6"/><path d="M94.3263,65.57433s6.41843,4.86841,7.93949,6.75686,2.11986,2.35483,1.592,3.36933c-.52784,1.01445-2.46356,2.62043-5.37552-.67563-3.12886-3.5416-6.05479-7.825-5.86208-7.89014A21.68942,21.68942,0,0,0,94.3263,65.57433Z" style="fill:#ffd8d0"/><path d="M83.74961,99.12958s6.25233,1.23673,8.49674.80156a24.02363,24.02363,0,0,0,0,2.67957s-5.84009.481-8.72578-.939A24.0954,24.0954,0,0,1,83.74961,99.12958Z" style="fill:#c693c1"/><path d="M93.87239,100.09148a10.00956,10.00956,0,0,0,.68707,2.47345c2.63379.27482,7.30586-1.11251,7.80972-1.65557a9.97084,9.97084,0,0,1-.77517-2.27425A18.58322,18.58322,0,0,1,93.87239,100.09148Z" style="fill:#c693c1"/><path d="M62.08786,51.27505s4.45732-3.80279,7.08863.99669c0,0,.57263,5.45049-3.54022,5.71476-2.927-.08124-3.56831-3.38384-3.56831-3.38384Z" style="fill:#ffd8d0"/><path d="M66.51786,47.86009s2.5952-.99042,2.74509,4.87121a26.14373,26.14373,0,0,1-5.4688.35948,4.6502,4.6502,0,0,0-.45736-2.09809,6.43154,6.43154,0,0,1-.72473,3.305s-1.16708,1.568-2.31707.87049C59.14506,54.47069,61.147,46.03777,66.51786,47.86009Z" style="fill:#6d4a4a"/><path d="M63.05173,53.8847s-.63655-1.47808-1.72261-.41763c-.745.97515.33056,2.97573,1.59839,1.90687C63.02629,54.54786,63.05173,53.8847,63.05173,53.8847Z" style="fill:#ffd8d0"/><path d="M95.9568,51.3747s-4.14457-4.07355-7.03636.85191c0,0-.41378,6.46615,3.289,6.39683,3.05547.005,4.00907-3.55649,4.00907-3.55649Z" style="fill:#ffd8d0"/><path d="M89.53242,50.445a2.545,2.545,0,0,1,1.20238,2.25013c.16093,1.80094,4.18425,2.0379,4.77156,1.3239a1.14433,1.14433,0,0,0,1.45191-.66459s-.48276-5.96173-5.61429-3.56193A6.63629,6.63629,0,0,1,89.53242,50.445Z" style="fill:#9b4e4e"/><path d="M91.89825,49.70694a1.81834,1.81834,0,0,0-2.41381-.16094c-1.30527.98344-2.10436,3.764-.52531,4.45814.17446-1.96491,1.16033-3.40962,2.03181-3.24549C91.70153,50.583,91.89825,49.70694,91.89825,49.70694Z" style="fill:#9b4e4e"/><path d="M94.90085,54.46959a.92694.92694,0,0,1,1.59235-.28219c.681.87807-.26608,2.87706-1.46724,1.75461C94.94026,55.22262,94.90085,54.46959,94.90085,54.46959Z" style="fill:#ffd8d0"/></g></g></svg>