<svg id="b2e1f6b5-0611-4a05-b5a0-185d4940f2da" data-name="レイヤー 1" xmlns="http://www.w3.org/2000/svg" xmlns:xlink="http://www.w3.org/1999/xlink" viewBox="0 0 160 160"><defs><clipPath id="acb4ed45-3cb3-46c6-83a8-a81402a205a3"><circle cx="80" cy="80" r="80" style="fill:none"/></clipPath></defs><circle cx="80" cy="80" r="80" style="fill:#eff6f9"/><g style="clip-path:url(#acb4ed45-3cb3-46c6-83a8-a81402a205a3)"><path d="M75.43143,118.57947s3.36984,28.87537,2.41447,35.38832c-1.10681,7.5459-14.93195,45.39059-14.93195,45.39059s4.392,11.63753,6.47727,12.84524c3.86737,2.23973,3.721,4.6111,3.721,4.6111s-5.37477.92221-7.71768,0c-2.34281-.9222-8.40674-10.80322-8.40674-10.80322l-.68906-5.00633,2.14738-3.76573s1.95778-29.67887,7.19474-39.55989l-6.38465-34.79641" style="fill:#ffc7c0"/><path d="M67.15516,122.68206s-4.01871,28.50132-5.46574,35.61564c-1.44712,7.11432-3.32337,42.24636-3.32337,42.24636s4.5479,11.36309,5.99493,12.05479,4.5479,3.55716,4.23787,5.03932c-.31012,1.48215-8.16562.5562-9.40593-.41351-1.24031-.9698-5.46887-8.0755-5.46887-8.0755l.30082,6.80923h-.827s-2.06718-6.81785-2.06718-7.90478,2.06718-6.225,2.06718-6.225-6.94069-30.97446-2.80623-46.784c.41354-11.26424-4.86371-29.78783-3.77474-37.59516" style="fill:#ffd0c7"/><path d="M98.35757,103.51l18.01937-.02237c5.0143,10.152,1.46007,44.10643,3.76688,54.53309,2.26811,10.25171.99589,40.64431-.61139,48.2153-3.22338,1.38766-8.86955-.00068-8.86955-.00068s-1.47605-29.47391-4.39048-43.43294c-2.7876-13.35156-7.74806-32.80879-7.74806-32.80879s-.10684.936-.28244,2.48579C97.849,122.85087,98.87514,112.91472,98.35757,103.51Z" style="fill:#a2847f"/><path d="M82.72386,117.33376c.71182-9.089,1.21409-13.3726,1.21409-13.3726l15.692-.01946c.51758,9.4047.59574,16.95582.98863,26.58436-.7435,6.56139-1.96636,26.56079-2.39084,31.61224-.52484,6.24463.67794,15.24162-4.44526,43.43362-1.74922,2.86209-9.5329.03668-9.5329.03668s.34728-33.80221-.36689-44.93137C83.08578,148.25814,81.88658,128.02406,82.72386,117.33376Z" style="fill:#a2847f"/><path d="M74.94514,41.98326A5.60554,5.60554,0,0,0,71.53525,38.373a11.541,11.541,0,0,0-5.13627-.64338,5.51,5.51,0,0,0-4.41253,1.89348c-1.00309,1.17073-1.07872,2.39963-1.72278,3.79084-1.441,3.11251-5.4881,3.44754-7.00809,6.52425a3.88578,3.88578,0,0,0,.49521,4.12725c.58264.69919,1.43884,1.2414,1.687,2.1091.24084.84223-.16733,1.78473.15645,2.60008a3.03065,3.03065,0,0,0,2.4729,1.45794c2.65981.45806,5.44011.3015,8.00495,1.1252,1.36825.43941,2.629,1.14475,3.96641,1.66638a7.11719,7.11719,0,0,0,4.21791.51583,3.33013,3.33013,0,0,0,2.666-2.92884c.00749-.91147-.48728-1.80015-.3373-2.7a5.535,5.535,0,0,1,1.12743-2.02351c1.819-2.6992,1.02086-7.62094.62833-10.82481-.53248-.01742-.58626,1.25432-1.05313,1.00479" style="fill:#824134"/><path d="M47.71565,108.3893c-3.45024,4.24182-10.17821,40.29734-11.21328,52.55151,18.97632,9.74049,49.76971.62841,49.76971.62841s-1.89763-31.61731-7.71991-53.121" style="fill:#c693c1"/><path d="M80.9015,62.14371c-5.13618,4.05442,2.02038,34.42417,1.86981,46.59061-.0476,3.84657,24.3242,9.05688,35.19245-.77631,2.58768-2.97583-.85318-41.44532-4.65782-47.87208C110.11447,54.69493,89.44085,54.63944,80.9015,62.14371Z" style="fill:#7c83ba"/><path d="M87.90355,39.96672c-1.03508-1.50948-.40972-4.39905.12938-5.24005,1.31084-2.04492,10.45854-3.51493,14.0166,1.35853,4.39906,6.728-.99194,15.72016-2.4583,15.03011" style="fill:#914a31"/><path d="M48.21162,63.19115c-5.82228,3.364-10.933,24.19481-8.47465,31.5697,1.29384,5.69289,6.98674,3.10521,8.66873,0s4.65782-19.4076,4.65782-19.4076" style="fill:#d16464"/><path d="M47.66174,63.51461c3.364-2.71706,22.13545-4.29124,32.14114,2.60924C83.77066,68.62528,92.29161,89.8126,89.938,95.66653c-2.523,6.27513-8.95984,1.27228-8.95984,1.27228s-.87334,10.286-2.0378,11.968-15.80641,6.81423-31.91472,1.12133c-1.74668-.88412-2.372-26.35121-2.372-26.35121" style="fill:#d16464"/><path d="M90.25438,57.59A6.11082,6.11082,0,0,0,96.037,63.85508c3.39577.03533,5.71337-2.938,7.82391-7.35955a8.15681,8.15681,0,0,1-2.35818-.44806c-1.28523-.89612-.92628-9.93762-.92628-9.93762l-9.975,2.79443s1.06114,6.79147.44806,8.07671A1.07229,1.07229,0,0,1,90.25438,57.59Z" style="fill:#ffc3b3"/><path d="M92.3143,51.92833l-1.36992,1.016s.80567,3.60827,3.48812,3.50027,3.48811-4.24625,3.48811-4.24625Z" style="fill:#fcad9d"/><path d="M97.65047,38.867c-4.98128-2.71707-8.79811-1.74669-10.13272.33186a13.66326,13.66326,0,0,0-.68625,4.26727c-.44363,6.296,2.66177,11.41594,6.477,11.41594s7.595-4.44111,7.67011-8.09738c1.52818-.02521,2.83088-3.58062,1.57828-4.69011s-2.17953.98341-2.17953.98341S99.59123,40.03141,97.65047,38.867Z" style="fill:#ffc3b3"/><path d="M122.57846,79.7523a49.60463,49.60463,0,0,1-10.99764,4.65783l1.89763,5.95166L94.24336,92.43193a40.82843,40.82843,0,0,1,.94882,6.08105c4.0109,1.50948,24.75547,4.87345,28.89576.90569C126.33529,97.265,125.3954,89.46084,122.57846,79.7523Z" style="fill:#ffc3b3"/><path d="M112.52963,59.19642,108.26,73.80064l3.22841,11.04306a55.18324,55.18324,0,0,0,11.42149-5.22552C120.46519,71.1267,116.15239,62.2046,112.52963,59.19642Z" style="fill:#7c83ba"/><path d="M73.40051,41.74383c.79483-.5112,1.61078-.07016,2.55043.03056,1.512.16205,2.4384,1.78919,2.65656,3.29409a6.61579,6.61579,0,0,1-1.22531,5.00275,5.092,5.092,0,0,1-4.66113,1.9414c-.49579-.07872-1.06995-.354-1.092-.85547-2.19891,2.70861-4.1717,4.52158-7.5647,5.33358a1.2376,1.2376,0,0,1-.52737.045c-.26585-.05349-.4275-.306-.63759-.47744-2.71585-2.21652-3.14722-5.19051-3.02678-8.05717a9.01425,9.01425,0,0,1,1.3358-4.67138c1.08295-1.90734,4.34881-5.08091,8.54468-4.95031,1.70841.05318,5.0502.8626,5.73888,4.15815" style="fill:#824134"/><path d="M63.673,51.11531s-1.337,9.01375-2.67034,9.65811a5.86444,5.86444,0,0,1-2.00992.45169s5.53915,7.27343,13.0417,1.46468c-1.66582-.56606-2.24424-1.00057-2.37438-1.63823a17.56384,17.56384,0,0,1,.79486-3.656Z" style="fill:#ffd0c7"/><path d="M70.19978,58.27441l-4.86009-3.74233s.88964,4.26585,4.4665,5.17729C70.06189,58.78083,70.19978,58.27441,70.19978,58.27441Z" style="fill:#ffb9b0"/><path d="M72.03439,43.36112c1.68951.199,3.78136,1.84471,3.4187,5.45668s-1.81656,10.21877-6.29166,9.37941a7.584,7.584,0,0,1-5.63171-6.01446c-1.87558-1.50045-1.72229-4.6127-.45846-4.69486s1.76616,1.53032,1.76616,1.53032S67.78667,42.86079,72.03439,43.36112Z" style="fill:#ffd0c7"/><path d="M79.11284,79.83856c.2901-1.01536,1.78152-2.159,3.88152-2.93271,1.63886-.60379,2.9327-2.027,4.83033-2.07014,4.44188-.101,8.6256,4.65782,7.418,9.05688s-5.93412,7.887-12.9384,5.00285C76.4389,86.48027,79.11284,79.83856,79.11284,79.83856Z" style="fill:#ffddd9"/><path d="M82.82184,76.97055s-2.79793.56605-2.80332.79786a3.28348,3.28348,0,0,0,.47441,1.16446" style="fill:#ffddd9"/><path d="M85.6738,82.68687A2.26409,2.26409,0,0,1,84.717,82.492c-.53362-.2489-.81288-.55609-.82927-.91184a1.05273,1.05273,0,0,1,.54577-.84567.3107.3107,0,1,1,.31325.53666c-.10138.06071-.24223.19791-.238.28108.00365.0595.10624.2058.4711.3764a2.75515,2.75515,0,0,0,2.52791-.513c.16087-.12992.52513-.46928.445-.81714a.5977.5977,0,0,0-.27987-.40735,1.736,1.736,0,0,0-1.09943-.054.31071.31071,0,0,1-.1712-.59738,2.23018,2.23018,0,0,1,1.58632.116,1.22057,1.22057,0,0,1,.57005.80317,1.459,1.459,0,0,1-.65929,1.44A3.75052,3.75052,0,0,1,85.6738,82.68687Z" style="fill:#ffd0c7"/><path d="M61.94789,82.53406c-1.35853-3.55806-3.87281-9.85844-7.89242-9.05688s-7.73932,9.863-8.86337,10.81639c0,0-5.24785-1.59853-5.85979.2708s2.35535,1.99527,3.63932,3.43614c1.41238,1.585,2.92175,2.66473,4.07554,1.434a3.84824,3.84824,0,0,0,.719-2.05555s4.62892-3.38019,5.319-4.52147c-.526,2.93824-1.084,9.45186-.19408,10.782" style="fill:#ffd0c7"/><path d="M52.35191,90.74994c-.25877,4.205,2.67363,7.51465,8.04337,8.49622,8.02181,1.46635,20.76079-4.51543,23.52633-10.17821,1.81137-3.709-2.58768-10.02726-9.63911-9.83318C66.65527,79.44469,52.65432,85.83584,52.35191,90.74994Z" style="fill:#fff"/><path d="M68.65318,71.66133s1.32986-3.003.783-3.22511-.7866.75828-1.052.87772-.28414-2.90368-2.06614-2.22946-2.61337,3.35545-.04234,5.15729" style="fill:#ffddd9"/><path d="M77.55865,82.88036c-2.21886.61755-7.502-.03256-8.9343-1.663-1.37811-1.56875-2.29205-4.80472-2.61438-9.2521.39674-.55022,2.59634-.55654,2.59634-.55654s2.76484,5.122,3.27428,6.52636c2.30894.56726,5.49648,1.45573,6.6856,2.592C79.27966,81.20883,79.2078,82.42136,77.55865,82.88036Z" style="fill:#ffddd9"/><path d="M80.36355,85.87648l9.27252,6.21043a5.88571,5.88571,0,0,1-1.50948,5.77915c-5.17536,4.78721-11.19172-7.18081-11.19172-7.18081" style="fill:#ffd0c7"/><path d="M67.60123,81.1632c-.3768,3.52481.74084,5.3346,2.53433,6.923,2.03367,1.80115,6.94363,2.53433,6.94363,2.53433s3.18568-1.38892,3.845-4.35593c-1.23625-2.80218-3.48366-8.21216-4.57157-8.41-1.42322-.25877.06722,4.85385.06722,4.85385s-3.5703-4.16143-5.63073-4.57352S67.737,79.89281,67.60123,81.1632Z" style="fill:#ffd0c7"/><path d="M96.44289,92.21629s-10.76044-4.33436-11.53674-3.213,3.29929,3.75213,3.29929,3.75213-9.18626,2.39361-8.15119,6.01636,11.21328,4.16185,17.20807-.97038" style="fill:#ffc3b3"/><path d="M52.546,91.785c-.48338-1.52564,1.16445-6.4045,2.65237-8.99218-1.03507.841-6.53389,2.45829-6.53389,2.45829a4.64,4.64,0,0,1-1.63887,1.70356c-1.48333.80347-2.24265-.73318-3.08365-2.73863-.74636-1.77979-3.4718-2.91114-2.26422-4.46375s5.60664,1.72512,5.60664,1.72512c1.3801-.51753,7.418-7.763,11.472-7.15925s5.845,7.05634,5.60664,10.52324C64.12586,88.29165,54.61613,98.31891,52.546,91.785Z" style="fill:#ffddd9"/><path d="M41.95806,97.90919c3.47181,1.86529,13.90878-6.64171,15.46139-7.2455C57.67822,88.33477,55.91,85.4452,55.91,85.4452s-8.88437,2.71706-10.95451,3.53649C42.43039,89.9812,38.41747,96.007,41.95806,97.90919Z" style="fill:#ffd0c7"/><path d="M55.52182,85.58254a29.128,29.128,0,0,1,3.81662-3.02906c2.2415-1.45395,4.382-2.18092,4.62436-1.81743.48465.727-.68659,2.46363-2.38286,3.99836,1.02988.84813,7.69381,3.756,7.26975,6.66393s-9.00074,1.673-12.11625-.36349" style="fill:#ffd0c7"/><path d="M43.85608,100.15179c1.11825-1.94223,6.138-3.90729,6.635-3.70847,1.78722.71489-1.51913,3.68613-1.51913,3.68613s5.80845-.73722,6.6127,2.61381c.72776,3.03233-6.25365,6.89525-10.12011,4.5574C42.58269,105.55812,43.00715,101.62625,43.85608,100.15179Z" style="fill:#ffc3b3"/></g></svg>