<svg id="a316b8ec-f3d3-40b6-8318-1b9d605ed0f3" data-name="レイヤー 1" xmlns="http://www.w3.org/2000/svg" viewBox="0 0 160 160"><circle cx="80" cy="80" r="80" style="fill:#eff6f9"/><path d="M124.09036,91.632a89.3369,89.3369,0,0,0-10.4704,10.7147c-6.3016,3.6056-10.68,5.8634-16.6111,9.9844-5.861-.5239-12.47769-1.023-18.31779-1.2113-4.8019-.1555-8.8736.0092-13.362-.4187-2.2364-.2127-4.731-1.0416-7.6835-1.629l-2.9714-.5925c-9.617-2.2869-15.6203-8.1508-15.3025-13.347a8.24071,8.24071,0,0,1,2.4838-5.1449q4.97385,2.13135,10.3181,4.2183c3.3953,1.3305,6.8081,2.6012,10.422,3.8593,8.6444-8.623,9.3422-9.3544,22.9448-8.4262,4.1873-.134,12.60779-6.1239,14.51959-1.6844,1.4836,3.4465-3.8609,4.1481-8.25549,5.852-3.3088,1.6328-7.3805,1.8601-2.7544,4.7936,3.1542,1.999,5.00769,1.2432,9.989,1.6094,3.8251-1.7931,5.90641-3.2336,11.4403-3.6203C116.77866,90.85966,119.19647,89.11556,124.09036,91.632Z" style="fill:#f9d7bd;fill-rule:evenodd"/><path d="M99.01956,62.05293a14.6704,14.6704,0,0,0,3.2165-5.9857c.6253-3.395.1789-6.0748-1.4309-8.0416-1.6961-1.9653-4.2878-3.1274-8.12949-3.4848h-.8039a11.39,11.39,0,0,0-8.5786,3.6629,2.28909,2.28909,0,0,1-1.6993.7162,2.047,2.047,0,0,1-1.5178-.7162,11.666,11.666,0,0,0-8.5791-3.6629h-.9818c-3.7522.3574-6.4334,1.5195-7.9509,3.4848-1.6068,1.9668-2.1454,4.6466-1.5205,8.0416.2706,1.7869,1.5205,3.8431,3.2197,5.9857l.98577,1.23243a101.25372,101.25372,0,0,0,10.6327,10.0073l.1785.2679c1.7851,1.6098,4.7341,4.7374,5.6302,4.7374.8927,0,4.1092-3.5739,5.7163-5.0053a113.17206,113.17206,0,0,0,10.45369-10.0073" style="fill:#f4797f;fill-rule:evenodd"/></svg>