<svg id="e56a41ad-05ad-4038-b42a-43e1dd0998d2" data-name="レイヤー 1" xmlns="http://www.w3.org/2000/svg" viewBox="0 0 160 160"><circle cx="80" cy="80" r="80" style="fill:#eff6f9"/><path d="M45.18927,40.10794h61.90731a8.86835,8.86835,0,0,1,8.86835,8.86835v78.75865a0,0,0,0,1,0,0H54.05773a8.86846,8.86846,0,0,1-8.86846-8.86846V40.10794A0,0,0,0,1,45.18927,40.10794Z" style="fill:#fff"/><rect x="67.0961" y="55.46139" width="38.75818" height="1.6852" style="fill:#f5bb8f"/><rect x="67.0961" y="62.20197" width="21.90661" height="1.68509" style="fill:#f5bb8f"/><rect x="67.0961" y="58.83179" width="38.75818" height="1.68497" style="fill:#f5bb8f"/><rect x="67.0961" y="85.79389" width="38.75818" height="1.68509" style="fill:#f5bb8f"/><rect x="67.0961" y="92.53436" width="21.90661" height="1.6852" style="fill:#f5bb8f"/><rect x="67.0961" y="89.16407" width="38.75818" height="1.6852" style="fill:#f5bb8f"/><rect x="67.0961" y="70.62764" width="38.75818" height="1.68509" style="fill:#f5bb8f"/><rect x="67.0961" y="77.36822" width="21.90661" height="1.68509" style="fill:#f5bb8f"/><rect x="67.0961" y="73.99793" width="38.75818" height="1.6852" style="fill:#f5bb8f"/><polygon points="51.215 55.47 52.795 53.507 56.628 58.272 60.461 53.507 62.041 55.47 56.628 62.202 51.215 55.47" style="fill:#f4797f;fill-rule:evenodd"/><polygon points="51.964 85.99 53.544 84.027 57.377 88.792 61.21 84.027 62.79 85.99 57.377 92.722 51.964 85.99" style="fill:#f4797f;fill-rule:evenodd"/><polygon points="51.215 70.824 52.795 68.86 56.628 73.626 60.461 68.86 62.041 70.824 56.628 77.555 51.215 70.824" style="fill:#f4797f;fill-rule:evenodd"/><polygon points="97.488 113.742 101.784 111.137 106.027 118.135 102.556 117.255 101.731 120.74 97.488 113.742" style="fill:#f4797f;fill-rule:evenodd"/><polygon points="97.62 113.742 93.325 111.137 89.082 118.135 92.553 117.255 93.377 120.74 97.62 113.742" style="fill:#f4797f;fill-rule:evenodd"/><path d="M97.55349,115.95057a7.58893,7.58893,0,1,0-7.58807-7.58887A7.60357,7.60357,0,0,0,97.55349,115.95057Z" style="fill:#b54a44;fill-rule:evenodd"/><path d="M97.55349,114.2773a5.9156,5.9156,0,1,0-5.91411-5.9156A5.928,5.928,0,0,0,97.55349,114.2773Z" style="fill:#f4797f;fill-rule:evenodd"/><path d="M45.87136,31.68078c-5.0276,2.11973-8.68723,3.43881-13.69889,2.88641-.08137,15.91686,8.492,23.71335,13.89733,27.24157h.028c5.40555-3.52822,13.97893-11.32471,13.89733-27.24157-5.01142.5524-8.67094-.76668-13.69889-2.88641Z" style="fill:#f2ab2d;fill-rule:evenodd"/><path d="M45.88192,32.4245c-4.77947,2.01517-8.25833,3.26918-13.02242,2.74364C32.782,50.29973,40.93213,57.71092,46.07038,61.06492h.02685c5.13825-3.354,13.28835-10.76519,13.21088-25.89678-4.76386.52554-8.24295-.72847-13.02242-2.74364Z" style="fill:#fecc3d;fill-rule:evenodd"/><path d="M45.90292,33.41522c-4.28124,1.87021-7.39708,3.113-11.66431,2.62553C34.16917,50.0835,41.46927,56.96135,46.072,60.07432h.02365c4.60271-3.113,11.90316-9.99082,11.8336-24.03357-4.26712.48744-7.3833-.75532-11.66454-2.62553Z" style="fill:#29b5cb;fill-rule:evenodd"/><path d="M46.08415,46.74477V60.07432H46.096A25.92963,25.92963,0,0,0,56.30486,46.74477Z" style="fill:#8bd2e0;fill-rule:evenodd"/><path d="M45.90292,33.41522c-4.28124,1.87021-7.39708,3.113-11.66431,2.62553a32.61164,32.61164,0,0,0,1.62414,10.704H46.08346V33.41522Z" style="fill:#e6f5f6;fill-rule:evenodd"/></svg>