<svg id="f89db670-0cff-43fa-9a97-9b30e0596746" data-name="レイヤー 1" xmlns="http://www.w3.org/2000/svg" viewBox="0 0 160 160"><circle cx="80" cy="80" r="80" style="fill:#eff6f9"/><rect x="101.24878" y="34.52083" width="22.71799" height="34.67343" style="fill:#deebe8"/><rect x="77.08021" y="34.52083" width="22.71799" height="34.67343" style="fill:#deebe8"/><rect x="80.18033" y="76.05631" width="39.78042" height="46.7464" transform="translate(200.14107 198.85903) rotate(180)" style="fill:#efd9d2"/><rect x="80.18033" y="76.05631" width="39.78042" height="3.18967" transform="translate(200.14107 155.3023) rotate(180)" style="fill:#d3b9af"/><rect x="30.56015" y="74.86916" width="93.40662" height="2.91964" transform="translate(154.52692 152.65795) rotate(180)" style="fill:#efd9d2"/><polygon points="80.635 65.527 75.328 65.527 77.738 74.871 83.045 74.871 80.635 65.527" style="fill:#b7b7df"/><polygon points="79.954 65.527 74.647 65.527 77.057 74.871 82.364 74.871 79.954 65.527" style="fill:#9ba8bb"/><polygon points="80.635 65.527 83.045 74.871 82.002 74.871 79.592 65.527 80.635 65.527" style="fill:#b1b9c8"/><polygon points="82.338 73.984 72.956 73.984 72.956 74.871 83.045 74.871 82.338 73.984" style="fill:#b1b9c8"/><polygon points="87.835 69.23 65.589 69.23 64.864 68.365 70.795 52.516 92.316 51.65 93.041 52.516 87.835 69.23" style="fill:#b1b9c8"/><polygon points="87.11 68.365 64.864 68.365 70.07 51.65 92.316 51.65 87.11 68.365" style="fill:#9ba8bb"/><polygon points="86.419 67.426 91.04 52.589 70.76 52.589 66.139 67.426 86.419 67.426" style="fill:#728192"/><path d="M98.09243,71.61161a3.817,3.817,0,0,1,.09847,2.71767H115.751V71.46183Z" style="fill:#f4f1fe"/><path d="M97.62694,70.98978h18.49625a6.24217,6.24217,0,0,1,0,3.94532H97.62694c-.28237-.15991-.53875-.43384,0-.60582h17.44334a6.734,6.734,0,0,0,0-2.71767H97.62694C97.20234,71.38678,97.23863,71.181,97.62694,70.98978Z" style="fill:#b1b9c8"/><path d="M114.15879,68.064a3.36062,3.36062,0,0,0-.08674,2.39252H98.613V67.93205Z" style="fill:#f4f1fe"/><path d="M114.56856,67.51655H98.2853a5.49507,5.49507,0,0,0,0,3.47323h16.28326c.24863-.14077.47431-.38194,0-.53331H99.21218a5.92921,5.92921,0,0,1,0-2.39252h15.35638C114.94237,67.866,114.91045,67.68487,114.56856,67.51655Z" style="fill:#9ba8bb"/><rect x="57.82024" y="73.98405" width="13.7541" height="0.88511" transform="translate(129.39457 148.8532) rotate(180)" style="fill:#b1b9c8"/><path d="M55.2033,50.66375c-.03971.74978-.29777,1.34566-.57644,1.33092s-.47243-.63455-.43272-1.38434.29777-1.34571.57644-1.331S55.243,49.91391,55.2033,50.66375Z" style="fill:none;stroke:#fff;stroke-miterlimit:10;stroke-width:0.5px"/><path d="M63.21961,104.51947l-.291,8.26578-.0751,2.14507-.0704,2.01364-.03755,1.14529-.08919,2.53934a3.569,3.569,0,0,1-3.89585-.74631s-.1549-.67591-.37081-1.76487c-.10326-.54918-.2253-1.20631-.352-1.92915-.07979-.4553-.15959-.94346-.23938-1.44569-.11265-.72285-.22061-1.48794-.31448-2.26711-.40837-3.39831-.57265-7.08294.26754-8.96046C58.263,102.3744,63.21961,104.51947,63.21961,104.51947Z" style="fill:#f39999"/><path d="M58.34238,118.772c.82944-.50965,1.3888.23375,2.29785.64821,1.26549.57687,1.74407.584,2.08343-.7228l1.80805.95533c4.83133-.14349,7.34078,2.71968,3.32842,3.91505a22.88241,22.88241,0,0,1-8.76323.9221c-1.109-.18686-1.24015-1.39246-1.09952-2.60576l.06665-.57438Z" style="fill:#9490ae"/><path d="M72.06742,124.26629a3.83778,3.83778,0,0,1-3.74565.50693s-.6055-1.68508-1.32365-4.13055c-.16428-.54917-.33326-1.14059-.50224-1.76017-.19244-.69938-.38489-1.441-.56795-2.20139-.16428-.67591-.31918-1.37059-.46468-2.07-.7604-3.6377-1.19223-7.435-.48347-9.84759.38959-1.333,4.75482-4.17749,4.75482-4.17749l1.24855,12.67326.22061,2.22956.291,2.97587.14551,1.441Z" style="fill:#f39999"/><path d="M70.4367,91.96961c-2.13821-3.48984-18.02283-7.533-18.02283-7.533s-9.15568-.07637-9.91082.8024c0,0-9.46152,8.00565-2.81538,11.3613,6.0282,3.13668,9.42355,1.26343,14.40724.44093.15114,2.33043-.48159,7.45962,1.13829,14.28868,0,0,7.80152,3.70425,18.76736-2.18557C74.00056,109.14432,72.309,95.22288,70.4367,91.96961Z" style="fill:#7eafab"/><path d="M67.45633,122.84575c.802-.65539.97274.01385,2.01993.25384,1.4578.33406,2.32108.58072,2.45941-.76926l1.757.27843c5.16008-1.03545,8.34829,1.32042,4.24882,3.24023-2.888,1.35242-6.8245,2.70626-9.21374,2.39163C67.08124,128.02386,67.45633,122.84575,67.45633,122.84575Z" style="fill:#9490ae"/><path d="M59.93282,73.97227c-2.698,2.22551-2.89072,4.51947-2.10324,5.11084,1.15955.87079,7.30078-1.847,13.90341-5.84369a3.228,3.228,0,0,0-1.24621-2.371C67.90205,71.54,61.72379,72.49489,59.93282,73.97227Z" style="fill:#fdd"/><path d="M50.05176,55.95535l-.01469.63038L50.00088,57.824l-.06829,2.71672s-6.45238,2.59971-6.29087.49187c.73791-2.69251,2.59215-7.32858,2.59215-7.32858Z" style="fill:#fdd"/><path d="M43.51762,57.99978a16.58406,16.58406,0,0,1,7.18719.87c3.49838,1.34684-2.10169,8.37-2.10169,8.37l-6.49341-.34373A16.56973,16.56973,0,0,1,39.82017,65.254C39.83017,65.06433,41.95411,58.54722,43.51762,57.99978Z" style="fill:#fdd"/><path d="M54.662,50.44708c.06759,2.50536-.55157,5.30329-1.16721,5.81238a4.98966,4.98966,0,0,1-3.57189.38245c-2.87373-.7748-5.81027-3.0175-6.16315-6.35465-.3417-3.23112.1334-5.01758,1.46761-6.41666,1.64532-1.72549,3.87882-1.4494,5.439-1.31858C53.63233,42.80051,54.53688,45.81674,54.662,50.44708Z" style="fill:#fdd"/><path d="M54.283,50.88417a7.66,7.66,0,0,1,.62972,1.98909c-.0277.5235-1.49456.69529-1.49456.69529Z" style="fill:#fdd"/><path d="M50.41694,49.5846s-.33894,5.83246-3.24365,6.69058c-3.40465,1.00579-5.63683-2.11746-5.44115-5.07226.11829-1.785-.00075-5.145,2.67242-7.34011,2.38764-1.96056,4.63935-2.73977,7.4967-1.94685,2.09269.58076,4.54,3.01206,2.81182,5.16-1.72807,2.14789-1.24278,2.937-2.07977,3.90623-1.02818,1.19087-.0024-1.46465-1.15965-2.229C50.31626,47.98889,50.41694,49.5846,50.41694,49.5846Z" style="fill:#fff"/><path d="M52.03978,50.77715c.06674-1.26146-.35988-2.30954-.9528-2.34094-.593-.0314-1.0837.527-1.1505,1.78853-.06674,1.2615.31571,2.74822.90868,2.77962C51.43808,53.03576,51.973,52.03865,52.03978,50.77715Z" style="fill:#fdd"/><path d="M41.62433,94.23756a5.729,5.729,0,0,0,1.7574,3.83582" style="fill:none;stroke:#89acb1;stroke-miterlimit:10;stroke-width:0.5px"/><path d="M39.18294,60.97307a5.27353,5.27353,0,0,1,4.33468-2.97329c2.11615,1.71375,6.65318.68379,6.65642.68009a21.63805,21.63805,0,0,1,2.594.95387,4.8783,4.8783,0,0,1,.56433.18442c1.43433.45624,5.08954,5.18993,7.70882,13.07524,2.13873,6.43829-.93111,7.27891-2.99554,6.6053-.77495-.25295-3.89919-2.20562-4.45658-4.90455-.64985,2.44645-1.03071,2.68133-1.03071,2.68133s-.08355,5.37266-.086,7.31848C49.32789,85.88241,49.41392,87.90717,47.3717,88.6c-3.35368,1.138-6.55555.49046-8.31474-1.14852A7.26387,7.26387,0,0,1,37.283,82.307C37.088,76.69941,36.94512,65.25532,39.18294,60.97307Z" style="fill:#f49796"/><path d="M40.61272,58.62157a3.16051,3.16051,0,0,0-.13692,3.0842,13.88536,13.88536,0,0,0,2.62069,3.73547s5.29212-.56715,7.77012-2.22956,3.22121-2.94634,2.98652-3.204a11.22462,11.22462,0,0,0-4.69319-2.51728C46.73494,56.94654,40.61272,58.62157,40.61272,58.62157Z" style="fill:#9490ae"/><path d="M52.39866,55.11112a3.34854,3.34854,0,1,0-3.52091,3.16682A3.34856,3.34856,0,0,0,52.39866,55.11112Z" style="fill:#fff"/><path d="M49.37642,56.70781a3.34855,3.34855,0,1,0-3.52091,3.16682A3.34857,3.34857,0,0,0,49.37642,56.70781Z" style="fill:#fff"/><path d="M45.72084,54.56979A3.34852,3.34852,0,1,0,42.2,57.73665,3.34852,3.34852,0,0,0,45.72084,54.56979Z" style="fill:#fff"/><path d="M45.4471,46.15338a2.21536,2.21536,0,1,0-2.32939,2.09517A2.21535,2.21535,0,0,0,45.4471,46.15338Z" style="fill:#fff"/><path d="M43.26758,58.31774a1.42926,1.42926,0,1,0-1.50286,1.35172A1.42928,1.42928,0,0,0,43.26758,58.31774Z" style="fill:#fff"/><path d="M44.23089,59.03162a.90419.90419,0,1,0-.95073.85512A.90417.90417,0,0,0,44.23089,59.03162Z" style="fill:#fff"/><path d="M49.9101,58.66935a.90421.90421,0,1,0-.95072.85516A.90426.90426,0,0,0,49.9101,58.66935Z" style="fill:#fff"/><path d="M50.86534,51.67676a.90421.90421,0,1,0-.95073.85512A.90423.90423,0,0,0,50.86534,51.67676Z" style="fill:#fff"/><path d="M40.8713,51.5198a.9042.9042,0,1,0-.90093.90745A.9042.9042,0,0,0,40.8713,51.5198Z" style="fill:#fff"/><path d="M42.17693,47.574a.9042.9042,0,1,0-.90093.90745A.90419.90419,0,0,0,42.17693,47.574Z" style="fill:#fff"/><path d="M43.99188,50.01427a2.20107,2.20107,0,1,0-2.31433,2.0816A2.20109,2.20109,0,0,0,43.99188,50.01427Z" style="fill:#fff"/><path d="M46.35788,44.19977a1.58929,1.58929,0,1,0-1.67108,1.50305A1.5893,1.5893,0,0,0,46.35788,44.19977Z" style="fill:#fff"/><path d="M48.24817,43.27162a1.58929,1.58929,0,1,0-1.67109,1.50305A1.5893,1.5893,0,0,0,48.24817,43.27162Z" style="fill:#fff"/><path d="M55.20274,47.39494A1.58929,1.58929,0,1,0,53.53165,48.898,1.58932,1.58932,0,0,0,55.20274,47.39494Z" style="fill:#fff"/><path d="M56.33643,45.379a1.58929,1.58929,0,1,0-1.67108,1.503A1.58935,1.58935,0,0,0,56.33643,45.379Z" style="fill:#fff"/><path d="M55.12154,44.04164a1.58929,1.58929,0,1,0-1.67109,1.50305A1.58932,1.58932,0,0,0,55.12154,44.04164Z" style="fill:#fff"/><path d="M53.83483,43.17056a1.58929,1.58929,0,1,0-1.67109,1.503A1.58925,1.58925,0,0,0,53.83483,43.17056Z" style="fill:#fff"/><path d="M49.86035,42.8818a1.58931,1.58931,0,1,0-1.67113,1.50305A1.58929,1.58929,0,0,0,49.86035,42.8818Z" style="fill:#fff"/><path d="M54.15325,49.24669a.89746.89746,0,1,0-.94369.84878A.8975.8975,0,0,0,54.15325,49.24669Z" style="fill:#fff"/><path d="M51.81964,41.86916a.89747.89747,0,1,0-.94365.84878A.89747.89747,0,0,0,51.81964,41.86916Z" style="fill:#fff"/><path d="M50.55409,42.09817a.89746.89746,0,1,0-.94364.84878A.89746.89746,0,0,0,50.55409,42.09817Z" style="fill:#fff"/><line x1="55.20255" y1="50.27702" x2="52.24485" y2="49.79905" style="fill:none;stroke:#fff;stroke-miterlimit:10;stroke-width:0.5px"/><path d="M71.20376,115.48888a13.39376,13.39376,0,0,1-5.27583,1.19223c-.16428-.67591-.31918-1.37059-.46468-2.07a11.39593,11.39593,0,0,0,5.17726-1.15468c.11734-.0751.23469-.14081.34264-.19714Z" style="fill:#e48484"/><path d="M71.64029,119.90575a12.94521,12.94521,0,0,1-4.64217.73692c-.16428-.54917-.33326-1.14059-.50224-1.76017a18.59456,18.59456,0,0,0,4.9989-.41775Z" style="fill:#e48484"/><path d="M62.78309,116.944l-.03755,1.14529-.64306.2957a13.89009,13.89009,0,0,1-3.71279-.26754c-.10326-.54918-.2253-1.20631-.352-1.92915a13.96375,13.96375,0,0,0,4.28075.78855C62.48268,116.97212,62.63758,116.958,62.78309,116.944Z" style="fill:#e48484"/><path d="M62.92859,112.78525l-.0751,2.14507a15.51859,15.51859,0,0,1-5.05522-.18775c-.11265-.72285-.22061-1.48794-.31448-2.26711a11.20273,11.20273,0,0,0,5.17726.37081C62.75492,112.8228,62.84411,112.79933,62.92859,112.78525Z" style="fill:#e48484"/><polygon points="60.926 128.379 59.414 128.651 51.593 96.25 54.615 95.705 60.926 128.379" style="fill:#ffb192"/><polygon points="33.55 128.379 35.061 128.651 42.883 96.25 39.86 95.705 33.55 128.379" style="fill:#ffb192"/><path d="M63.859,97.17128a1.2525,1.2525,0,0,0-.22173-2.17337c-1.36374-.60574-3.90754-1.14811-8.58027-.76035-8.93464.74148-9.13211-17.281-9.02448-24.34707S36.75709,59.12066,32.24823,61.3957,30.09077,96.635,37.61784,99.04223C42.46231,100.59156,56.70133,102.048,63.859,97.17128Z" style="fill:#ffd0a9"/><path d="M101.96289,111.02822c-2.01716-1.05343-2.58938-2.13094-2.19524-2.88561.39409-.75471,1.60551-.90078,3.62248.1526,2.01707,1.05338,5.99723,3.91064,5.60318,4.6654C108.59908,113.71519,103.98,112.0816,101.96289,111.02822Z" style="fill:#7eafab"/><path d="M101.93017,107.09993c-3.12025-3.41464-3.3586-5.96741-1.95074-7.25375,1.40781-1.28643,3.92866-.81958,7.049,2.59511s8.63035,11.73638,7.22249,13.0229C112.84307,116.75062,105.05052,110.51463,101.93017,107.09993Z" style="fill:#b5c2b0"/><path d="M120.51175,108.97623c2.19745-.59076,3.34837-.1855,3.5694.63672s-.57147,1.74994-2.769,2.3407c-2.19764.59072-7.06117,1.1835-7.28215.36128C113.809,111.49272,118.31421,109.567,120.51175,108.97623Z" style="fill:#7eafab"/><path d="M113.4458,98.96417c.77823-3.2482,1.79341-4.52374,2.62135-4.32543.828.19845,1.15519,1.79533.377,5.04367-.77809,3.2483-3.10791,10.01179-3.93584,9.81338C111.68032,109.29752,112.66776,102.21256,113.4458,98.96417Z" style="fill:#7eafab"/><path d="M107.32753,99.66622c-1.03653-5.01453.02614-7.54608,1.90225-7.93384,1.87621-.38784,3.8554,1.51483,4.892,6.52927,1.03653,5.01453,1.72511,16.018-.151,16.40577C112.09455,115.05531,108.36415,104.68065,107.32753,99.66622Z" style="fill:#b5c2b0"/><path d="M117.30105,101.71826c1.95413-3.67961,3.93411-4.71385,5.3109-3.98283,1.37674.7311,1.62884,2.9508-.32519,6.63046s-7.23554,10.93083-8.61232,10.19967C112.29779,113.83446,115.347,105.398,117.30105,101.71826Z" style="fill:#b5c2b0"/><polygon points="104.621 112.507 107.948 128.447 116.849 128.447 120.177 112.507 104.621 112.507" style="fill:#b39395"/><rect x="104.3357" y="112.50747" width="16.17915" height="3.12884" style="fill:#b39395"/><path d="M69.23706,71.33782a13.71448,13.71448,0,0,1,2.14155-1.13871c.79208-.26943,5.73408,3.14672,5.654,3.71218-.08008.56551-2.28029-.51993-2.28029-.51993S72.024,74.53547,70.02914,73.45,69.23706,71.33782,69.23706,71.33782Z" style="fill:#fdd"/><path d="M59.36835,72.68729s7.27539-2.04556,9.35826-1.69751,2.08287,2.07888,1.96553,3.69238S61.28426,79.64209,59.859,79.623,57.37348,73.97809,59.36835,72.68729Z" style="fill:#f49796"/></svg>