<svg id="b63a4a74-206c-48ce-b99c-4bb7bf06769f" data-name="レイヤー 1" xmlns="http://www.w3.org/2000/svg" xmlns:xlink="http://www.w3.org/1999/xlink" viewBox="0 0 400 102"><defs><linearGradient id="f6fb9531-9c17-407f-9a83-6bc554491298" x1="5.32357" y1="58.1138" x2="394.59457" y2="58.1138" gradientUnits="userSpaceOnUse"><stop offset="0" stop-color="#99d486"/><stop offset="1" stop-color="#86c0d4"/></linearGradient></defs><path d="M66.71717,68.58518H5.82421a.49864.49864,0,1,1,0-.99727h60.893a5.49845,5.49845,0,0,0,3.77511-1.49153L88.2905,49.40519a6.50013,6.50013,0,0,1,4.46178-1.76276H394.09393a.49864.49864,0,1,1,0,.99727H92.75228a5.49817,5.49817,0,0,0-3.77535,1.492L71.17871,66.82242A6.4987,6.4987,0,0,1,66.71717,68.58518Z" style="fill:url(#f6fb9531-9c17-407f-9a83-6bc554491298)"/><path d="M105.0112,100.09749V84.5516q-2.73984,1.8677-5.60533,3.46465a62.37861,62.37861,0,0,1-5.60509,2.78243,12.72564,12.72564,0,0,0-.793-1.25633q-.50529-.718-1.06338-1.40047a6.19075,6.19075,0,0,0-1.09955-1.07713,47.22967,47.22967,0,0,0,6.48854-2.90807A62.934,62.934,0,0,0,103.8036,80.172a54.26842,54.26842,0,0,0,5.71338-4.59584,28.74346,28.74346,0,0,0,4.21733-4.77454l3.7487,2.54869a36.57012,36.57012,0,0,1-3.58639,4.03926,57.39385,57.39385,0,0,1-4.37964,3.85908v18.84887Z" style="fill:#0d81a9"/><path d="M125.471,98.55337a11.10085,11.10085,0,0,0-.82919-1.27435q-.54048-.73554-1.15333-1.454a13.54986,13.54986,0,0,0-1.08147-1.14871,34.4859,34.4859,0,0,0,8.72335-5.08035,32.3,32.3,0,0,0,6.52424-7.03643,30.647,30.647,0,0,0,4.00123-8.31176l4.39748,1.58016a35.14555,35.14555,0,0,1-4.57789,9.33435,38.29394,38.29394,0,0,1-7.065,7.73666A40.71731,40.71731,0,0,1,125.471,98.55337Z" style="fill:#0d81a9"/><path d="M179.40718,95.825q-.938-.6099-2.41521-1.77736-1.47846-1.16577-3.19013-2.58474-1.7124-1.41776-3.3522-2.836-1.6409-1.41849-2.95594-2.60324-1.316-1.18475-1.96443-1.867a1.36895,1.36895,0,0,0-.82895-.52055,1.43492,1.43492,0,0,0-.9013.449q-.97317.7538-2.28883,1.6157-1.31638.86118-2.75768,1.68728-1.44216.82612-2.81147,1.50809-1.37029.68222-2.45114,1.11268l-2.66749-4.02075a28.65407,28.65407,0,0,0,2.86574-1.13118q1.6398-.73554,3.37029-1.66927,1.73-.93348,3.26224-1.939a22.04041,22.04041,0,0,0,2.5411-1.90252,3.06025,3.06025,0,0,1,2.0187-.93348,3.25057,3.25057,0,0,1,2.01846,1.18475q.7209.71874,2.16293,1.95656,1.44107,1.23881,3.262,2.71086,1.81985,1.47253,3.767,2.92559,1.94634,1.45428,3.73062,2.67482a35.17349,35.17349,0,0,0,3.118,1.93855,18.67543,18.67543,0,0,0-1.91041,1.885A14.96664,14.96664,0,0,0,179.40718,95.825ZM175.58611,80.8537a16.78954,16.78954,0,0,0-1.80236-2.42306,22.65538,22.65538,0,0,0-2.01846-2.06467l2.01846-1.54364a14.30827,14.30827,0,0,1,1.26163,1.27435q.7572.84438,1.478,1.70579a15.98986,15.98986,0,0,1,1.1174,1.47156Zm3.28033-2.69235a16.56142,16.56142,0,0,0-1.82045-2.3695,25.50706,25.50706,0,0,0-2.03654-2.04665l1.98252-1.57967a12.10769,12.10769,0,0,1,1.29756,1.25682q.7572.82611,1.49606,1.68729a14.682,14.682,0,0,1,1.13549,1.472Z" style="fill:#0d81a9"/><path d="M187.87434,88.214q.02823-.50253.02884-1.36443V85.1262q0-.8619-.02884-1.36443.54745.03651,1.94634.07207,1.39852.03579,3.34511.07158,1.94672.03651,4.167.054,2.22025.01825,4.441.018,2.22025,0,4.19581-.036,1.97495-.03505,3.41723-.07158,1.44142-.03579,2.0473-.1081-.029.46746-.04327,1.3284-.01467.8619,0,1.74133.01431.88017.01443,1.34642-.72127-.03507-2.11942-.07207-1.39926-.03505-3.25858-.07158-1.86017-.03507-3.95087-.036H197.852q-2.13445,0-4.066.036-1.9324.03652-3.47491.07158Q188.76806,88.14238,187.87434,88.214Z" style="fill:#0d81a9"/><path d="M223.07134,87.92665a12.14958,12.14958,0,0,0-1.98252-1.27435q-1.29768-.70047-2.68533-1.36443a21.09141,21.09141,0,0,0-2.36118-.98754l2.235-3.87709q1.04505.39516,2.43306,1.07713,1.38715.68221,2.68533,1.4,1.29768.71874,2.05463,1.22079Zm-1.69406,11.63227-2.45115-4.38012a29.4893,29.4893,0,0,0,5.42493-1.81291,51.61884,51.61884,0,0,0,5.64127-2.90807,59.894,59.894,0,0,0,5.37091-3.59028,51.46082,51.46082,0,0,0,4.61382-3.87759,27.62709,27.62709,0,0,0,3.35221-3.75146,12.23687,12.23687,0,0,0,.4867,1.50759q.34212.8977.739,1.74134a13.43157,13.43157,0,0,0,.685,1.31038,34.93492,34.93492,0,0,1-4.45176,4.5598,61.06172,61.06172,0,0,1-12.472,8.31127A52.4019,52.4019,0,0,1,221.37728,99.55892Zm6.70464-19.02807a13.00067,13.00067,0,0,0-1.35183-1.0411q-.88369-.6099-1.9285-1.27483-1.04577-.66323-2.00061-1.20228a14.80059,14.80059,0,0,0-1.56793-.78984l2.45114-3.73393q.72052.35937,1.71216.969.99114.61137,2.0187,1.27484,1.02708.66468,1.91041,1.27434.8826.61137,1.35159,1.00556Z" style="fill:#0d81a9"/><path d="M254.381,98.15845v-3.303q.7209.03651,2.46948.07207,1.7476.03579,4.18114.036h7.26323v-3.5187h-5.56916q-1.85688,0-3.53236.018-1.67648.01827-2.88383.05406-1.20785.03579-1.676.07158v-3.339q.75684.03652,2.46923.07207,1.71168.03579,4.10928.05356,2.39663.019,5.13647.018h1.94635V85.16224h-5.96566q-1.85688,0-3.53237.018-1.67646.01827-2.90167.05357-1.22618.03651-1.69431.07207v-3.339q.75682.03652,2.46923.07158,1.71166.03652,4.10928.05405,2.39663.01827,5.17265.018,2.19789,0,3.78464-.054,1.58627-.05333,2.09106-.0896v16.084h-9.3q-1.87521,0-3.56854.018-1.6948.01825-2.90192.036Q254.84906,98.12315,254.381,98.15845Z" style="fill:#0d81a9"/><path d="M288.70828,82.68512a12.99389,12.99389,0,0,0-1.31565-1.18475q-.84777-.68222-1.87448-1.4365-1.02744-.75381-2.00061-1.382a13.22148,13.22148,0,0,0-1.69407-.9515l2.88358-3.62583q.7209.39516,1.69407,1.00507.97317.61063,2.00061,1.3284,1.02744.71873,1.92875,1.418a16.02346,16.02346,0,0,1,1.44179,1.23881Zm-3.857,15.8327-2.45139-4.41615a27.792,27.792,0,0,0,5.38924-1.77688,54.3485,54.3485,0,0,0,5.67721-2.90807,57.22465,57.22465,0,0,0,5.40683-3.59028,51.61184,51.61184,0,0,0,4.63192-3.89561,27.826,27.826,0,0,0,3.37054-3.76948,12.18719,12.18719,0,0,0,.48646,1.5076q.34248.89843.73923,1.74133a13.39351,13.39351,0,0,0,.68447,1.31039,33.80839,33.80839,0,0,1-4.41533,4.57782,56.3279,56.3279,0,0,1-5.85761,4.45169A63.81109,63.81109,0,0,1,291.808,95.6453,48.51863,48.51863,0,0,1,284.85128,98.51782Z" style="fill:#0d81a9"/><path d="M324.65381,102q-.43269-.71874-1.15334-1.72332a8.12468,8.12468,0,0,0-1.65838-1.72331,20.12034,20.12034,0,0,0,5.8757-2.49514,7.60464,7.60464,0,0,0,2.84741-3.35654,5.1381,5.1381,0,0,1-2.30667.57411,6.26016,6.26016,0,0,1-4.41582-1.54363,5.72619,5.72619,0,0,1-1.78452-4.1644,5.958,5.958,0,0,1,.72114-3.21338,5.825,5.825,0,0,1,2.2348-2.24387,6.48305,6.48305,0,0,1,3.28009-.82587c.19214,0,.36081.00633.505.018q.21634.01825.46837.054-.0726-.64642-.14422-1.3284a13.57777,13.57777,0,0,1-.07187-1.436q-2.92026.10738-5.6953.32285-2.7765.21548-5.08269.48452a34.27379,34.27379,0,0,0-3.82082.62865l-.61309-4.16489q1.29806-.10737,3.6409-.23324,2.34309-.12564,5.35306-.26929,3.009-.14316,6.21794-.2873V70.01175h4.18114V74.8944q2.81172-.10811,5.37115-.1977,2.5587-.08912,4.57765-.14365,2.01822-.054,3.172-.018l-.28846,4.20044q-2.09082-.25055-5.533-.30483-3.4424-.05406-7.2994.018,0,1.29213.09,2.62077.09021,1.32864.16232,2.5487a8.26286,8.26286,0,0,1,1.76642,5.52932,11.92682,11.92682,0,0,1-2.77553,8.024A16.44407,16.44407,0,0,1,324.65381,102Zm3.64041-12.314a2.31472,2.31472,0,0,0,1.586-.68221,2.20784,2.20784,0,0,0,.57691-1.57967,5.00076,5.00076,0,0,0-.05378-.70024q-.05427-.37689-.12663-.80785a2.43312,2.43312,0,0,0-1.91016-.86141,2.372,2.372,0,0,0-1.69407.64618,2.05844,2.05844,0,0,0-.64878,1.65125,2.373,2.373,0,0,0,.63069,1.7053A2.0497,2.0497,0,0,0,328.29422,89.686Z" style="fill:#0d81a9"/><path d="M364.81666,100.6716q-4.32612,0-6.38026-1.63323a4.94413,4.94413,0,0,1-2.05488-4.00322,4.43928,4.43928,0,0,1,.75732-2.62076,5.07169,5.07169,0,0,1,1.98252-1.66927,5.95893,5.95893,0,0,1,2.63131-.59262A5.80419,5.80419,0,0,1,366.06,91.80375a7.73226,7.73226,0,0,1,2.10866,4.09282,5.204,5.204,0,0,0,2.181-1.86648,5.27184,5.27184,0,0,0,.84728-3.01617,5.07578,5.07578,0,0,0-.72114-2.69235,5.16741,5.16741,0,0,0-2.03679-1.885,6.38954,6.38954,0,0,0-3.0459-.70023,13.75251,13.75251,0,0,0-4.19924.5746,9.128,9.128,0,0,0-3.2263,1.83093q-.6483.57484-1.71216,1.472-1.06338.89771-2.00061,1.61571l-2.95545-3.15934a30.06308,30.06308,0,0,0,3.46049-2.3695q1.8378-1.436,3.71277-3.19536,1.87374-1.75887,3.56854-3.64385a47.07845,47.07845,0,0,0,3.02781-3.71592q-1.55033.35937-3.37053.68222t-3.49619.53808q-1.67646.21547-2.8298.2873l-.793-4.09282a18.41984,18.41984,0,0,0,2.4333-.018q1.4594-.0891,3.154-.25126,1.69407-.16143,3.29817-.41294,1.60314-.25053,2.88359-.52055a9.23964,9.23964,0,0,0,1.89256-.55609l3.24391,2.15378a28.97738,28.97738,0,0,1-3.37,5.04431A65.30633,65.30633,0,0,1,363.5186,83.08a6.34353,6.34353,0,0,1,1.36992-.449,7.07336,7.07336,0,0,1,1.478-.16167,10.65184,10.65184,0,0,1,4.93846,1.07713,8.056,8.056,0,0,1,3.262,2.99767,8.41534,8.41534,0,0,1,1.17142,4.46972,9.10463,9.10463,0,0,1-1.35183,4.88265,9.63449,9.63449,0,0,1-3.80273,3.48266A12.196,12.196,0,0,1,364.81666,100.6716Zm-.46887-3.94917a4.31852,4.31852,0,0,0-.84679-2.18981,2.14067,2.14067,0,0,0-1.74833-.82587,1.61475,1.61475,0,0,0-.97342.2873.99506.99506,0,0,0-.39651.86142,1.46283,1.46283,0,0,0,.8111,1.25681,5.849,5.849,0,0,0,2.72127.57412.67339.67339,0,0,0,.21658.036Z" style="fill:#0d81a9"/><path d="M391.45434,101.7127a5.09372,5.09372,0,0,1-2.6313-.69975,5.38416,5.38416,0,0,1-1.91066-1.903,5.34841,5.34841,0,0,1-.01809-5.33113,5.2726,5.2726,0,0,1,4.56-2.58522,5.15779,5.15779,0,0,1,2.68558.71825,5.3774,5.3774,0,0,1,1.91016,1.90252,5.03924,5.03924,0,0,1,.70305,2.62076A5.102,5.102,0,0,1,396.032,99.11a5.3396,5.3396,0,0,1-1.92825,1.903A5.19213,5.19213,0,0,1,391.45434,101.7127Zm0-2.01013a3.16979,3.16979,0,0,0,2.32476-.9515,3.10443,3.10443,0,0,0,.95533-2.2799,3.286,3.286,0,0,0-3.28009-3.26695,3.24919,3.24919,0,0,0,0,6.49835Z" style="fill:#0d81a9"/><path d="M114.16992,35.86583a16.08728,16.08728,0,0,1-6.63228-2.18981A12.36008,12.36008,0,0,1,101.44559,22.726a12.52723,12.52723,0,0,1,1.24379-5.27757,13.70517,13.70517,0,0,1,3.73061-4.775q-2.88394.46674-5.74932,1.00506-2.86561.53905-5.19074,1.00555-2.32476.46674-3.58638.78984l-.97342-4.63139q1.18952-.07158,3.29842-.32333,2.10842-.25055,4.75806-.62817,2.64927-.37689,5.479-.82586,2.82931-.44848,5.47895-.91547,2.64965-.466,4.7583-.91547,2.10842-.44849,3.29818-.80785l1.15333,4.38012q-.57678.03653-1.38776.14365-.81111.10811-1.82021.25127a10.80327,10.80327,0,0,0-3.78488,1.22078,12.27161,12.27161,0,0,0-3.22607,2.51315,11.99045,11.99045,0,0,0-2.25289,3.51822,10.91788,10.91788,0,0,0-.82919,4.2725,7.32423,7.32423,0,0,0,1.40586,4.59535,9.21835,9.21835,0,0,0,3.83891,2.8545,20.16471,20.16471,0,0,0,5.46111,1.382,7.49127,7.49127,0,0,0-1.04553,1.34642,13.16435,13.16435,0,0,0-.86513,1.6157A6.71192,6.71192,0,0,0,114.16992,35.86583Zm3.02806-13.75a16.08429,16.08429,0,0,0-1.80236-2.40554,20.65532,20.65532,0,0,0-2.05464-2.04665L115.3235,16.084a12.10734,12.10734,0,0,1,1.29757,1.25681q.75718.82611,1.49606,1.68729.7385.8619,1.13549,1.436Zm3.24415-2.72887a16.5616,16.5616,0,0,0-1.82045-2.3695,18.66767,18.66767,0,0,0-2.07248-2.01062l1.94634-1.61521a13.19225,13.19225,0,0,1,1.31565,1.25633q.77481.82611,1.532,1.66926a12.49737,12.49737,0,0,1,1.15358,1.454Z" style="fill:#29a300"/><path d="M140.52527,41.46673a14.95891,14.95891,0,0,0-3.28913-2.51315v2.28867H132.46V17.86133q-.58632.94225-1.17143,1.7725-.58632.83122-1.12644,1.548a9.31168,9.31168,0,0,0-1.03649-1.14434q-.6758-.65007-1.39681-1.25633a9.30994,9.30994,0,0,0-1.26163-.91985,26.08342,26.08342,0,0,0,2.63595-3.882q1.28412-2.26578,2.41057-4.757,1.12571-2.49075,1.96-4.8695A44.11736,44.11736,0,0,0,134.75786.0896l4.86635,1.12193q-.18078.58362-.33808,1.18962-.15842.60552-.38282,1.23393H147.194l1.30661.94225q-.36118,1.12266-.90131,2.69284-.54048,1.57115-1.12644,3.23091-.586,1.661-1.14894,3.07412-.564,1.41409-.92354,2.31155l4.68594.62817a51.96891,51.96891,0,0,1-.67592,8.77338,34.81869,34.81869,0,0,1-1.98252,7.15817,10.79008,10.79008,0,0,0,4.84361,2.80483,26.54821,26.54821,0,0,0,7.187.83025q3.60411,0,6.60075-.09009a45.54332,45.54332,0,0,0,4.88884-.35888,10.6159,10.6159,0,0,0-.428,1.50322q-.20277.92032-.36032,1.81778-.15842.897-.24788,1.436H158.50341a30.94493,30.94493,0,0,1-8.178-.94225,14.58032,14.58032,0,0,1-5.88011-3.1418A24.47612,24.47612,0,0,1,142.643,38.976Q141.65147,40.255,140.52527,41.46673Zm-3.28913-3.09651a23.40076,23.40076,0,0,0,4.10023-6.01384,35.74206,35.74206,0,0,1-3.15395-7.80873l3.91982-1.21154q.27061,1.07739.56322,2.04179.29262.96562.60845,1.86258a32.3174,32.3174,0,0,0,.78836-3.5226,25.34541,25.34541,0,0,0,.33809-3.43348l-6.083-.85265q.40554-.897.9915-2.33347.58486-1.436,1.21641-3.09651.63069-1.65953,1.19416-3.16372.56285-1.50321.92354-2.53555h-3.73966V3.67988q-.36117,1.03282-.76612,2.17667-.40554,1.14457-.901,2.31107Zm18.24826-3.23141V31.9079h-6.57826V27.91345h6.57826V25.66958h-5.497V21.7657h5.497V19.52183h-5.67721V15.70707h5.67721V13.508H148.095V9.87292h7.38936V7.67385H149.627V3.85957h5.85737V.31408h4.50578V3.85957h7.11924V9.87292h2.61346V13.508h-2.61346v6.01383h-7.11924V21.7657h6.71369v3.90388h-6.71369v2.24387h8.561V31.9079h-8.561v3.23091Zm4.50578-25.26589h2.79362V7.67385h-2.79362Zm0,5.83415h2.79362V13.508h-2.79362Z" style="fill:#29a300"/><path d="M194.05854,41.42193a17.23424,17.23424,0,0,0-.428-2.446,14.95237,14.95237,0,0,0-.6984-2.26626h2.74864a2.27585,2.27585,0,0,0,1.30661-.29169,1.33406,1.33406,0,0,0,.40555-1.14433V26.16335h-6.35312q.90055.71874,1.82485,1.4813.92293.76329,1.59946,1.39073-.27024.26952-.96877.94274-.69889.67272-1.37432,1.34641-.6758.67272-.90106.94225a22.20508,22.20508,0,0,0-2.29787-2.13187,23.65759,23.65759,0,0,0-2.56848-1.86209l1.75738-2.10947h-.31535V22.39387h9.59728V20.2396H185.092a55.32322,55.32322,0,0,1-1.19391,11.96,25.902,25.902,0,0,1-3.492,8.5041q-.49613-.31408-1.3291-.74065-.83419-.42657-1.66718-.80736a8.26431,8.26431,0,0,0-1.37432-.51617,25.64933,25.64933,0,0,0,3.109-8.01082,50.36253,50.36253,0,0,0,.99126-10.61357V3.81477h15.90541V0h5.54227V3.81477h16.13056V8.21242h-15.2295v2.37875h10.81392v5.879H218.525V20.2396h-5.22667v5.92375h-.58571L215.416,28.6317q-.85658.71874-2.25289,1.7725-1.39705,1.05546-2.70342,1.95218a39.11984,39.11984,0,0,0,4.12272,2.44595,37.66551,37.66551,0,0,0,4.21292,1.86259,11.93974,11.93974,0,0,0-1.68967,1.92978,14.754,14.754,0,0,0-1.37432,2.24387,32.659,32.659,0,0,1-7.029-3.97206,36.95759,36.95759,0,0,1-6.21794-5.72166V36.9342a4.09967,4.09967,0,0,1-1.35183,3.4106,6.42638,6.42638,0,0,1-4.055,1.07713Zm-8.24544-1.5261-2.25289-4.39765q1.26064-.44847,2.97379-1.14482,1.71166-.69463,3.537-1.52561,1.82461-.82977,3.44681-1.6381,1.62219-.80785,2.74864-1.48082l.13518,4.39814q-.8111.53832-2.16293,1.32353-1.35159.78594-2.88358,1.6157-1.53235.83123-2.99627,1.5933Q186.894,39.40207,185.8131,39.89583ZM185.092,16.47012H197.3929V14.36065h-9.59728V10.59117h9.59728V8.21242H185.092Zm17.39243,0h5.76741V14.36065h-5.76741Zm0,5.92375h5.76741V20.2396h-5.76741ZM206.855,29.574q1.03587-.76257,2.16268-1.6605a24.00461,24.00461,0,0,0,1.98253-1.7501h-7.38937q.72016.89842,1.55449,1.7501Q205.99842,28.76657,206.855,29.574Z" style="fill:#29a300"/><path d="M235.69178,25.75967a4.91315,4.91315,0,0,1-4.95631-4.93671,4.95631,4.95631,0,1,1,8.47083,3.50069A4.79179,4.79179,0,0,1,235.69178,25.75967Z" style="fill:#29a300"/><path d="M258.04052,41.15265V19.07287q-.67579.98752-1.35183,1.84018-.6758.85241-1.39681,1.61521a12.81712,12.81712,0,0,0-1.89232-1.59281,12.428,12.428,0,0,0-2.20791-1.27922,23.4283,23.4283,0,0,0,3.15419-4.06116,54.52592,54.52592,0,0,0,2.95129-5.318,54.54073,54.54073,0,0,0,2.32036-5.47526A27.25325,27.25325,0,0,0,260.87912.26928L266.01584,1.436q-.451,1.92978-1.12645,3.994-.67615,2.06492-1.57721,4.17365V34.42105a42.06,42.06,0,0,0,3.78488-2.46835q2.11758-1.52513,4.19043-3.321a35.08378,35.08378,0,0,0,3.51452-3.4554h-9.82266v-4.757h11.625V16.7842h-8.74119V1.6605H290.482V16.7842h-8.651v3.63508h11.67v4.757h-9.91286q1.17117,1.25706,2.70366,2.62515,1.53126,1.36954,3.19893,2.62515,1.66656,1.25706,3.24415,2.28915a32.04327,32.04327,0,0,0,2.79362,1.6605,14.03929,14.03929,0,0,0-1.77962,1.97458q-.924,1.21106-1.50951,2.15378a44.21,44.21,0,0,1-5.2719-3.76948,55.89144,55.89144,0,0,1-5.13647-4.757V41.15265h-5.22668V29.88852a48.16722,48.16722,0,0,1-5.11422,4.89141A44.8385,44.8385,0,0,1,266.151,38.6395a20.31718,20.31718,0,0,0-1.28436-1.81779,15.21975,15.21975,0,0,0-1.55448-1.7277v6.05864ZM273.45018,12.072H284.94V6.37272H273.45018Z" style="fill:#29a300"/><path d="M313.029,41.46673a14.95829,14.95829,0,0,0-3.28913-2.51315v2.28867h-4.77615V17.86133q-.58632.94225-1.17142,1.7725-.58634.83122-1.12645,1.548a9.31148,9.31148,0,0,0-1.03648-1.14434q-.67579-.65007-1.39682-1.25633a9.30992,9.30992,0,0,0-1.26162-.91985,26.08418,26.08418,0,0,0,2.636-3.882q1.28411-2.26578,2.41056-4.757,1.12571-2.49075,1.96-4.8695A44.11736,44.11736,0,0,0,307.26162.0896L312.128,1.21153q-.18077.58362-.33808,1.18962-.1584.60552-.38281,1.23393h8.29066l1.30661.94225q-.36119,1.12266-.9013,2.69284-.54049,1.57115-1.12645,3.23091-.586,1.661-1.14893,3.07412-.564,1.41409-.92355,2.31155l4.68594.62817a51.96891,51.96891,0,0,1-.67592,8.77338,34.81806,34.81806,0,0,1-1.98252,7.15817,10.79012,10.79012,0,0,0,4.84362,2.80483,26.54808,26.54808,0,0,0,7.187.83025q3.60411,0,6.60075-.09009a45.54311,45.54311,0,0,0,4.88884-.35888,10.61724,10.61724,0,0,0-.428,1.50322q-.20277.92032-.36032,1.81778-.15841.897-.24788,1.436H331.00717a30.945,30.945,0,0,1-8.178-.94225,14.58022,14.58022,0,0,1-5.8801-3.1418,24.479,24.479,0,0,1-1.80236,2.67043Q314.15522,40.255,313.029,41.46673Zm-3.28913-3.09651a23.40076,23.40076,0,0,0,4.10023-6.01384,35.74206,35.74206,0,0,1-3.154-7.80873l3.91982-1.21154q.27062,1.07739.56323,2.04179.2926.96562.60844,1.86258a32.31744,32.31744,0,0,0,.78837-3.5226,25.34535,25.34535,0,0,0,.33808-3.43348l-6.083-.85265q.40555-.897.99151-2.33347.58485-1.436,1.2164-3.09651.63069-1.65953,1.19416-3.16372.56286-1.50321.92355-2.53555h-3.73966V3.67988q-.36119,1.03282-.76612,2.17667-.40555,1.14457-.90106,2.31107Zm18.24826-3.23141V31.9079H321.4099V27.91345h6.57826V25.66958h-5.497V21.7657h5.497V19.52183H322.311V15.70707h5.6772V13.508H320.5988V9.87292h7.38936V7.67385h-5.85737V3.85957h5.85737V.31408h4.50578V3.85957h7.11924V9.87292h2.61346V13.508h-2.61346v6.01383h-7.11924V21.7657h6.71369v3.90388h-6.71369v2.24387h8.561V31.9079h-8.561v3.23091Zm4.50578-25.26589h2.79362V7.67385h-2.79362Zm0,5.83415h2.79362V13.508h-2.79362Z" style="fill:#29a300"/><path d="M366.41807,36.36885a22.784,22.784,0,0,1-5.335-.5746,8.23219,8.23219,0,0,1-3.74871-1.84895,4.36774,4.36774,0,0,1-1.36992-3.357A5.16945,5.16945,0,0,1,357.01,27.447a10.53129,10.53129,0,0,1,2.88358-2.58473A27.20714,27.20714,0,0,1,364.075,22.726v-.2873a2.42989,2.42989,0,0,0-.63069-1.84895,2.53947,2.53947,0,0,0-1.60411-.6642,7.47875,7.47875,0,0,0-3.172.467,8.49265,8.49265,0,0,0-2.99187,2.0822q-.43269.431-1.1174,1.09515-.68533.66469-1.36992,1.31038-.685.6457-1.18952,1.07665l-3.13586-3.08726a23.94541,23.94541,0,0,0,4.75806-4.16489,28.87469,28.87469,0,0,0,3.78488-5.34915q-2.0193.07232-3.67683.12564-1.6585.054-2.48708.018l-.14423-4.12885q1.2251.1081,3.40623.10762,2.18066,0,4.74021-.10762a16.06572,16.06572,0,0,0,.93724-4.4517l4.28944.21524a17.17422,17.17422,0,0,1-.7209,3.94916q2.66724-.21548,4.95631-.48451a22.69,22.69,0,0,0,3.51452-.62817l.25227,3.9852q-1.00947.17968-2.6313.3769-1.62221.19722-3.58663.3769-1.965.17969-4.01907.32285-.469,1.0058-1.06338,2.02863-.59477,1.02333-1.24354,1.95657a7.83955,7.83955,0,0,1,2.91976-.57412,5.74392,5.74392,0,0,1,3.58639,1.11269,5.30881,5.30881,0,0,1,1.82045,3.66186q2.01822-.68148,4.12737-1.23831,2.10842-.55659,4.09118-1.02309l1.22545,3.94917q-2.5235.35863-4.90228.87943-2.379.5208-4.43367,1.16674v4.775h-4.2535V26.56752a13.46885,13.46885,0,0,0-2.88359,1.77688,2.46657,2.46657,0,0,0-1.08146,1.74133q0,1.22127,1.478,1.7053a15.50079,15.50079,0,0,0,4.50578.485,26.57885,26.57885,0,0,0,2.75744-.16166q1.532-.16143,3.064-.43095,1.53164-.26954,2.68558-.59214-.073.46676-.12614,1.34593-.05427.88017-.05427,1.74134,0,.8619.03618,1.29236a30.3634,30.3634,0,0,1-3.965.6642A39.15209,39.15209,0,0,1,366.41807,36.36885Z" style="fill:#29a300"/><path d="M7.49218,99.95639a.49864.49864,0,0,1-.354-.85119l8.85047-8.81526L7.13821,81.47481a.49959.49959,0,1,1,.70794-.70511l9.20456,9.16769a.497.497,0,0,1,0,.7051L7.84615,99.81031A.49982.49982,0,0,1,7.49218,99.95639Z" style="fill:#29a300"/><path d="M17.8744,99.95639a.49864.49864,0,0,1-.354-.85119L26.371,90.28994l-8.85058-8.81513a.49959.49959,0,1,1,.70794-.70511l9.20468,9.16769a.497.497,0,0,1,0,.7051l-9.20468,9.16782A.49984.49984,0,0,1,17.8744,99.95639Z" style="fill:#99d486"/><path d="M28.25673,99.95639a.49864.49864,0,0,1-.354-.85119l8.85047-8.81526-8.85047-8.81513a.49959.49959,0,1,1,.70794-.70511l9.20456,9.16769a.497.497,0,0,1,0,.7051L28.6107,99.81031A.49982.49982,0,0,1,28.25673,99.95639Z" style="fill:#88cc72"/><path d="M38.639,99.95639a.49864.49864,0,0,1-.354-.85119l8.85046-8.81526L38.285,81.47481a.49959.49959,0,1,1,.70794-.70511l9.20456,9.16769a.497.497,0,0,1,0,.7051l-9.20456,9.16782A.49984.49984,0,0,1,38.639,99.95639Z" style="fill:#98c5d8"/><path d="M49.02116,99.95639a.49864.49864,0,0,1-.354-.85119l8.85059-8.81526-8.85059-8.81513a.49959.49959,0,1,1,.70794-.70511l9.20468,9.16769a.497.497,0,0,1,0,.7051l-9.20468,9.16782A.49982.49982,0,0,1,49.02116,99.95639Z" style="fill:#86c0d4"/><path d="M59.4035,99.95639a.49864.49864,0,0,1-.354-.85119L67.9,90.28994l-8.85047-8.81513a.49959.49959,0,1,1,.70794-.70511L68.962,89.93739a.497.497,0,0,1,0,.7051l-9.20456,9.16782A.49982.49982,0,0,1,59.4035,99.95639Z" style="fill:#0d81a9"/><path d="M0,68.07115a4.01617,4.01617,0,1,1,4.01605,4A4.00847,4.00847,0,0,1,0,68.07115Z" style="fill:#29a300"/><path d="M391.96772,47.97122a4.01617,4.01617,0,1,1,4.01605,4A4.00846,4.00846,0,0,1,391.96772,47.97122Z" style="fill:#0d81a9"/><path d="M20.58728,12.68279a5.7326,5.7326,0,0,1-3.484-1.14874,5.82132,5.82132,0,0,1-2.22985-2.92728,5.96929,5.96929,0,0,1-.25934-1.84891,5.90429,5.90429,0,0,1,1.156-3.48584,6.001,6.001,0,0,1,8.32181-1.31837A6.04283,6.04283,0,0,1,25.439,3.24753a5.9409,5.9409,0,0,1,.78649,1.686,5.92788,5.92788,0,0,1-.00852,3.646,5.95419,5.95419,0,0,1-.76934,1.6952,6.083,6.083,0,0,1-1.33675,1.31366,5.99337,5.99337,0,0,1-1.68708.79935A5.92659,5.92659,0,0,1,20.58728,12.68279Z" style="fill:#29a300"/><path d="M26.15189,48.67419c-.01163-.83525-.09593-.83533-.09593-1.67067,0-.833.03047-.833.03047-1.666,0-.83171-.002-.83171-.002-1.66342,0-.82739.158-.82739.158-1.65477,0-.82879.03361-.82879.03361-1.65757,0-.8294-.21119-.8294-.21119-1.6588,0-.83077-.024-.83077-.024-1.66155,0-.828.05042-.828.05042-1.65606s.12109-.828.12109-1.656c0-.82984-.02663-.82984-.02663-1.65969,0-.826-.095-.826-.095-1.65211,0-.8248-.02794-.8248-.02794-1.64961,0-.82574.18866-.82574.18866-1.65149,0-.8286-.18221-.8286-.18221-1.6572,0-.826.09583-.826.09583-1.65205,0-.82741.11939-.82741.11939-1.65483a6.3159,6.3159,0,0,0-.41926-1.714,6.41163,6.41163,0,0,0-.575-1.66291,6.27433,6.27433,0,0,0-1.12768-1.3799,5.6736,5.6736,0,0,0-1.61879-.71421,4.79258,4.79258,0,0,0-1.65979-.39123c-.15194-.00647-.14764-.02471-.29971-.02593a5.79247,5.79247,0,0,0-1.75457.07211,5.68365,5.68365,0,0,0-1.52407.88511A5.59251,5.59251,0,0,0,16.096,18.4693a5.54831,5.54831,0,0,0-.85288,1.51963,5.62049,5.62049,0,0,0-.32051,1.72886c0,.84822.08175.84822.08175,1.69643s.02154.84821.02154,1.69642c0,.84584-.02244.84584-.02244,1.69167,0,.84453-.02573.84453-.02573,1.68906,0,.84014-.09808.84014-.09808,1.68028,0,.84156.08929.84156.08929,1.68312,0,.84218.13457.84218.13457,1.68437,0,.84358-.05722.84358-.05722,1.68715,0,.8408.00164.8408.00164,1.6816s-.13006.84077-.13006,1.68155c0,.84263.10374.84263.10374,1.68527,0,.83879-.01943.83879-.01943,1.67758,0,.83752.05745.83752.05745,1.675,0,.83848.011.83848.011,1.677,0,.84137-.09006.84137-.09006,1.68275,0,.83875.13406.83875.13406,1.67751A1.46757,1.46757,0,0,0,16.60775,50.342a14.12967,14.12967,0,0,0,1.60176.019c.79831,0,.79831-.13666,1.59662-.13666.79707,0,.79707.07782,1.59415.07782.79293,0,.79293.16919,1.58586.16919.79427,0,.83708-.17463,1.63135-.17463C24.61749,50.29672,26.17179,50.1032,26.15189,48.67419Z" style="fill:#29a300"/><path d="M50.53867,50.23925c.7674.03713.79.02794,1.55827.02794.76607,0,.76607-.002,1.53215-.002.76489,0,.76489.15735,1.52979.15735.76092,0,.76092.03348,1.52184.03348.7622,0,.7622-.21035,1.5244-.21035.76277,0,.90888-.03329,1.15781-.31011.31073-.34554.29759-.42607.29759-1.26141s.1162-.83533.1162-1.67067c0-.833-.02556-.833-.02556-1.666,0-.83171-.09116-.83171-.09116-1.66342,0-.82739-.02681-.82739-.02681-1.65477,0-.82879.181-.82879.181-1.65757,0-.8294-.17486-.8294-.17486-1.6588,0-.83077.092-.83077.092-1.66155,0-.828.11458-.828.11458-1.65606s-.17054-.828-.17054-1.656c0-.82984.149-.82984.149-1.65969,0-.826.03471-.826.03471-1.65211,0-.8248-.25152-.8248-.25152-1.64961,0-.82574.00648-.82574.00648-1.65149,0-.8286.01809-.8286.01809-1.6572,0-.826.19687-.826.19687-1.65205,0-.82741-.09464-.82741-.09464-1.65483A6.4571,6.4571,0,0,0,59.47167,20.43a6.44746,6.44746,0,0,0-.628-1.62334,6.13013,6.13013,0,0,0-1.06519-1.37434,5.333,5.333,0,0,0-1.47316-.8713,4.66637,4.66637,0,0,0-1.63774-.37335c-.14581-.00646-.14507-.02837-.291-.02959a5.19669,5.19669,0,0,0-1.66289.24724,5.43669,5.43669,0,0,0-1.55416.71641,5.20613,5.20613,0,0,0-1.78625,2.90881,5.5638,5.5638,0,0,0-.31186,1.68729c0,.84822.00157.84822.00157,1.69643s-.12481.84821-.12481,1.69642c0,.84584.09955.84584.09955,1.69167,0,.84453-.01864.84453-.01864,1.68906,0,.84014.05513.84014.05513,1.68028,0,.84156.01056.84156.01056,1.68312,0,.84218-.08644.84218-.08644,1.68437,0,.84358.12866.84358.12866,1.68715,0,.8408-.14042.8408-.14042,1.6816s.04743.84077.04743,1.68155c0,.84263.07885.84263.07885,1.68527,0,.83879-.10954.83879-.10954,1.67758,0,.83752-.02521.83752-.02521,1.675,0,.83848.10928.83848.10928,1.677,0,.84137-.11387.84137-.11387,1.68275,0,.83875.06353.83875.06353,1.67751A1.58814,1.58814,0,0,0,50.53867,50.23925Z" style="fill:#29a300"/><path d="M67.07569,11.9877c-.77715-.00007-.77713-.25352-1.55427-.25358-.77585-.00007-.77586.124-1.5517.124-.77827-.00007-.77827-.00463-1.55653-.0047-.77558-.00007-.77558-.04765-1.55116-.04772-.7747-.00006-.77471.21336-1.54941.21329-.77588-.00007-.77586-.13918-1.55174-.13925-.77943-.00007-.77942-.05008-1.55886-.05014-.77771-.00007-.77771.06408-1.55542.064s-.77774.069-1.55547.06889c-.7803-.00007-.78029-.11051-1.5606-.11058-.779-.00007-.779.01027-1.558.0102-.77843-.00007-.77844.07045-1.55687.07038-.77713-.00007-.77711-.12646-1.55424-.12652-.78118-.00007-.78119.12122-1.56238.12115-.78239-.00007-.78239-.02805-1.56478-.02812-.78459-.00007-.78458-.12165-1.56917-.12171s-.78459.08745-1.56918.08737a5.1612,5.1612,0,0,1-1.59845-.2005,4.98812,4.98812,0,0,1-1.34368-.86638,5.02277,5.02277,0,0,1-1.21262-1.03558,4.99986,4.99986,0,0,1-.615-1.47258,4.908,4.908,0,0,1-.22247-1.56371c.0034-.14039-.06065-.14206-.05462-.28236a4.61659,4.61659,0,0,1,.387-1.56787,5.184,5.184,0,0,1,.78163-1.43573,5.75927,5.75927,0,0,1,1.33418-.94679,5.09755,5.09755,0,0,1,3.07229-.81762c.75761.00007.75763-.14327,1.51524-.1432.76065.00007.76066-.095,1.52131-.095.763.00007.763.10454,1.52605.10461.76039.00007.76039.02747,1.52079.02753.75953.00007.75952.024,1.51905.024.76069.00007.76069-.02287,1.52137-.0228.76417.00006.76418-.087,1.52835-.08694.76249.00007.76248.04919,1.525.04926s.76249.07,1.525.07011c.765.00007.765-.03294,1.53-.03287.76376.00007.76377-.105,1.52754-.10491.76319.00007.76317.21858,1.52636.21865.76191.00007.76191.02014,1.52382.02021.76589.00006.76589.00726,1.53178.00732.76707.00007.76709-.27909,1.53416-.279.76923.00007.76923.03859,1.53846.03865s.76921.16541,1.53844.16548a5.46276,5.46276,0,0,1,1.63868.06806,5.30909,5.30909,0,0,1,1.40214.854,5.11821,5.11821,0,0,1,1.06144,1.20012,5.19325,5.19325,0,0,1,.90624,1.34751,5.336,5.336,0,0,1,.05444,1.6211l.02987,0A5.15487,5.15487,0,0,1,72.018,8.327a5.20779,5.20779,0,0,1-.71608,1.4586A5.21787,5.21787,0,0,1,70.07,10.832a4.97666,4.97666,0,0,1-1.43625.67026A5.203,5.203,0,0,1,67.07569,11.9877Z" style="fill:#29a300"/></svg>