<svg xmlns="http://www.w3.org/2000/svg" xmlns:xlink="http://www.w3.org/1999/xlink" viewBox="0 0 160 160"><defs><linearGradient id="a7b46667-1a33-42c0-9f83-3db11501f51f" x1="10195.71584" y1="110.34794" x2="10222.12848" y2="110.34794" gradientTransform="matrix(-1, 0, 0, 1, 10289.9766, 0)" gradientUnits="userSpaceOnUse"><stop offset="0.09677" stop-color="#d5d7da"/><stop offset="0.82796" stop-color="#eceded"/></linearGradient></defs><g style="isolation:isolate"><g id="a08e47bd-4878-4938-9a6d-8f96a724ac1a" data-name="レイヤー 1"><circle cx="80" cy="80" r="80" style="fill:#eff6f9"/><path d="M93.77637,106.7605a1.898,1.898,0,0,1-1.89795-1.8982V69.75513a1.86522,1.86522,0,0,1,.0166-.25025l-.00049.00025a1.78615,1.78615,0,0,0-.45166-1.209c-.584-.63427-1.76367-.96924-3.41162-.96924H84.41309a1.89819,1.89819,0,0,1,0-3.79638h3.61816c2.84326,0,4.96143.77246,6.2959,2.2959a5.578,5.578,0,0,1,1.34717,4.01367V104.8623A1.898,1.898,0,0,1,93.77637,106.7605Z" style="fill:#a3a4a6"/><path d="M117.92364,78.87433s3.0224-.221,4.09858.71893c1.076.94129.76869,2.98925.76869,2.98925a1.0028,1.0028,0,0,1-1.486.60915,3.29818,3.29818,0,0,0-3.38124-2.02488C115.41341,81.4198,117.92364,78.87433,117.92364,78.87433Z" style="fill:#ffddc3"/><path d="M101.98732,67.85459a1.41414,1.41414,0,0,1,.36037.22639,4.46226,4.46226,0,0,1,.90606,2.15411c.10123,1.11532,1.2908,7.61571,1.2908,7.61571s3.26853-1.4849,13.40008.74291v3.65711l-15.59694-.89973s-3.95713-9.64688-.36037-13.49695" style="fill:#d58bb2"/><path d="M93.99365,123.40869c-9.7124,0-17.61377-8.31006-17.61377-18.52466,0-10.21557,7.90137-18.52636,17.61377-18.52636,9.71387,0,17.6167,8.31079,17.6167,18.52636C111.61035,115.09863,103.70752,123.40869,93.99365,123.40869Zm0-32.80151c-7.36914,0-13.36377,6.40454-13.36377,14.27685,0,7.87134,5.99463,14.27515,13.36377,14.27515,7.37061,0,13.3667-6.40381,13.3667-14.27515C107.36035,97.01172,101.36426,90.60718,93.99365,90.60718Z" style="fill:#afb0b3"/><path d="M81.25922,104.88413c0,7.4439,5.70174,13.48112,12.73443,13.48112,7.033,0,12.73623-6.03722,12.73623-13.48112,0-7.44486-5.70326-13.48214-12.73623-13.48214C86.961,91.402,81.25922,97.43927,81.25922,104.88413Z" style="fill:none;stroke:#cbced0;stroke-miterlimit:10;stroke-width:1.66555px"/><path d="M91.37635,104.88413a2.62258,2.62258,0,1,0,2.6173-2.77147A2.69815,2.69815,0,0,0,91.37635,104.88413Z" style="fill:#b9babe"/><path d="M119.25879,125.2417a7.61643,7.61643,0,1,1,7.17725-7.60449A7.40713,7.40713,0,0,1,119.25879,125.2417Zm0-10.8169a3.24578,3.24578,0,1,0,2.78662,3.21241A3.02439,3.02439,0,0,0,119.25879,114.4248Z" style="fill:#afb0b3"/><path d="M120.543,84.49219H93.99561a2.24146,2.24146,0,0,1,0-4.48291H120.543a2.24146,2.24146,0,0,1,0,4.48291Z" style="fill:#a3a4a6"/><path d="M119.26025,119.87964a2.24141,2.24141,0,0,1-2.24121-2.24146V82.25073a2.24121,2.24121,0,1,1,4.48242,0v35.38745A2.24141,2.24141,0,0,1,119.26025,119.87964Z" style="fill:#a3a4a6"/><path d="M94.9557,92.74907s19.16617-3.87174,21.74964-2.08546c3.19823,2.21158,7.64117,22.26362,7.64117,22.26362l-3.77978.761s-5.49271-12.39125-6.10073-14.62c-.60779-2.22962-.53393-1.60372-.53393-1.60372s-14.24754,1.67062-16.62969-.30416C94.43263,94.78119,94.9557,92.74907,94.9557,92.74907Z" style="fill:#dbb065"/><path d="M121.50237,117.63727a2.24937,2.24937,0,1,1-2.24392-2.43343A2.34523,2.34523,0,0,1,121.50237,117.63727Z" style="fill:#afb0b3"/><path d="M87.69571,98.37643c.0375.34391-.11661.64258-.34458.66746l-1.52851.16673c-.2282.02488-.44282-.23363-.48083-.57709L82.91724,76.417c-.03756-.34391.11633-.64172.34453-.66746l1.52833-.16672c.22792-.02488.44328.23318.48055.57748Z" style="fill:#a3a4a6"/><path d="M102.96475,96.92767c.03659.34346-1.15885.75557-2.67289.92094L90.14069,98.95623c-1.51431.16537-2.771.02076-2.80879-.3227L84.90689,76.417c-.03687-.34391,1.15909-.756,2.67289-.92144l10.15146-1.10848c1.5138-.16491,2.77055-.0203,2.80715.3231Z" style="fill:#afb0b3"/><path d="M83.65833,97.46455h29.16052a.46545.46545,0,0,1,.46545.46545v2.40991a.4659.4659,0,0,1-.4659.4659H83.65878a.4659.4659,0,0,1-.4659-.4659V97.93A.46545.46545,0,0,1,83.65833,97.46455Z" style="fill:#a3a4a6"/><path d="M96.1024,65.48534s4.11827,1.05158,5.88492,2.36925c.3943.29374.244,20.55368,7.13059,24.04,0,0-8.98417,3.76106-18.43345,1.193,0,0-4.95357-9.89679-4.4944-16.18619.204-2.80624-2.07448-6.128.10163-8.16429,2.70162-2.52738,9.942-3.45691,9.942-3.45691" style="fill:#da8cb3"/><path d="M93.44372,62.40571a5.19154,5.19154,0,0,1-3.38238-5.08121c.23357-3.81213.564-5.427,3.20094-6.50334,2.63653-1.076,5.488-.31366,6.44413.58285a2.99009,2.99009,0,0,1,2.17628,2.15264c.50775,1.83871.83487,4.61962-.56639,6.50334C99.91476,61.94366,93.44372,62.40571,93.44372,62.40571Z" style="fill:#a07f80"/><path d="M92.65743,60.06791s-.00181.06368-.00272.18047a28.88272,28.88272,0,0,0,.09513,5.69494l-1.67017.44825s5.03852,3.656,8.737.33735L98.39547,66.242a4.81973,4.81973,0,0,1-.08268-4.06583" style="fill:#ffddc3"/><path d="M98.39547,66.242a4.81973,4.81973,0,0,1-.08268-4.06583l-5.65536-2.10825s-.00181.06368-.00272.18047a35.812,35.812,0,0,0-.05242,4.27033A24.5615,24.5615,0,0,0,96.84893,68.081a5.27023,5.27023,0,0,0,2.96776-1.35206Z" style="fill:#ffddc3;opacity:0.5;mix-blend-mode:multiply"/><path d="M100.09573,53.41131a12.97588,12.97588,0,0,1,1.592,3.20371c.05078.8249.354,4.70778,0,5.53292-.35387.8249-1.16254,2.86336-3.23442,3.10626-2.07211.24268-5.3951-2.0509-5.44588-4.23442-.05017-2.18442-.796-8.14235,3.77819-8.14235C99.79255,52.87743,100.09573,53.41131,100.09573,53.41131Z" style="fill:#ffddc3"/><path d="M93.26228,58.43478s-.75823-1.16452-1.70614-.40086c-.94735.76484.41715,3.60474,1.70614,3.45855Z" style="fill:#ffddc3"/><path d="M99.70641,53.18922s-2.53484,2.26218-4.88152,1.52267c0,0,.03506,2.05181-.98077,2.82565a1.48187,1.48187,0,0,0-.35,1.91715s-1.89164-1.31236-.80573-4.57471C93.77405,51.61711,97.2197,51.03691,99.70641,53.18922Z" style="fill:#a07f80"/><path d="M99.70641,53.18922s1.92439,2.43637,2.00888,3.84464C101.71529,57.03386,102.74357,53.85351,99.70641,53.18922Z" style="fill:#a07f80"/><path d="M102.63628,82.84826a3.01613,3.01613,0,0,0-.0475-.38593,2.11528,2.11528,0,0,0-.27361-.73165l-.00453-.00673-.01057-.00322a12.38759,12.38759,0,0,0-1.432-.37778c-.48309-.10209-.96934-.18935-1.45622-.267-.97405-.15728-1.95306-.2843-2.93276-.39814-1.71717-.197-3.43751-.35336-5.16147-.48174a24.4917,24.4917,0,0,1-1.04253-8.209c-1.11164,0-2.224.27565-3.05768-.27474-1.00594-.49757-1.09943-1.69727-.89544-2.99333l-.02075.018c-2.198,2.03625.10366,5.358-.10326,8.16429-.46274,6.2894,4.54037,16.18619,4.54037,16.18619a28.35053,28.35053,0,0,0,9.68483.78492,28.074,28.074,0,0,1-9.02376-13.4102c1.6885.09717,3.37716.22051,5.06142.38277.98009.09574,1.95911.20467,2.93361.3443.4871.06826.97291.14546,1.456.23906a12.54909,12.54909,0,0,1,1.41981.34657,2.08355,2.08355,0,0,1,.27344.6959,2.96372,2.96372,0,0,1,.05423.3796,3.16422,3.16422,0,0,1,.009.38412,3.36494,3.36494,0,0,1-.03189.38412c-.01125.12787-.0431.25257-.06572.37959-.02692.12516-.06391.2485-.0958.37366l-.12335.366.13059-.36376c.0341-.1238.07386-.2476.10372-.37281.02483-.127.05921-.25121.07346-.38044a3.39977,3.39977,0,0,0,.03948-.38508A3.177,3.177,0,0,0,102.63628,82.84826Z" style="fill:#da8cb3;opacity:0.30000000000000004;mix-blend-mode:multiply"/><polygon points="45.236 120.228 44.438 123.246 41.475 121.571 42.131 119.092 45.236 120.228" style="fill:#ffddc3"/><path d="M41.48,121.4408a3.16578,3.16578,0,0,1,1.4042.634,1.58186,1.58186,0,0,0,1.72877.50928s1.87756,2.29471,3.15728,2.82247c1.27977.52743,2.734,1.29019,2.24794,2.77056-.48621,1.48044-5.29183-.028-6.43622-.70857-1.14489-.68143-3.82841-.72888-3.96284-1.474A5.7449,5.7449,0,0,1,41.48,121.4408Z" style="fill:#d1ab61"/><polygon points="62.348 119.875 62.348 122.996 59.056 122.135 59.056 119.571 62.348 119.875" style="fill:#ffddc3"/><path d="M64.26464,51.57622a77.201,77.201,0,0,0,7.23788,7.0142C74.391,58.88235,82.194,64.84209,82.194,64.84209l-.343,1.74856s-9.39814-3.67974-11.97749-5.04395c-2.57912-1.3654-9.29285-6.85313-9.29285-6.85313Z" style="fill:#ffddc3"/><path d="M64.74247,72.56011a72.12267,72.12267,0,0,1,0,13.17159c-.69748,6.38294-1.48625,13.06952-1.48625,13.06952L62.627,120.57048s-3.973.40488-3.87174,0c.101-.40583-1.85686-15.58925-1.75155-18.07143a38.07472,38.07472,0,0,1,.51583-4.70462s-3.606-23.00561-1.88412-24.72776C57.35818,71.34452,64.74247,72.56011,64.74247,72.56011Z" style="fill:#a2847f"/><path d="M59.0555,70.331S54.29484,94.957,53.77567,97.6747c-.519,2.71853-6.73024,17.98191-8.32678,23.49453l-3.82315-1.451A156.14345,156.14345,0,0,1,45.5784,100.757c.45278-1.50616,1.90765-3.85822,2.70751-4.31054,0,0-1.89114-14.52461-1.30665-19.039a17.50786,17.50786,0,0,1,3.34985-7.91257Z" style="fill:#a2847f"/><path d="M61.97084,37.31419s1.41579-5.28888-.94011-7.75512C58.67545,27.09363,52.1405,26.8656,50.24055,30.969c-1.89956,4.10338-.03411,6.94441-3.57132,12.76587-2.43163,4.0021,3.64721,7.295,7.52285,6.307,3.87541-.98761,8.25009,1.69749,7.21887-5.1924A16.99811,16.99811,0,0,1,61.97084,37.31419Z" style="fill:#9c918f"/><path d="M59.83025,45.92646a6.33778,6.33778,0,0,1,2.56243,1.75993c.84188,1.13963,5.24913,6.38265,5.24913,6.38265s-1.07545,3.0401-5.24913,2.65988c-4.17317-.38005.31.03291.31.03291S56.55788,49.06937,59.83025,45.92646Z" style="fill:#79d4ce"/><path d="M55.20181,44.25182s-7.76774.45707-7.99616,6.16825c-.22865,5.71186,5.52794,9.80189,3.99763,14.16441-1.72237,4.91042-3.39436,9.69817-3.39436,9.69817s10.55967,4.91387,17.756-.91273c0,0-5.00532-11.20327-3.74889-13.37321,1.25652-2.17069,2.524-2.72238,2.06695-5.23607-.45707-2.51266-4.05276-8.83418-4.05276-8.83418Z" style="fill:#8ad7d4"/><path d="M55.63541,73.06667A3.54644,3.54644,0,0,1,53.812,71.24239c-.60756-2.43163,2.43157-3.039,2.12748-4.25495,0-2.7355-.60757-6.0793,2.73594-6.68686a19.50662,19.50662,0,0,0,3.76943-1.28018c1.00611-1.43428,1.81795-2.17062,1.43813-4.25976-.01086-.06073-.02573-.12583-.04-.19155-4.35121,1.28221-9.11753,2.21559-12.76632-.65185-1.9788-1.43931-2.78611-3.72967-3.05317-6.17956a5.26334,5.26334,0,0,0-.81789,2.68239c-.22865,5.71186,5.52794,9.80189,3.99763,14.16441-1.72237,4.91042-3.39436,9.69817-3.39436,9.69817s9.78312,4.5483,16.93355-.30681C61.707,73.07029,58.67161,74.2809,55.63541,73.06667Z" style="fill:#8ad7d4;opacity:0.30000000000000004;mix-blend-mode:multiply"/><path d="M52.55827,37.76969s.92478,5.00622-.60779,7.1717c0,0,4.23623,2.57414,5.69557.195,0,0-1.40245-2.50328-.60434-4.63076C57.83969,38.37793,52.55827,37.76969,52.55827,37.76969Z" style="fill:#ffddc3"/><path d="M57.04171,40.50563c.798-2.1277-4.48344-2.73594-4.48344-2.73594a19.532,19.532,0,0,1,.26569,3.7507,7.14481,7.14481,0,0,0,4.55821,3.05769A5.79117,5.79117,0,0,1,57.04171,40.50563Z" style="fill:#ffddc3;opacity:0.5;mix-blend-mode:multiply"/><path d="M60.206,30.81674a13.773,13.773,0,0,1,1.59587,3.34351c.05056.86127.35425,4.91427,0,5.77537-.35449.8615-1.1652,2.98874-3.24234,3.242-2.077.25331-5.40793-2.14014-5.45855-4.41992-.05084-2.27977-.79782-8.49819,3.78679-8.49819C59.9019,30.25956,60.206,30.81674,60.206,30.81674Z" style="fill:#ffddc3"/><path d="M53.35654,36.06043s-.76032-1.216-1.71044-.41822c-.94944.79782.41823,3.76106,1.71044,3.60921Z" style="fill:#ffddc3"/><path d="M58.85756,30.36956a4.23463,4.23463,0,0,0,2.02178,2.09071c.98733.48439.94033,1.96635.96816,2.42094C61.8475,34.88121,63.23456,29.72766,58.85756,30.36956Z" style="fill:#9c918f"/><path d="M58.95382,30.25956A12.90443,12.90443,0,0,1,55.256,33.22189c-1.88869.83826-1.8995,3.67408-1.8995,3.67408s-1.74794-4.36908.45549-6.3831C56.01591,28.49918,58.95382,30.25956,58.95382,30.25956Z" style="fill:#9c918f"/><path d="M55.59673,53.65692a96.21125,96.21125,0,0,0,6.091,8.32022c2.88491.8434,10.31818,8.98779,10.31818,8.98779l-.68211,2.20252S61.544,67.16864,59.177,65.29125c-2.36721-1.87762-8.16311-8.73431-8.16311-8.73431Z" style="fill:#ffddc3"/><path d="M50.90665,47.05846c1.23385.1717,6.14766,8.32808,6.14766,8.32808s-3.92076,1.94361-4.06945,4.58189c0,0-6.81292-7.98072-5.34877-11.43859A2.8955,2.8955,0,0,1,50.90665,47.05846Z" style="fill:#8ad7d4"/><g style="opacity:0.30000000000000004;mix-blend-mode:multiply"><path d="M57.05431,55.38654c-.47477-.64507-.9336-1.29743-1.39588-1.94673-.4638-.648-.911-1.30675-1.39-1.94209-.45662-.65134-.93349-1.28781-1.41941-1.91636-.48581-.62911-.98428-1.24731-1.519-1.84368a13.15007,13.15007,0,0,1,1.72378,1.67509c.53365.59994,1.01228,1.24342,1.4939,1.88322.45865.65649.91256,1.3158,1.331,1.998C56.29648,53.97623,56.70079,54.6671,57.05431,55.38654Z" style="fill:#8ad7d4"/></g><path d="M81.32666,112.02441A1.85994,1.85994,0,0,1,80.605,108.45l12.46436-5.241a1.85969,1.85969,0,1,1,1.4414,3.42872l-12.46435,5.241A1.85436,1.85436,0,0,1,81.32666,112.02441Z" style="fill:#a7a5a7"/><path d="M81.32568,112.27881a1.87924,1.87924,0,0,1-1.87939-1.8794V75.97827a1.90281,1.90281,0,0,1,.01709-.25293v.00025a1.69368,1.69368,0,0,0-.43311-1.13892,4.81744,4.81744,0,0,0-3.44922-.96973H71.9624a1.8794,1.8794,0,0,1,0-3.75879h3.61865c2.86084,0,4.9834.77,6.30957,2.28858a5.44084,5.44084,0,0,1,1.31446,3.9165v34.33618A1.87924,1.87924,0,0,1,81.32568,112.27881Z" style="fill:#a3a4a6"/><path d="M59.02655,122.00839a3.17213,3.17213,0,0,1,1.51973.25348,1.5839,1.5839,0,0,0,1.80212.05106,12.41523,12.41523,0,0,0,3.77373,1.92009c1.3719.183,2.973.549,2.88123,2.104-.0915,1.55491-5.12284,1.32672-6.40323.96069-1.28114-.36557-3.88786.27429-4.208-.41121A5.74444,5.74444,0,0,1,59.02655,122.00839Z" style="fill:#d1ab61"/><path d="M90.77648,72.12764s.54021-5.82825-3.173-4.29839c-1.64121.6756-3.876,3.70507-4.98292,6.72956-.80749,2.20563-3.7321,8.0707-2.14535,9.63014,1.58636,1.55949,21.51777.743,21.51777.743a4.56,4.56,0,0,0,.13737-3.17278s-14.08331-1.92772-15.551-1.37728Z" style="fill:#da8cb3"/><path d="M106.19189,88.23169H79.645a2.24146,2.24146,0,0,1,0-4.48291h26.54687a2.24146,2.24146,0,0,1,0,4.48291Z" style="fill:#a3a4a6"/><path d="M102.53816,82.25082a33.66811,33.66811,0,0,1,4.33814.47c.82536.27474,1.961,2.51069,1.9266,3.19981-.03433.68821-.24081,2.09767-1.72034,2.09767a1.36935,1.36935,0,0,1-1.51335-1.28379.99026.99026,0,0,0,.7567-.986c0-.826-1.41053-.96391-1.41053-.96391l-2.62527-.04655A4.74641,4.74641,0,0,0,102.53816,82.25082Z" style="fill:#ffddc3"/><path d="M103.47883,82.31139c-.55-.03891-.94067-.06057-.94067-.06057a4.74641,4.74641,0,0,1-.24805,2.48716l1.25625.02217A4.16109,4.16109,0,0,0,103.47883,82.31139Z" style="fill:#ffddc3;opacity:0.5;mix-blend-mode:multiply"/><path d="M113.35059,120.2644a1.85226,1.85226,0,0,1-1.21387-.45166c-13.96094-12.04126-26.30029-9.457-26.81787-9.34057a1.85977,1.85977,0,0,1-.832-3.62525c.58935-.13671,14.61377-3.189,30.07959,10.14942a1.85995,1.85995,0,0,1-1.21582,3.26806Z" style="fill:#a7a5a7"/><path d="M119.68213,119.95728a1.85266,1.85266,0,0,1-1.29688-.52686c-11.92968-11.60767-25.40283-12.27759-25.53711-12.283a1.85969,1.85969,0,0,1,.13819-3.7168c.606.022,14.99121.68335,27.99267,13.334a1.85962,1.85962,0,0,1-1.29687,3.19263Z" style="fill:#a7a5a7"/><polygon points="122.991 117.381 130.117 119.672 131.203 119.533 131.203 120.022 114.815 122.126 108.161 119.366 122.991 117.381" style="fill:#979a9c"/><polygon points="122.991 116.892 131.203 119.533 114.815 121.636 108.161 118.877 122.991 116.892" style="fill:#a3a4a6"/><path d="M81.05371,128.87207c-9.7124,0-17.61377-8.31006-17.61377-18.52466,0-10.21509,7.90137-18.52563,17.61377-18.52563,9.71338,0,17.61621,8.31054,17.61621,18.52563C98.66992,120.562,90.76709,128.87207,81.05371,128.87207Zm0-32.80078c-7.36914,0-13.36377,6.4043-13.36377,14.27612,0,7.87134,5.99463,14.27515,13.36377,14.27515,7.37012,0,13.36621-6.40381,13.36621-14.27515C94.41992,102.47559,88.42383,96.07129,81.05371,96.07129Z" style="fill:#b9babe"/><path d="M81.05365,124.30044c-7.28148,0-13.20553-6.25914-13.20553-13.953,0-7.69313,5.92405-13.952,13.20553-13.952,7.28238,0,13.20711,6.25891,13.20711,13.952C94.26076,118.0413,88.336,124.30044,81.05365,124.30044Zm0-26.96326c-6.76231,0-12.26378,5.83634-12.26378,13.0103,0,7.17437,5.50147,13.01121,12.26378,13.01121,6.76315,0,12.26536-5.83684,12.26536-13.01121C93.319,103.17352,87.8168,97.33718,81.05365,97.33718Z" style="fill:url(#a7b46667-1a33-42c0-9f83-3db11501f51f)"/><path d="M78.43629,110.34743a2.62242,2.62242,0,1,0,2.61736-2.77056A2.69822,2.69822,0,0,0,78.43629,110.34743Z" style="fill:#b9babe"/><path d="M90.572,92.74907s19.16611-3.87174,21.74959-2.08546c3.19806,2.21158,4.27011,23.23653,4.27011,23.23653l-3.64541.35929s-3.28452-10.82095-3.89231-13.04966a6.83963,6.83963,0,0,1-.12267-3.67742s-13.631,1.60282-16.01239-.372C90.04867,94.78119,90.572,92.74907,90.572,92.74907Z" style="fill:#e3ba68"/><path d="M104.90967,123.6189a2.24142,2.24142,0,0,1-2.24121-2.24146V85.99023a2.24121,2.24121,0,1,1,4.48242,0v35.38721A2.24142,2.24142,0,0,1,104.90967,123.6189Z" style="fill:#a3a4a6"/><path d="M107.15178,121.37707a2.24926,2.24926,0,1,1-2.24347-2.43344A2.34491,2.34491,0,0,1,107.15178,121.37707Z" style="fill:#b9babe"/><path d="M104.90869,128.98193a7.61685,7.61685,0,1,1,7.17676-7.605A7.40781,7.40781,0,0,1,104.90869,128.98193Zm0-10.81762a3.24628,3.24628,0,1,0,2.78613,3.21264A3.025,3.025,0,0,0,104.90869,118.16431Z" style="fill:#b9babe"/><polygon points="124.135 112.927 124.538 115.158 121.093 114.592 120.753 113.65 124.135 112.927" style="fill:#ffddc3"/><path d="M121.08008,114.51381a3.17515,3.17515,0,0,1,1.54111.02941,1.58339,1.58339,0,0,0,1.79019-.21151,12.43238,12.43238,0,0,0,4.01256,1.35205c1.38434-.01945,3.02131.11028,3.15733,1.66248.13556,1.55181-4.87615,2.05656-6.19631,1.88118-1.32015-.17577-3.806.83645-4.22265.20428A5.74268,5.74268,0,0,1,121.08008,114.51381Z" style="fill:#f5c558"/><polygon points="116.434 113.916 116.957 116.122 113.486 115.744 113.094 114.259 116.434 113.916" style="fill:#ffddc3"/><path d="M113.43886,115.62183a3.1799,3.1799,0,0,1,1.54049.03213,1.58477,1.58477,0,0,0,1.79058-.2088s2.62708,1.37331,4.011,1.35657c1.38435-.01674,3.02132.1143,3.1544,1.66746.13375,1.55181-4.87813,2.04932-6.19812,1.87174-1.31993-.17674-3.80737.83237-4.22282.19924A5.74273,5.74273,0,0,1,113.43886,115.62183Z" style="fill:#fed152"/><path d="M71.57954,70.504a4.63516,4.63516,0,0,1,2.11442-.60146,2.18617,2.18617,0,0,1,1.94989.78221l-1.66158.11706a1.21822,1.21822,0,0,0,.76055,1.86224l1.21915.13188a1.665,1.665,0,0,1-1.92727,1.447,5.41009,5.41009,0,0,1-3.14179-1.34034S69.51264,70.45339,71.57954,70.504Z" style="fill:#ffddc3"/><path d="M81.851,66.59065a3.65064,3.65064,0,0,0,4.65762-.08992l-1.60213-.15321s-.43406-1.86178.93338-1.86178l.81337-.11566a2.27037,2.27037,0,0,0-2.24025-.95781,5.611,5.611,0,0,0-2.562,1.17131Z" style="fill:#ffddc3"/></g></g></svg>