<svg xmlns="http://www.w3.org/2000/svg" viewBox="0 0 160 160"><g style="isolation:isolate"><g id="b763db92-d074-488f-8217-5744d295505e" data-name="レイヤー 1"><circle cx="80" cy="80" r="80" style="fill:#eff6f9"/><path d="M102.78343,82.76556c0,3.3702-9.92819,6.10224-22.17507,6.10224-12.247,0-22.17518-2.732-22.17518-6.10224,0-3.37,9.9282-6.102,22.17518-6.102C92.85524,76.66352,102.78343,79.39555,102.78343,82.76556Z" style="fill:#fde14d;opacity:0.68"/><path d="M80.60836,78.408c11.16793,0,20.38133,2.27405,21.92291,5.22986a1.9051,1.9051,0,0,0,.25216-.87209c0-3.3702-9.92819-6.10233-22.17507-6.10233-12.247,0-22.17508,2.73213-22.17508,6.10233a1.90512,1.90512,0,0,0,.25217.87209C60.22712,80.682,69.44042,78.408,80.60836,78.408Z" style="fill:#b58e7a;opacity:0.68"/><path d="M102.78343,67.97981c0,3.3701-9.92819,6.10214-22.17507,6.10214-12.247,0-22.17518-2.732-22.17518-6.10214,0-3.37025,9.9282-6.10228,22.17518-6.10228C92.85524,61.87753,102.78343,64.60956,102.78343,67.97981Z" style="fill:#fde14d;opacity:0.68"/><path d="M80.60836,63.622c11.16793,0,20.38133,2.27415,21.92291,5.22982a1.90477,1.90477,0,0,0,.25216-.872c0-3.37025-9.92819-6.10228-22.17507-6.10228-12.247,0-22.17508,2.732-22.17508,6.10228a1.90479,1.90479,0,0,0,.25217.872C60.22712,65.89618,69.44042,63.622,80.60836,63.622Z" style="fill:#b58e7a;opacity:0.68"/><path d="M108.64042,106.78362l.05109-4.69216h-4.98519c-5.06883-2.39741-13.52127-3.969-23.098-3.969-9.57679,0-18.02909,1.57162-23.09807,3.969h-4.985v5.23048c0,5.08091,12.57317,9.1997,28.08306,9.1997s28.08315-4.11879,28.08315-9.1997a3.09053,3.09053,0,0,0-.0518-.53832Z" style="fill:#fdd764"/><ellipse cx="80.60838" cy="102.48013" rx="28.08308" ry="9.19968" style="fill:#fde14d"/><path d="M102.78343,102.48011c0,3.3702-9.92819,6.10223-22.17507,6.10223-12.247,0-22.17518-2.732-22.17518-6.10223,0-3.37,9.9282-6.10214,22.17518-6.10214C92.85524,96.378,102.78343,99.1101,102.78343,102.48011Z" style="fill:#fde14d;opacity:0.68"/><path d="M80.60836,98.12243c11.16793,0,20.38133,2.27414,21.92291,5.23a1.905,1.905,0,0,0,.25216-.87227c0-3.3702-9.92819-6.10214-22.17507-6.10214-12.247,0-22.17508,2.73194-22.17508,6.10214a1.905,1.905,0,0,0,.25217.87227C60.22712,100.39657,69.44042,98.12243,80.60836,98.12243Z" style="fill:#b58e7a;opacity:0.68"/><path d="M108.69151,92.62286c0,5.08082-12.57322,9.1997-28.08315,9.1997S52.5253,97.70368,52.5253,92.62286c0-5.08077,12.57317-9.19956,28.08306-9.19956S108.69151,87.54209,108.69151,92.62286Z" style="fill:#b58e7a;opacity:0.68"/><ellipse cx="80.60833" cy="92.62287" rx="22.17515" ry="6.10227" style="fill:#fde14d;opacity:0.68"/><path d="M80.60836,88.26508c11.16793,0,20.38133,2.27419,21.92291,5.23a1.905,1.905,0,0,0,.25216-.87218c0-3.3702-9.92819-6.10224-22.17507-6.10224-12.247,0-22.17508,2.732-22.17508,6.10224a1.905,1.905,0,0,0,.25217.87218C60.22712,90.53927,69.44042,88.26508,80.60836,88.26508Z" style="fill:#b58e7a;opacity:0.68"/><path d="M107.2277,101.85493l.0509-4.69217h-4.98519c-5.06883-2.39745-13.52117-3.96894-23.09787-3.96894-9.57688,0-18.02918,1.57149-23.09816,3.96894h-4.985v5.23067c0,5.08082,12.57317,9.19961,28.08315,9.19961,15.50984,0,28.08306-4.11879,28.08306-9.19961a3.09991,3.09991,0,0,0-.05171-.5385Z" style="fill:#fcd42b"/><path d="M107.2786,97.55151c0,5.08091-12.57322,9.1997-28.08315,9.1997-15.5098,0-28.08306-4.11879-28.08306-9.1997,0-5.08073,12.57326-9.19951,28.08306-9.19951C94.70538,88.352,107.2786,92.47078,107.2786,97.55151Z" style="fill:#fde14d"/><ellipse cx="79.19545" cy="97.55151" rx="22.17508" ry="6.10223" style="fill:#fcd42b"/><path d="M79.19554,93.19382c11.16789,0,20.38124,2.27415,21.92282,5.23a1.905,1.905,0,0,0,.25216-.87227c0-3.3702-9.928-6.10224-22.175-6.10224-12.24707,0-22.17517,2.732-22.17517,6.10224a1.90407,1.90407,0,0,0,.25226.87227C58.81421,95.468,68.0276,93.19382,79.19554,93.19382Z" style="fill:#ffb92e"/><path d="M108.64042,91.99768l.05109-4.69217h-4.98519c-5.06883-2.39745-13.52127-3.969-23.098-3.969-9.57679,0-18.02909,1.57158-23.09807,3.969h-4.985v5.23067c0,5.08073,12.57317,9.1997,28.08306,9.1997s28.08315-4.119,28.08315-9.1997a3.09043,3.09043,0,0,0-.0518-.5385Z" style="fill:#fccc00"/><ellipse cx="80.60838" cy="87.69426" rx="28.08308" ry="9.19961" style="fill:#fde14d"/><path d="M102.78343,87.69426c0,3.3702-9.92819,6.10214-22.17507,6.10214-12.247,0-22.17518-2.73194-22.17518-6.10214,0-3.37011,9.9282-6.10224,22.17518-6.10224C92.85524,81.592,102.78343,84.32415,102.78343,87.69426Z" style="fill:#fccc00"/><path d="M80.60836,83.33648c11.16793,0,20.38133,2.27415,21.92291,5.23a1.905,1.905,0,0,0,.25216-.87218c0-3.3702-9.92819-6.10224-22.17507-6.10224-12.247,0-22.17508,2.732-22.17508,6.10224a1.905,1.905,0,0,0,.25217.87218C60.22712,85.61063,69.44042,83.33648,80.60836,83.33648Z" style="fill:#ffb92e"/><path d="M112.653,82.14034l.051-4.69217h-4.98509c-5.06893-2.39741-13.52127-3.96879-23.09806-3.96879s-18.02914,1.57138-23.09806,3.96879h-4.985v5.23067c0,5.08082,12.57317,9.1997,28.08306,9.1997s28.08315-4.11888,28.08315-9.1997a3.09364,3.09364,0,0,0-.05171-.5385Z" style="fill:#fdd764"/><ellipse cx="84.62082" cy="77.83701" rx="28.08308" ry="9.19961" style="fill:#fde14d"/><ellipse cx="84.6208" cy="77.83701" rx="22.17508" ry="6.10214" style="fill:#feda7f"/><path d="M84.6208,73.47938c11.16793,0,20.38133,2.274,21.92291,5.22981a1.90387,1.90387,0,0,0,.25216-.87218c0-3.3702-9.92809-6.10233-22.17507-6.10233s-22.175,2.73213-22.175,6.10233a1.905,1.905,0,0,0,.25217.87218C64.23956,75.75338,73.453,73.47938,84.6208,73.47938Z" style="fill:#ffb92e"/><path d="M108.64042,77.21174l.05109-4.69217h-4.98519c-5.06883-2.39746-13.52127-3.96884-23.098-3.96884-9.57679,0-18.02909,1.57138-23.09807,3.96884h-4.985v5.23067c0,5.08091,12.57317,9.1997,28.08306,9.1997s28.08315-4.11879,28.08315-9.1997a3.09294,3.09294,0,0,0-.0518-.5385Z" style="fill:#fcd42b"/><ellipse cx="80.60838" cy="72.90839" rx="28.08308" ry="9.19963" style="fill:#fde14d"/><ellipse cx="80.60833" cy="72.90841" rx="22.17515" ry="6.10223" style="fill:#fccc00"/><path d="M80.60836,68.55073c11.16793,0,20.38133,2.27395,21.92291,5.22977a1.90514,1.90514,0,0,0,.25216-.87209c0-3.3702-9.92819-6.10223-22.17507-6.10223-12.247,0-22.17508,2.732-22.17508,6.10223a1.90515,1.90515,0,0,0,.25217.87209C60.22712,70.82468,69.44042,68.55073,80.60836,68.55073Z" style="fill:#fccc00;opacity:0.5;mix-blend-mode:multiply"/><path d="M103.41117,67.35449l.051-4.69208H98.47707c-5.06892-2.3974-13.52127-3.969-23.09806-3.969-9.57669,0-18.02909,1.57163-23.098,3.969h-4.985V67.893c0,5.08082,12.57317,9.19961,28.083,9.19961,15.50989,0,28.08315-4.11879,28.08315-9.19961a3.09148,3.09148,0,0,0-.0517-.5385Z" style="fill:#fcd42b"/><ellipse cx="75.37906" cy="63.05114" rx="28.08301" ry="9.19963" style="fill:#fde14d"/><path d="M97.55418,63.05116c0,3.37-9.92819,6.10214-22.17517,6.10214-12.24688,0-22.17507-2.73213-22.17507-6.10214,0-3.3702,9.92819-6.10223,22.17507-6.10223C87.626,56.94893,97.55418,59.681,97.55418,63.05116Z" style="fill:#fde14d;opacity:0.68"/><path d="M75.379,58.69338c11.168,0,20.38143,2.27415,21.923,5.22987a1.90462,1.90462,0,0,0,.25216-.87209c0-3.3702-9.92819-6.10223-22.17517-6.10223-12.24688,0-22.175,2.732-22.175,6.10223a1.90464,1.90464,0,0,0,.25217.87209C54.99777,60.96753,64.21117,58.69338,75.379,58.69338Z" style="fill:#b58e7a;opacity:0.68"/><path d="M108.64042,61.82331l.05109-4.69217h-4.98519c-5.06883-2.39745-13.52127-3.969-23.098-3.969-9.57679,0-18.02909,1.57158-23.09807,3.969h-4.985v5.23058c0,5.08077,12.57317,9.1997,28.08306,9.1997s28.08315-4.11893,28.08315-9.1997a3.09024,3.09024,0,0,0-.0518-.53841Z" style="fill:#fdd764"/><path d="M108.69151,57.51989c0,5.08077-12.57322,9.19956-28.08315,9.19956S52.5253,62.60066,52.5253,57.51989c0-5.08091,12.57317-9.1997,28.08306-9.1997S108.69151,52.439,108.69151,57.51989Z" style="fill:#b58e7a;opacity:0.68"/><path d="M102.78343,57.51989c0,3.37-9.92819,6.10214-22.17507,6.10214-12.247,0-22.17518-2.73218-22.17518-6.10214,0-3.37025,9.9282-6.10228,22.17518-6.10228C92.85524,51.41761,102.78343,54.14964,102.78343,57.51989Z" style="fill:#fde14d;opacity:0.68"/><path d="M80.60836,53.16211c11.16793,0,20.38133,2.27415,21.92291,5.23a1.90514,1.90514,0,0,0,.25216-.87218c0-3.37025-9.92819-6.10228-22.17507-6.10228-12.247,0-22.17508,2.732-22.17508,6.10228a1.90516,1.90516,0,0,0,.25217.87218C60.22712,55.43626,69.44042,53.16211,80.60836,53.16211Z" style="fill:#b58e7a;opacity:0.68"/><path d="M108.64042,56.98139l.05109-4.69217h-4.98519c-5.06883-2.39745-13.52127-3.969-23.098-3.969-9.57679,0-18.02909,1.57158-23.09807,3.969h-4.985v5.23067c0,5.08068,12.57317,9.19947,28.08306,9.19947s28.08315-4.11879,28.08315-9.19947a3.09043,3.09043,0,0,0-.0518-.5385Z" style="fill:#fccc00"/><path d="M108.69151,52.67783c0,5.08091-12.57322,9.1997-28.08315,9.1997S52.5253,57.75874,52.5253,52.67783c0-5.08068,12.57317-9.19947,28.08306-9.19947S108.69151,47.59715,108.69151,52.67783Z" style="fill:#fde14d"/><path d="M102.78343,52.67783c0,3.37024-9.92819,6.10228-22.17507,6.10228-12.247,0-22.17518-2.732-22.17518-6.10228,0-3.37,9.9282-6.10214,22.17518-6.10214C92.85524,46.57569,102.78343,49.30786,102.78343,52.67783Z" style="fill:#fccc00"/><path d="M80.60836,48.32019c11.16793,0,20.38133,2.27415,21.92291,5.23a1.9052,1.9052,0,0,0,.25216-.87232c0-3.3702-9.92819-6.10214-22.17507-6.10214-12.247,0-22.17508,2.73194-22.17508,6.10214a1.90522,1.90522,0,0,0,.25217.87232C60.22712,50.59434,69.44042,48.32019,80.60836,48.32019Z" style="fill:#fccc00;opacity:0.5;mix-blend-mode:multiply"/></g></g></svg>