<svg xmlns="http://www.w3.org/2000/svg" viewBox="0 0 160 160"><g style="isolation:isolate"><g id="f928744a-f2e5-4f0f-b318-e39a73d4619b" data-name="レイヤー 1"><circle cx="80" cy="80" r="80" style="fill:#eff6f9"/><path d="M74.73034,39.7151s-2.092,6.63489-2.50223,7.5501c-.41033.9152-8.1307,1.94476-9.24956,3.39373,2.12588,4.84279.67123,10.37184,13.53863,10.105,8.95125-.03822,9.548-2.66925,9.58534-3.2031A27.26438,27.26438,0,0,0,84.536,52.0317c-.44764-.76263-3.18909-2.22529-4.58756-2.47861-1.9643-.3559-1.442-1.09307-.91989-2.08449C78.54374,45.63819,74.73034,39.7151,74.73034,39.7151Z" style="fill:#ffd1c8"/><path d="M78.58222,48.84855c-.12362-.36975.16-.83641.44637-1.38-.48485-1.83041-4.29834-7.7535-4.29834-7.7535s-.93649,2.97014-1.67916,5.21021C74.20074,47.19375,76.04568,49.12608,78.58222,48.84855Z" style="fill:#ffdcc8;opacity:0.4;mix-blend-mode:multiply"/><ellipse cx="76.01991" cy="110.6803" rx="29.24064" ry="24.11288" style="fill:#b8d6b0"/><ellipse cx="76.01991" cy="110.6803" rx="29.24064" ry="24.11288" style="fill:#b8d6b0"/><path d="M80.941,129.76192c-16.14912,0-29.24062-10.79577-29.24062-24.11288A20.95265,20.95265,0,0,1,55.902,93.19088c-5.61536,4.39391-9.12277,10.602-9.12277,17.48942,0,13.3172,13.09158,24.11288,29.24062,24.11288,10.62057,0,19.91737-4.66985,25.039-11.65472A32.67964,32.67964,0,0,1,80.941,129.76192Z" style="fill:#b8d6b0;opacity:0.30000000000000004;mix-blend-mode:multiply"/><path d="M82.71763,121.92779a15.64964,15.64964,0,0,1,0,3.06562,4.62147,4.62147,0,0,0-.168,1.40382,2.40551,2.40551,0,0,0-.25215,2.06262,27.47874,27.47874,0,0,1,.78449,4.61259c.05609,1.11745.67257,2.00544,2.69021,2.0915,2.01754.08588,4.56751.54428,4.42745-.88808-.14014-1.43253-1.317-.11477-2.24173-3.06563a57.73474,57.73474,0,0,1-1.51324-6.47473,22.40518,22.40518,0,0,0-1.345-3.15135Z" style="fill:#ffd1c8"/><path d="M105.2606,118.68078a8.72642,8.72642,0,0,1-1.14291,3.421c-.95936,1.48562-1.75254,2.98392.39171,3.73395a7.88876,7.88876,0,0,1,4.11939,4.03859c.395,1.03857,4.34517.86546,4.85306.69235.50781-.173.50781-1.18271-1.69295-1.75963-1.298-.34622-3.842-6.29978-3.842-7.22292a14.80179,14.80179,0,0,1,.46374-2.68535Z" style="fill:#ffd1c8"/><path d="M87.03492,81.622s24.24285,3.46993,26.92819,7.20688-4.401,28.75143-5.22156,31.2681c-2.68535.76272-4.028-.61005-4.028-.61005.44754-6.48248-.373-18.53216,2.16319-23.413-6.48965-.305-22.90028-2.05911-26.779-4.49949-3.87884-2.44047-7.14629-5.10963-6.92994-9.95242C77.99628,82.5244,87.03492,81.622,87.03492,81.622Z" style="fill:#f58b88"/><path d="M105.33613,93.75728C97.70265,89.817,81.4093,91.68365,78.18325,82.018a30.81525,30.81525,0,0,1-5.01548-.396c-.21635,4.84279,3.0511,7.51195,6.92994,9.95242,3.87876,2.44038,20.28939,4.19451,26.779,4.49949a8.72422,8.72422,0,0,0-.38243.86037c.226-.2524.42926-.52934.632-.73659C107.7231,94.97739,106.1193,94.26559,105.33613,93.75728Z" style="fill:#f58b88;opacity:0.30000000000000004;mix-blend-mode:multiply"/><path d="M87.37062,33.80469s4.13992,2.74545-1.11895,10.3337S77.5616,49.01924,75.09992,42.27C72.63834,35.52059,83.11878,29.80082,87.37062,33.80469Z" style="fill:#ffd1c8"/><path d="M88.88629,38.00972a13.0306,13.0306,0,0,1-12.07072,1.4766c.48486-1.67784-1.62241-2.0289-2.0793.52984,0,.46407.1176,1.39247.1176,1.39247-.61181.11768-3.48363-5.35419-.5745-10.27319s10.14482-3.50817,12.23339-1.90662c2.08865,1.60155,5.69481,5.34317,1.92506,10.7729A19.98429,19.98429,0,0,0,88.88629,38.00972Z" style="fill:#524f50"/><path d="M68.90866,58.78637c.26108-1.34.21016-10.02838-4.8554-8.83014,0,0-2.231.09256-2.75313,5.6217A104.54822,104.54822,0,0,0,61.706,74.32852a18.331,18.331,0,0,1,6.2048-1.98449C68.01941,67.93326,68.65609,60.083,68.90866,58.78637Z" style="fill:#ffd1c8"/><path d="M68.88136,48.49925s-4.37371.74877-5.90281,2.15968c-1.52919,1.41092-2.34624,5.08526-1.92189,13.46059,3.92341.81338,6.6399.61006,7.32056,0-.4,4.6868-.36366,8.64309-1.408,10.67683s-3.58053,6.762-3.58053,6.762c9.2,0,14.57069,3.96573,19.49378,3.81324,4.92325-.15249,8.0625-2.38964,7.83564-9.25339-.17729-4.11823-4.32789-7.728-4.61477-8.33811-.28679-.61005,1.85154-3.30476,1.55314-6.30445-.2983-2.99969-1.094-4.16914-2.68527-6.86368-1.59137-2.69462-2.60556-4.16012-3.14659-4.39724-.54095-.23705-2.40166-.78492-2.40166-.78492C80.44585,54.612,71.58909,56.21569,68.88136,48.49925Z" style="fill:#fdbd31"/><path d="M81.82463,50.21473a9.11756,9.11756,0,0,1,3.09676,1.60088c.746.86429,2.02472,6.4723,2.02472,6.4723H85.84336Z" style="fill:#fdbd31"/><path d="M78.86634,27.92825s-2.97006-4.41344-6.885-.7673c-3.91506,3.64614-.39295,8.25848,1.67692,7.702C75.72809,34.30657,78.86634,27.92825,78.86634,27.92825Z" style="fill:#524f50"/><path d="M64.24657,79.95456S61.5239,84.9395,61.59852,86.846s-.37292,5.64348,6.93721,8.31273c7.31013,2.66917,10.89066,2.66917,10.89066,2.66917-.59678,2.1354-1.04432,11.21084,2.7599,24.48063,3.65516.45764,3.74.14189,3.74.14189.82039-6.71126,1.73025-21.11436,1.92915-25.99521.199-4.88085-.79576-6.40544-4.7741-8.94791-3.97807-2.54254-5.085-4.98293-5.085-4.98293Z" style="fill:#f58b88"/><path d="M80.77654,98.50359c-.03764-1.88651-1.021-2.47186-2.54279-2.76349-4.16755-.79868-11.7795-3.25267-14.07324-7.47389-1.31008-2.23231-.37726-5.7656,1.85112-7.98171l-1.76506-.32994S61.5239,84.9395,61.59852,86.846s-.37292,5.64348,6.93721,8.31273c7.31013,2.66917,10.89066,2.66917,10.89066,2.66917-.59678,2.1354-1.04432,11.21084,2.7599,24.48063.24046.03013.46357.05659.67424.08021C81.08094,114.6179,80.90341,104.84551,80.77654,98.50359Z" style="fill:#f58b88;opacity:0.30000000000000004;mix-blend-mode:multiply"/><path d="M78.983,27.92658s-.06853-.62875-.527-.507a9.3115,9.3115,0,0,0-5.879,7.33259c.29229.35823.47316.13672.47316.13672C74.10634,29.59407,77.95438,28.52161,78.983,27.92658Z" style="fill:#fececc"/><path d="M87.81032,93.851a4.885,4.885,0,0,0-2.0081-4.30886C83.4427,87.741,80.4163,85.66874,80.15806,85.099c1.83025.193,4.814,2.1758,6.75342,3.77735S87.81032,93.851,87.81032,93.851Z" style="fill:#f58b88;opacity:0.30000000000000004;mix-blend-mode:multiply"/><path d="M68.37722,64.11952l.33345-4.75715a55.31748,55.31748,0,0,1,.634,10.715c-.29422,3.49715,8.15381,10.46758,13.25193,13.18432-2.92074.1237-14.90715-2.88668-18.35-3.3071,1.85336-3.61091,3.20944-3.93067,3.46643-7.16983C67.93986,69.92485,68.23608,66.39907,68.37722,64.11952Z" style="fill:#fdbd31;opacity:0.30000000000000004;mix-blend-mode:multiply"/><path d="M88.3385,83.63517c.18646-.03806,1.27427-.11894,1.125-1.11035-.14916-.9915-2.20393-.0419-2.95-.15625a8.18143,8.18143,0,0,0-3.917,1.04224c-2.46159-.19063-13.5782-9.749-14.88361-10.62608.00242-.13955.06811-1.00251.07187-1.15008-2.13674.30566-4.05738,1.60856-6.07885,2.69387a7.89481,7.89481,0,0,0,.67575,2.56517c1.30541,2.059,9.17493,5.03334,12.34523,6.0629a63.60763,63.60763,0,0,1,7.311,3.07256c.82047.38135,2.26269,1.67783,3.67994,1.22019a5.58606,5.58606,0,0,0,2.585-1.43278c.26117-.38136.52225-1.25842.14924-1.63969C88.07917,83.79551,88.152,83.6734,88.3385,83.63517Z" style="fill:#ffd1c8"/><path d="M87.285,64.42009s-7.44369,2.683-11.69554,1.15776c5.05623,4.38514,9.19322,1.60154,13.7872,6.45635C86.23089,67.83711,86.47361,66.35233,87.285,64.42009Z" style="fill:#fdbd31;opacity:0.30000000000000004;mix-blend-mode:multiply"/><path d="M89.51687,72.28026a8.57236,8.57236,0,0,0-.09073-3.06237c-.36224-1.50949-.34788-2.54-1.24656-3.09359a20.5565,20.5565,0,0,0-3.07774-1.90011,15.14285,15.14285,0,0,1-2.13448.09524c-.57082-.12287-.48727.75812.30774,1.06769-1.06.42577-3.04592.62717-2.62942,2.05912.41632,1.43211,5.45133,1.88859,6.32531,1.69419C87.60149,69.00021,89.15989,72.19413,89.51687,72.28026Z" style="fill:#ffd1c8"/><path d="M87.04886,58.566a54.434,54.434,0,0,0-2.90663-5.29535C85.56575,54.02621,86.8871,58.0739,87.04886,58.566Z" style="fill:#fdbd31;opacity:0.30000000000000004;mix-blend-mode:multiply"/></g></g></svg>