<svg id="e4eba868-4867-4378-860e-81c0d2f9a583" data-name="レイヤー 1" xmlns="http://www.w3.org/2000/svg" viewBox="0 0 160 160"><circle cx="80" cy="80" r="80" style="fill:#eff6f9"/><circle cx="81.50169" cy="62.64329" r="28.62687" transform="translate(5.60545 131.97198) rotate(-79.95702)" style="fill:#ffd487"/><path d="M65.22089,83.32674a26.08193,26.08193,0,1,1,19.1671,5.5789A25.91206,25.91206,0,0,1,65.22089,83.32674Zm-8.0617-17.668a24.52619,24.52619,0,1,0,21.7002-27.0588A24.5542,24.5542,0,0,0,57.15919,65.65874Z" style="fill:#ffb02e"/><path d="M124.912,103.8794a89.3369,89.3369,0,0,0-10.4704,10.7147c-6.3016,3.6056-10.68,5.8634-16.6111,9.9844-5.861-.5239-12.47769-1.023-18.31779-1.2113-4.8019-.1555-8.8736.0092-13.362-.4187-2.2364-.2127-4.731-1.0416-7.6835-1.629l-2.9714-.5925c-9.617-2.2869-15.6203-8.1508-15.3025-13.347a8.24071,8.24071,0,0,1,2.4838-5.1449q4.97385,2.13135,10.3181,4.2183c3.3953,1.3305,6.8081,2.6012,10.422,3.8593,8.6444-8.623,9.3422-9.3544,22.9448-8.4262,4.1873-.134,12.60779-6.1239,14.51959-1.6844,1.4836,3.4465-3.8609,4.1481-8.25549,5.852-3.3088,1.6328-7.3805,1.8601-2.7544,4.7936,3.1542,1.999,5.00769,1.2432,9.989,1.6094,3.8251-1.7931,5.90641-3.2336,11.4403-3.6203C117.60032,103.1071,120.01813,101.363,124.912,103.8794Z" style="fill:#f9d7bd;fill-rule:evenodd"/><path d="M79.3613,76.82614V70.70873H72.7669v-3.2972h6.5944V65.87324l-.55-.95249H72.7669V61.55051h4.06635l-6.15467-10.3671h4.98306L81.4854,61.3299l5.82525-10.14649H92.255l-6.08014,10.3671h3.99331v3.37024H84.1968l-.58581.95249v1.53829h6.55714v3.2972H83.611v6.11741Z" style="fill:#ffb02e"/></svg>