<?xml version="1.0" encoding="utf-8"?>
<!-- Generator: Adobe Illustrator 27.6.1, SVG Export Plug-In . SVG Version: 6.00 Build 0)  -->
<svg version="1.1" id="a529f956-19d6-4873-a1b0-59bff9ae2314"
	 xmlns="http://www.w3.org/2000/svg" xmlns:xlink="http://www.w3.org/1999/xlink" x="0px" y="0px" viewBox="0 0 160 38"
	 style="enable-background:new 0 0 160 38;" xml:space="preserve">
<style type="text/css">
	.st0{fill:#29A300;}
	.st1{fill:#333333;}
</style>
<path class="st0" d="M4.4,8.6C3.9,8.6,3.5,8.5,3,8.4C2.6,8.2,2.2,8,1.8,7.8c-0.4-0.3-0.7-0.6-1-0.9C0.6,6.5,0.3,6.1,0.2,5.6
	C0.1,5.2,0,4.8,0,4.3C0,3.9,0.1,3.4,0.2,3c0.1-0.4,0.4-0.8,0.6-1.2c0.3-0.4,0.6-0.7,1-1C2.2,0.6,2.6,0.3,3,0.2
	c0.9-0.3,1.8-0.3,2.7,0C6.6,0.5,7.4,1,8,1.8C8.2,2.1,8.4,2.6,8.5,3c0.3,0.9,0.3,1.8,0,2.6C8.4,6.1,8.2,6.5,8,6.9
	c-0.3,0.4-0.6,0.7-1,1C6.6,8.1,6.2,8.3,5.7,8.4C5.3,8.5,4.8,8.6,4.4,8.6z"/>
<path class="st0" d="M8.4,36.5c0-0.6-0.1-0.6-0.1-1.2c0-0.6,0.1-2.5,0.1-3.1c0-0.6,0-0.6,0-1.2c0-0.6,0.1-0.6,0.1-1.2
	c0-0.6,0-0.6,0-1.2c0-0.6-0.2-0.6-0.2-1.2c0-0.6,0-0.6,0-1.2c0-0.6,0-0.6,0-1.2s0.1-0.6,0.1-1.2c0-0.6,0-0.6,0-1.2
	c0-0.6-0.1-0.6-0.1-1.2c0-0.6,0-0.6,0-1.2c0-0.6,0.1-0.6,0.1-1.2c0-0.6-0.1-0.6-0.1-1.2c0-0.6,0.1-0.6,0.1-1.2
	c0-0.6,0.1-0.6,0.1-1.2c0-0.4-0.1-0.8-0.3-1.2C8.2,13.8,8,13.4,7.8,13c-0.2-0.4-0.5-0.7-0.8-1c-0.4-0.2-0.8-0.4-1.2-0.5
	c-0.4-0.2-0.8-0.3-1.2-0.3c-0.1,0-0.1,0-0.2,0c-0.4,0-0.9,0-1.3,0.1c-0.4,0.2-0.8,0.4-1.1,0.6c-0.3,0.3-0.6,0.6-0.9,0.9
	c-0.5,0.7-0.8,1.5-0.9,2.4c0,0.6,0.1,0.6,0.1,1.2c0,0.6,0,0.6,0,1.2c0,0.6,0,0.6,0,1.2c0,0.6,0,0.6,0,1.2c0,0.6-0.1,0.6-0.1,1.2
	c0,0.6,0.1,0.6,0.1,1.2c0,0.6,0.1,0.6,0.1,1.2c0,0.6,0,0.6,0,1.2c0,0.6,0,0.6,0,1.2s-0.1,0.6-0.1,1.2c0,0.6,0.1,0.6,0.1,1.2
	c0,0.6,0,0.6,0,1.2c0,0.6,0,0.6,0,1.2c0,0.6,0,0.6,0,1.2c0,0.6-0.1,2.5-0.1,3.1c0,0.6,0.1,0.6,0.1,1.2c-0.1,0.6,0.3,1.1,0.9,1.2
	c0.1,0,0.1,0,0.2,0c0.4,0,0.8,0,1.2,0c0.6,0,0.6-0.1,1.2-0.1c0.6,0,0.6,0.1,1.2,0.1c0.6,0,0.6,0.1,1.2,0.1c0.6,0,0.6-0.1,1.2-0.1
	C7.3,37.7,8.4,37.5,8.4,36.5z"/>
<path class="st0" d="M26.3,37.6c0.6,0,0.6,0,1.1,0c0.6,0,0.6,0,1.1,0c0.6,0,0.6,0.1,1.1,0.1c0.6,0,0.6,0,1.1,0
	c0.6,0,0.6-0.2,1.1-0.2c0.6,0,0.7,0,0.9-0.2c0.2-0.2,0.2-0.3,0.2-0.9s0.1-0.6,0.1-1.2c0-0.6,0.1-2.5,0.1-3.1c0-0.6-0.1-0.6-0.1-1.2
	c0-0.6,0-0.6,0-1.2c0-0.6,0.1-0.6,0.1-1.2c0-0.6-0.1-0.6-0.1-1.2c0-0.6,0.1-0.6,0.1-1.2c0-0.6,0.1-0.6,0.1-1.2s-0.1-0.6-0.1-1.2
	c0-0.6,0.1-0.6,0.1-1.2c0-0.6,0-0.6,0-1.2c0-0.6-0.2-0.6-0.2-1.2c0-0.6,0-0.6,0-1.2c0-0.6,0-0.6,0-1.2c0-0.6,0.1-0.6,0.1-1.2
	c0-0.6-0.1-0.6-0.1-1.2c0-0.4-0.1-0.8-0.2-1.2c-0.1-0.4-0.3-0.8-0.5-1.2c-0.2-0.4-0.5-0.7-0.8-1c-0.3-0.3-0.7-0.5-1.1-0.6
	c-0.4-0.2-0.8-0.3-1.2-0.3c-0.1,0-0.1,0-0.2,0c-0.4,0-0.8,0.1-1.2,0.2c-0.4,0.1-0.8,0.3-1.1,0.5c-0.3,0.3-0.6,0.6-0.8,0.9
	c-0.2,0.4-0.4,0.7-0.5,1.2c-0.1,0.4-0.2,0.8-0.2,1.2c0,0.6,0,0.6,0,1.2c0,0.6-0.1,0.6-0.1,1.2c0,0.6,0.1,0.6,0.1,1.2
	c0,0.6,0,0.6,0,1.2c0,0.6,0,0.6,0,1.2c0,0.6,0,0.6,0,1.2c0,0.6-0.1,0.6-0.1,1.2c0,0.6,0.1,0.6,0.1,1.2c0,0.6-0.1,0.6-0.1,1.2
	s0,0.6,0,1.2c0,0.6,0.1,0.6,0.1,1.2c0,0.6-0.1,0.6-0.1,1.2c0,0.6,0,0.6,0,1.2c0,0.6,0.1,0.6,0.1,1.2c0,0.6-0.2,2.5-0.2,3.1
	c0,0.6,0,0.6,0,1.2C25.2,37.1,25.7,37.6,26.3,37.6z"/>
<path class="st0" d="M38.6,8.1c-0.6,0-0.6-0.2-1.1-0.2c-0.6,0-0.6,0.1-1.1,0.1c-0.6,0-0.6,0-1.1,0c-0.6,0-0.6,0-1.1,0
	c-0.6,0-0.6,0.2-1.1,0.2c-0.6,0-0.6-0.1-1.1-0.1c-0.6,0-0.6,0-1.1,0C30,8,30,8,29.4,8s-0.6,0-1.1,0c-0.6,0-0.6-0.1-1.1-0.1
	c-0.6,0-0.6,0-1.1,0c-0.6,0-0.6,0.1-1.1,0.1c-0.6,0-0.6-0.1-1.1-0.1C23.1,8,23.1,8,22.6,8C22,8,22,8,21.4,8c-0.6,0-0.6-0.1-1.2-0.1
	S19.7,8,19.1,8c-0.4,0-0.8,0-1.2-0.1c-0.4-0.2-0.7-0.4-1-0.6C16.6,7,16.3,6.8,16,6.5c-0.2-0.3-0.4-0.7-0.5-1.1
	c-0.1-0.4-0.2-0.7-0.2-1.1c0-0.1,0-0.1,0-0.2c0-0.4,0.1-0.8,0.3-1.1c0.1-0.4,0.3-0.7,0.6-1c0.3-0.3,0.6-0.5,1-0.7
	c0.3-0.2,0.7-0.4,1.1-0.5c0.4-0.1,0.8-0.1,1.2-0.1c0.6,0,0.6-0.1,1.1-0.1c0.6,0,0.6-0.1,1.1-0.1c0.6,0,0.6,0.1,1.1,0.1
	c0.6,0,0.6,0,1.1,0c0.6,0,0.6,0,1.1,0c0.6,0,0.6,0,1.1,0c0.6,0,0.6-0.1,1.1-0.1c0.6,0,0.6,0,1.1,0s0.6,0.1,1.1,0.1
	c0.6,0,0.6,0,1.1,0c0.6,0,0.6-0.1,1.1-0.1c0.6,0,0.6,0.2,1.1,0.2c0.6,0,0.6,0,1.1,0c0.6,0,0.6,0,1.1,0c0.6,0,0.6-0.2,1.1-0.2
	c0.6,0,0.6,0,1.1,0s0.6,0.1,1.1,0.1c0.4,0,0.8,0,1.2,0c0.4,0.2,0.7,0.4,1,0.6c0.3,0.2,0.6,0.5,0.8,0.9c0.3,0.3,0.5,0.6,0.7,1
	c0.1,0.4,0.1,0.8,0,1.2h0c0,0.4,0,0.8-0.1,1.2c-0.1,0.4-0.3,0.7-0.5,1.1c-0.3,0.3-0.6,0.6-0.9,0.8c-0.3,0.2-0.7,0.4-1.1,0.5
	C39.4,7.9,39,8,38.6,8.1z"/>
<path class="st1" d="M58.5,15.4V9.4c-0.2,0.4-0.4,0.8-0.7,1.2c-0.2,0.3-0.4,0.7-0.7,1c-0.2-0.2-0.5-0.4-0.8-0.5
	c-0.3-0.2-0.6-0.3-0.8-0.5c0.3-0.4,0.6-0.8,0.9-1.2C56.8,8.9,57,8.5,57.3,8c0.3-0.5,0.5-1,0.7-1.5c0.2-0.4,0.3-0.9,0.5-1.3h-2.4V3.4
	h2.4V0.5h1.9v2.9h1.9v1.4c0.3-0.6,0.6-1.1,0.8-1.7c0.2-0.6,0.4-1.1,0.5-1.7l1.8,0.4c0,0.2-0.1,0.5-0.2,0.7c-0.1,0.3-0.2,0.5-0.2,0.8
	h1v-3h1.9v3h3.1v1.7h-3.1v1.8h3.7v1.7h-3.3c0.3,0.5,0.7,1,1.1,1.4c0.4,0.5,0.9,1,1.4,1.4c0.5,0.4,1,0.8,1.5,1.1
	c-0.3,0.2-0.5,0.5-0.8,0.7c-0.2,0.3-0.4,0.5-0.6,0.8c-0.6-0.5-1.1-1-1.5-1.5c-0.5-0.6-1-1.2-1.4-1.8v4.6h-1.9v-4.6
	c-0.5,0.7-1.1,1.3-1.7,1.9c-0.6,0.6-1.2,1.1-1.8,1.6c-0.2-0.2-0.4-0.5-0.6-0.7c-0.2-0.2-0.4-0.4-0.7-0.6c0.5-0.4,1.1-0.8,1.5-1.2
	c0.5-0.5,1-1,1.5-1.6c0.5-0.5,0.9-1.1,1.3-1.6h-2.9c0.1,0.1,0.2,0.2,0.3,0.3C62.9,8.9,63,9,63.1,9c-0.1,0.1-0.3,0.2-0.4,0.4
	c-0.2,0.2-0.4,0.3-0.5,0.5c-0.1,0.1-0.3,0.3-0.4,0.4c-0.2-0.2-0.4-0.4-0.6-0.7c-0.2-0.3-0.5-0.6-0.7-0.9v6.6H58.5z M62.4,8.5V6.8
	h3.4V5.1h-1.6c-0.2,0.5-0.5,1-0.8,1.5c-0.3-0.2-0.5-0.3-0.8-0.4C62.3,6,62,5.9,61.7,5.8c0.2-0.2,0.3-0.4,0.5-0.7h-1.7v1
	c0.2,0.3,0.5,0.7,0.9,1.1C61.7,7.7,62,8.1,62.4,8.5L62.4,8.5z"/>
<path class="st1" d="M73.4,15L73,13.2c0.3,0,0.8-0.1,1.3-0.1c0.5-0.1,1.1-0.1,1.7-0.2V9.2h-2.7V7.4h7.3v1.8h-2.4v3.3
	c0.7-0.1,1.3-0.2,1.8-0.3c0.6-0.1,1-0.2,1.4-0.3v1.8c-0.4,0.1-0.8,0.2-1.4,0.3c-0.5,0.1-1.1,0.2-1.8,0.3c-0.6,0.1-1.2,0.2-1.9,0.3
	c-0.6,0.1-1.2,0.2-1.7,0.3C74.2,14.9,73.8,15,73.4,15z M85.6,15.2c-0.8-0.4-1.5-1-2-1.7c-0.7-1-1.3-2.1-1.7-3.2
	c-0.5-1.6-0.9-3.2-1.1-4.9h-7.8V3.6h7.6c-0.1-1-0.1-2-0.1-3.2h2c0,1.1,0,2.2,0.1,3.2h2.5c-0.3-0.4-0.6-0.7-0.9-1
	c-0.3-0.3-0.6-0.6-1-0.8l1.3-1.2c0.3,0.2,0.6,0.4,0.8,0.6c0.3,0.3,0.6,0.5,0.8,0.8c0.2,0.2,0.4,0.4,0.6,0.7
	c-0.2,0.1-0.4,0.3-0.6,0.4c-0.2,0.2-0.4,0.4-0.6,0.5H88v1.9h-5.2c0.2,1.7,0.6,3.3,1.3,4.8c0.4,1.1,1.1,2,2,2.7
	c0.1-0.3,0.2-0.7,0.3-1.1c0.1-0.4,0.2-0.7,0.2-0.9c0.2,0.1,0.3,0.2,0.5,0.3c0.2,0.1,0.5,0.2,0.7,0.3c0.2,0.1,0.4,0.2,0.6,0.2
	c-0.1,0.4-0.2,0.8-0.3,1.1c-0.1,0.4-0.3,0.8-0.4,1.1c-0.1,0.3-0.3,0.6-0.4,0.9c-0.1,0.3-0.4,0.5-0.7,0.6
	C86.3,15.4,85.9,15.4,85.6,15.2z"/>
<path class="st1" d="M90.3,7.4C90.2,7.2,90.1,7,90,6.8c-0.1-0.2-0.3-0.4-0.5-0.6c-0.1-0.2-0.3-0.3-0.5-0.5c0.7-0.3,1.5-0.6,2.1-1
	c0.7-0.4,1.4-0.9,2.1-1.4c0.6-0.5,1.3-1,1.8-1.6c0.5-0.5,0.9-1,1.2-1.5l1.9,0.3c0.4,0.5,0.9,1,1.4,1.4c0.6,0.5,1.2,1,1.8,1.4
	c0.7,0.4,1.3,0.8,2,1.2c0.6,0.3,1.3,0.6,2,0.9c-0.2,0.2-0.4,0.3-0.5,0.5c-0.2,0.2-0.4,0.5-0.5,0.7c-0.1,0.2-0.3,0.4-0.4,0.6
	c-0.4-0.2-0.9-0.4-1.3-0.7c-0.5-0.3-0.9-0.5-1.4-0.8v1.4h-8.1V5.7c-0.5,0.3-1,0.6-1.5,0.9C91.2,7,90.8,7.2,90.3,7.4z M102.4,15.6
	c-0.2-0.3-0.3-0.6-0.5-0.8c-0.2-0.3-0.5-0.6-0.7-0.9c-0.5,0.1-1.1,0.2-1.8,0.3c-0.7,0.1-1.4,0.2-2.1,0.3c-0.7,0.1-1.5,0.2-2.2,0.3
	c-0.7,0.1-1.4,0.2-2,0.2C92.3,15,91.8,15,91.3,15l-0.4-2c0.2,0,0.6,0,0.9,0c0.4,0,0.8,0,1.2-0.1c0.3-0.4,0.6-0.9,0.8-1.4
	c0.3-0.5,0.5-1,0.7-1.5h-4.1V8.4h13.7v1.8h-4c0.4,0.3,0.7,0.6,1,0.9c0.4,0.4,0.7,0.7,1.1,1.1c0.4,0.4,0.7,0.8,1,1.2
	c0.3,0.3,0.5,0.7,0.8,1c-0.1,0.1-0.3,0.2-0.6,0.4c-0.2,0.2-0.4,0.3-0.7,0.5C102.7,15.3,102.5,15.5,102.4,15.6z M93.7,5.4h7.1
	c-0.7-0.5-1.3-1-1.9-1.5c-0.6-0.5-1.1-1-1.6-1.6c-0.5,0.6-1,1.1-1.5,1.6C95.1,4.4,94.4,4.9,93.7,5.4z M95.5,12.8
	c0.7-0.1,1.5-0.1,2.2-0.2c0.7-0.1,1.4-0.2,2-0.2c-0.4-0.4-0.8-0.8-1.3-1.1l1.3-1.1h-2.9c-0.2,0.4-0.4,0.9-0.7,1.3
	C96,11.9,95.7,12.4,95.5,12.8L95.5,12.8z"/>
<path class="st1" d="M109.2,15.4V9.9c-0.3,0.3-0.6,0.5-1,0.8c-0.3,0.3-0.7,0.5-1,0.8c-0.2-0.3-0.4-0.5-0.6-0.8
	c-0.2-0.2-0.5-0.5-0.7-0.7c0.5-0.3,1-0.6,1.4-0.9c0.5-0.4,1-0.8,1.5-1.2c0.5-0.4,0.9-0.9,1.3-1.4c0.3-0.4,0.7-0.8,0.9-1.3h-4.2V3.4
	h2.5V0.5h1.9v2.9h1.5l0.9,0.7c-0.5,1.1-1.1,2.1-1.8,3c0.3,0.2,0.6,0.4,0.9,0.6c0.3,0.2,0.7,0.4,1,0.6c0.3,0.2,0.6,0.3,0.8,0.4
	c-0.1,0.1-0.3,0.3-0.4,0.5c-0.2,0.2-0.3,0.4-0.4,0.6c-0.1,0.2-0.2,0.4-0.3,0.5c-0.3-0.2-0.6-0.4-1-0.7c-0.4-0.3-0.8-0.5-1.1-0.8v6.5
	L109.2,15.4z M112.5,14.8V13h3.8V7.2h-2.8V5.4h2.8V0.5h2v4.8h2.9v1.9h-2.9V13h3.4v1.9L112.5,14.8z"/>
<path class="st1" d="M129.2,15c-0.2-0.3-0.4-0.5-0.6-0.8c-0.2-0.2-0.5-0.5-0.7-0.7c0.4-0.2,0.7-0.4,1-0.6c0.4-0.3,0.8-0.6,1.2-0.9
	c0.4-0.3,0.7-0.7,1.1-1c0.3-0.3,0.5-0.6,0.8-0.9l1.5,1.2c-0.4,0.5-0.8,0.9-1.3,1.4c-0.5,0.5-1,0.9-1.5,1.3
	C130.2,14.3,129.7,14.7,129.2,15z M128.1,3.7V2h6.4V0.3h2.1V2h6.3v1.7H128.1z M133.1,15.5c0-0.2,0-0.4-0.1-0.6
	c-0.1-0.2-0.1-0.5-0.2-0.7c0-0.2-0.1-0.4-0.2-0.6h1.2c0.2,0,0.3,0,0.5-0.1c0.1-0.1,0.2-0.3,0.2-0.4V9.8h-4.2V4.7h10.4v5.1h-4.2v4
	c0,0.5-0.2,1-0.5,1.3c-0.5,0.3-1,0.5-1.6,0.4L133.1,15.5z M132.3,8.2h6.5V6.3h-6.5V8.2z M141.7,15c-0.5-0.3-1-0.6-1.4-1
	c-0.5-0.4-1-0.9-1.5-1.3c-0.4-0.4-0.9-0.9-1.3-1.4l1.5-1.1c0.3,0.3,0.5,0.6,0.9,0.9c0.3,0.3,0.7,0.6,1.1,1c0.4,0.3,0.8,0.6,1.1,0.8
	c0.3,0.2,0.7,0.4,1,0.6c-0.3,0.2-0.5,0.5-0.7,0.7C142.1,14.4,141.9,14.7,141.7,15L141.7,15z"/>
<path class="st1" d="M153.7,15.5V2.1c-0.3,0.6-0.5,1.1-0.8,1.7c-0.3,0.6-0.7,1.1-1,1.6h1.4V7h-2.7c-0.2,0.2-0.4,0.4-0.6,0.6
	c-0.2,0.2-0.4,0.4-0.7,0.6h3.3v6.8h-6.1v-4.7c-0.2,0.1-0.4,0.2-0.7,0.4c-0.2,0.1-0.5,0.2-0.7,0.4c-0.1-0.3-0.3-0.5-0.4-0.8
	c-0.2-0.3-0.4-0.5-0.6-0.7c0.8-0.3,1.5-0.7,2.2-1.1c0.7-0.4,1.4-0.9,2-1.5h-3.4V5.4h2.8V4h-2.3V2.3h2.3V0.5h1.9v1.8h1.4v1.3
	c0.2-0.4,0.4-0.7,0.5-1.1c0.2-0.4,0.3-0.7,0.5-1.1l1.8,0.6V1.1h5.5l0.8,0.5c-0.1,0.2-0.2,0.5-0.4,0.8c-0.1,0.3-0.3,0.7-0.5,1.1
	c-0.2,0.4-0.4,0.8-0.5,1.2c-0.2,0.4-0.3,0.7-0.5,1c-0.1,0.3-0.3,0.5-0.3,0.7c0.6,0.5,1.1,1.1,1.5,1.7c0.4,0.7,0.6,1.6,0.6,2.4
	c0.1,0.8-0.2,1.7-0.8,2.3c-0.6,0.6-1.4,0.9-2.2,0.8h-0.7c0-0.3-0.1-0.7-0.2-1c-0.1-0.3-0.2-0.6-0.3-0.9h0.7c1,0,1.5-0.4,1.5-1.3
	c0-0.7-0.2-1.5-0.5-2.1c-0.4-0.7-0.9-1.3-1.6-1.8c0.1-0.2,0.2-0.4,0.3-0.7c0.2-0.3,0.3-0.7,0.5-1.1c0.2-0.4,0.3-0.8,0.5-1.2
	c0.1-0.3,0.2-0.5,0.3-0.8h-1.8v12.7H153.7z M148.3,11h2.4V9.7h-2.4V11z M148.3,13.6h2.4v-1.2h-2.4V13.6z M149.5,5.4h0.2
	c0.2-0.2,0.4-0.5,0.5-0.7c0.2-0.2,0.3-0.5,0.5-0.7h-1.2V5.4z"/>
<path class="st1" d="M70,35.3c-0.3-0.2-0.7-0.5-1.2-0.9c-0.5-0.4-1-0.8-1.6-1.3c-0.6-0.5-1.1-0.9-1.7-1.4c-0.5-0.5-1-0.9-1.5-1.3
	c-0.4-0.4-0.8-0.7-1-0.9c-0.1-0.1-0.2-0.2-0.4-0.2c-0.2,0-0.3,0.1-0.4,0.2c-0.3,0.3-0.7,0.5-1.1,0.8c-0.4,0.3-0.9,0.6-1.4,0.8
	c-0.5,0.3-0.9,0.5-1.4,0.7c-0.5,0.2-0.9,0.4-1.2,0.5l-1.3-2c0.5-0.2,1-0.3,1.4-0.6c0.5-0.2,1.1-0.5,1.7-0.8c0.6-0.3,1.1-0.6,1.6-1
	c0.4-0.3,0.9-0.6,1.3-0.9c0.3-0.3,0.6-0.4,1-0.5c0.4,0.1,0.8,0.3,1,0.6c0.2,0.2,0.6,0.6,1.1,1c0.5,0.4,1,0.8,1.6,1.3
	c0.6,0.5,1.2,1,1.9,1.4c0.6,0.5,1.3,0.9,1.9,1.3c0.5,0.3,1,0.7,1.6,1c-0.3,0.3-0.7,0.6-1,0.9C70.5,34.6,70.2,34.9,70,35.3z"/>
<path class="st1" d="M74.8,36.5c-0.2-0.3-0.4-0.6-0.7-0.9c-0.3-0.3-0.6-0.6-0.9-0.8c0.9-0.4,1.7-1,2.4-1.7c0.6-0.6,1-1.3,1.3-2
	c0.3-0.8,0.4-1.6,0.4-2.5c0-1,0-2-0.2-3l2.1-0.2c0.2,1.6,0.3,3.1,0.1,4.7c-0.2,1.3-0.7,2.6-1.4,3.6C77.1,34.9,76.1,35.8,74.8,36.5z
	 M82.6,36.1l-1.2-0.9c0-0.2,0-0.6,0-1.2c0-0.6,0-1.3,0-2.1c0-0.8,0-1.6,0-2.5c0-1,0-1.9,0-2.7c0-0.8,0-1.4-0.1-1.8h2.3
	c0,0.2,0,0.5-0.1,1c0,0.5,0,1,0,1.6c0,0.6,0,1.2,0,1.8v3.8c0.5-0.2,1.1-0.5,1.7-0.8c0.6-0.3,1.2-0.6,1.8-1c0.6-0.3,1.1-0.7,1.6-1
	c0.4-0.3,0.8-0.6,1.1-0.9c0,0.3,0,0.6,0.1,0.8c0,0.3,0.1,0.6,0.1,0.9c0.1,0.3,0.1,0.5,0.1,0.6c-0.5,0.4-1,0.8-1.6,1.1
	c-0.6,0.4-1.3,0.8-2.1,1.2c-0.7,0.4-1.4,0.7-2.1,1.1C83.7,35.7,83.1,35.9,82.6,36.1L82.6,36.1z"/>
<path class="st1" d="M93.8,36.9c-0.2-0.3-0.4-0.6-0.6-0.9c-0.2-0.3-0.5-0.6-0.8-0.9c0.9-0.4,1.8-0.9,2.7-1.4
	c0.9-0.6,1.8-1.2,2.6-1.9c0.8-0.7,1.6-1.5,2.2-2.3c0.6-0.8,1.2-1.6,1.7-2.5c-0.6,0-1.2,0.1-1.9,0.1c-0.7,0-1.4,0.1-2.1,0.1
	c-0.7,0-1.3,0.1-1.9,0.1c-0.6,0-1,0.1-1.3,0.1l-0.3-2.2c0.3,0,0.7,0,1.3,0c0.6,0,1.3,0,2-0.1c0.7,0,1.5-0.1,2.2-0.1
	c0.7,0,1.4-0.1,2-0.1c0.6-0.1,1-0.1,1.3-0.1l1.5,0.9c-0.3,0.8-0.7,1.6-1.1,2.4c-0.5,0.8-1,1.6-1.5,2.3c0.4,0.3,0.9,0.7,1.3,1.1
	c0.5,0.4,0.9,0.8,1.4,1.2c0.5,0.4,0.9,0.8,1.3,1.2c0.4,0.4,0.7,0.7,1,1c-0.3,0.2-0.7,0.5-1,0.7c-0.3,0.3-0.6,0.6-0.9,0.9
	c-0.3-0.4-0.6-0.7-0.9-1.1c-0.4-0.4-0.7-0.8-1.2-1.2c-0.4-0.4-0.8-0.8-1.2-1.2c-0.4-0.4-0.8-0.7-1.2-1C98.6,34,96.3,35.6,93.8,36.9
	L93.8,36.9z"/>
<path class="st1" d="M115.1,38c-0.2-0.3-0.5-0.6-0.8-0.9c-0.3-0.3-0.6-0.6-0.9-0.8c1.4-0.7,2.5-1.7,3.4-2.9c0.8-1.2,1.3-2.6,1.3-4.1
	h-3.4c-0.4,0.5-0.9,1-1.4,1.5c-0.5,0.5-1,0.9-1.6,1.2c-0.2-0.3-0.5-0.5-0.8-0.8c-0.3-0.3-0.6-0.5-0.9-0.7c0.9-0.6,1.7-1.3,2.4-2
	c0.7-0.8,1.3-1.7,1.8-2.6c0.5-0.9,0.9-1.8,1.1-2.8l2.2,0.6c-0.4,1.2-0.9,2.3-1.5,3.4h8.6v2.1h-4.3c-0.1,1.8-0.6,3.5-1.5,5
	C117.9,35.8,116.6,37.1,115.1,38z"/>
<path class="st1" d="M138.3,30.9c-0.1-0.2-0.3-0.3-0.5-0.5c-0.2-0.2-0.4-0.3-0.6-0.5c-0.2-0.1-0.4-0.3-0.6-0.4
	c0.3-0.2,0.7-0.5,1.1-0.9c0.4-0.4,0.8-0.7,1.1-1.1c0.4-0.4,0.7-0.8,1.1-1.2c-0.7,0-1.4,0-2.3,0.1c-0.9,0-1.7,0.1-2.6,0.1
	c-0.9,0-1.8,0.1-2.6,0.1c-0.8,0-1.6,0.1-2.2,0.1c-0.6,0-1.1,0-1.4,0.1l-0.1-2.2c0.4,0,0.9,0,1.6,0c0.7,0,1.5,0,2.3,0
	c0.9,0,1.7,0,2.6,0c0.9,0,1.8,0,2.6-0.1c0.8,0,1.6-0.1,2.3-0.1c0.7,0,1.2-0.1,1.5-0.1l1.4,1.1c-0.3,0.5-0.6,1-1,1.5
	c-0.4,0.5-0.8,1.1-1.2,1.6c-0.4,0.5-0.9,1-1.3,1.5C139.2,30.1,138.7,30.5,138.3,30.9z M131.4,37.9c-0.1-0.2-0.3-0.4-0.4-0.5
	c-0.2-0.2-0.4-0.4-0.6-0.6c-0.2-0.2-0.4-0.3-0.6-0.4c1-0.5,1.9-1.3,2.7-2.2c0.7-0.9,1.1-1.9,1.4-3c0.3-1.2,0.4-2.4,0.3-3.6h2.2
	c0.1,2.1-0.4,4.2-1.2,6.2C134.4,35.4,133,36.9,131.4,37.9z"/>
<path class="st1" d="M145.7,37.1V24.8h2.1v12.3H145.7z"/>
<path class="st1" d="M153.4,37.1V26.7h-3.8v-1.9h9.7v1.9h-3.8v10.4H153.4z"/>
</svg>
