<svg id="a342d112-5cf1-4c64-a421-dc8883fbe6dc" data-name="レイヤー 1" xmlns="http://www.w3.org/2000/svg" viewBox="0 0 26 32"><path d="M.13491,13.78968C-.47868,11.78461,1.15619,8.57578,1.92,7.2365c-.00764-.04011-.01829-.08194-.02428-.12059C1.3055,3.52974,6.62853.293,7.249.0724A1.43375,1.43375,0,0,1,8.42392.21211,12.43674,12.43674,0,0,1,14.409,7.0113,1.3994,1.3994,0,0,1,14.389,8.18293c-.28146.53385-3.66274,4.6364-6.93564,4.44438-.52453.7283-.93861,1.48073-.7244,1.82484.28941.47124,1.46394,2.36979,2.34089,3.79022.56887.91731,1.0125,1.63614,1.0125,1.63614.877,1.42043,2.05089,3.31917,2.34206,3.78991.213.34442,1.07726.32035,1.97032.18875,1.31408-2.97542,6.53727-4.09749,7.147-4.10421a1.43052,1.43052,0,0,1,1.06211.51567,12.34285,12.34285,0,0,1,3.39191,8.37314,1.4006,1.4006,0,0,1-.40693,1.10072c-.48225.44776-5.80889,3.67581-8.76548,1.52562-.03145-.02444-.0649-.05152-.097-.07734-1.55039.06663-5.17812.05239-6.70327-1.40077-1.53834-1.46715-4.19225-5.93334-5.27047-7.80181C3.56292,20.18788.75333,15.815.13491,13.78968Z" style="fill:#0d81a9"/></svg>