<svg id="b15bcd44-fe18-469d-a1ff-47a6d8d3374c" data-name="レイヤー 1" xmlns="http://www.w3.org/2000/svg" viewBox="0 0 112 30"><path d="M12.20065,7.6725q1.25574,0,1.25623,1.0185,0,.65475-1.00508.9815-1.25647.546-2.51148,1.0185-.39571,3.273-.43075,4.9455.75343-.9085,1.5429-1.9635c.0954,0,.14359.08483.14359.2545A15.94537,15.94537,0,0,1,9.50957,18.073v7.818a14.094,14.094,0,0,1-.25115,2.6545q-.32343,1.2725-.8615,1.309-.78994-.03626-1.32778-1.127a5.7543,5.7543,0,0,1-.50229-2.1455,27.26691,27.26691,0,0,1,.28716-3.6q.10733-.509.1796-1.1635A8.44946,8.44946,0,0,1,5.27509,23.491a3.2105,3.2105,0,0,1-1.90211.9455q-1.29152,0-1.43534-1.818A9.03311,9.03311,0,0,1,3.409,18.3635q1.758-2.98075,3.73218-6.727-1.11264.327-2.2248.618a17.48745,17.48745,0,0,1-3.94732.691q-.96954,0-.96906-.582,0-.4365,1.18419-.909,3.91106-1.527,6.42327-2.4Q7.679,7.19975,7.715,5.127a6.42215,6.42215,0,0,0-.46627-2.109,9.129,9.129,0,0,1-.53832-1.709q0-.72724.57433-.7275a4.52083,4.52083,0,0,1,2.29636.8365,3.69809,3.69809,0,0,1,1.22021,2.873,8.5538,8.5538,0,0,1-.28717,2q-.14382.98175-.25115,1.8545A11.17365,11.17365,0,0,1,12.20065,7.6725Zm-4.7723,7.455q-1.25721,2.582-2.584,5.7455a31.90962,31.90962,0,0,0,2.44042-2.5455Q7.35631,16.873,7.42835,15.1275ZM27.20092,8.4q2.65531.037,2.65556,1.8545-.03651.98175-1.11265.982-.93376,0-1.83007.0725V24.2185a10.12564,10.12564,0,0,1-.78946,4.509Q25.514,30,24.50935,30q-1.14915,0-3.481-3.5635,0-.29076.14358-.291a2.82657,2.82657,0,0,0,1.39982.4365q1.83032,0,1.83007-2.4V11.6a26.69907,26.69907,0,0,0-4.59319,1.2,13.10979,13.10979,0,0,1-3.83975.873,2.79831,2.79831,0,0,1-1.54291-.4365q-.61107-.2545-.68189-.582c0-.16917.13092-.2545.39473-.2545q2.00917,0,5.885-1.9275a25.53407,25.53407,0,0,1,4.37806-1.636V5.418a2.96562,2.96562,0,0,0-.57433-2.1815q-.43076-.21825-.43026-.5095,0-.39949.861-.436a2.585,2.585,0,0,1,1.86609.727,3.62287,3.62287,0,0,1,.78946,2.4V8.4Zm-9.402,7.5275a12.12634,12.12634,0,0,0,1.97366.909,1.512,1.512,0,0,1,1.11264,1.382,1.84252,1.84252,0,0,1-.78946,1.4905,3.41907,3.41907,0,0,1-1.61494.3275q-.53807,0-.53831-.2545a11.54466,11.54466,0,0,0,.43074-1.5635c0-.1455-.15623-.30284-.46676-.473q-.6819-.4365-.6819-.8365Q17.22459,15.92725,17.79892,15.9275Z" style="fill:#333"/><path d="M45.11082,3.127a3.82677,3.82677,0,0,1,2.15326.7275,2.28974,2.28974,0,0,1,1.07614,2q0,2.03674-1.29176,14.982,1.25574-.25377,2.65555-.582a7.54063,7.54063,0,0,1,1.86609-.3635,4.78093,4.78093,0,0,1,1.90162.4365A1.53443,1.53443,0,0,1,54.36924,21.6q0,.7635-.57433.873a81.484,81.484,0,0,0-10.83735,1.709,34.13259,34.13259,0,0,1-5.56225.982h-.10757a.10446.10446,0,0,1-.036.0725,2.381,2.381,0,0,1-.78947,1.2,1.69656,1.69656,0,0,1-.897.291q-1.39957,0-1.39933-2.8365a1.09871,1.09871,0,0,1,.036-.327,2.2543,2.2543,0,0,0,.17911-.655,10.24143,10.24143,0,0,0,.072-1.309,24.07517,24.07517,0,0,0-.1796-3.8545,6.33326,6.33326,0,0,0-.82548-1.891,1.58634,1.58634,0,0,1-.25115-.7635q0-.4365.53831-.4365a3.96712,3.96712,0,0,1,1.3638.509,5.26547,5.26547,0,0,1,2.2248,1.564q.64613.98175.64588,4.327a10.45961,10.45961,0,0,1-.10756,1.5275q2.72685-.39951,7.10516-1.309V5.8545a1.72876,1.72876,0,0,0-.46677-1.418,1.905,1.905,0,0,1-.39473-.582Q44.10574,3.16425,45.11082,3.127Zm13.88763,8.4005a2.78272,2.78272,0,0,1,1.65047.509,1.68443,1.68443,0,0,1,.8615,1.491A29.04393,29.04393,0,0,1,59.57229,23.709Q57.81353,28.00074,56.45046,28q-1.18419-.14427-1.25623-1.5635a10.75228,10.75228,0,0,1,.6819-3.091q2.40416-7.45376,2.4044-10.2545a2.54547,2.54547,0,0,0-.28716-1.1275Q57.99337,11.527,58.99845,11.5275Z" style="fill:#333"/><path d="M83.11258,7.418a3.19127,3.19127,0,0,1,1.57893.4A1.85928,1.85928,0,0,1,85.517,9.382a9.4168,9.4168,0,0,1,2.2248-.982q.50231,0,.64588.2545.03577-1.05426.072-2.109,0-.69025-1.00508-.691l-1.1842-.0725a.51118.51118,0,0,1-.46627-.5095q0-.25376.82548-.8a3.44468,3.44468,0,0,1,2.11723-.7635q2.79915,0,2.79865,2.982a5.25921,5.25921,0,0,1-.57384,2.1455,26.62085,26.62085,0,0,0-.6819,7.127q.25042,5.09149.25115,7.055A11.685,11.685,0,0,1,90.11018,26.8a1.43753,1.43753,0,0,1-1.36331,1.0545q-.68262,0-1.07662-1.0545a22.83445,22.83445,0,0,0-1.47136-3.891c0-.19334.0477-.2905.14358-.2905a2.77475,2.77475,0,0,0,.861.2905q.75417,0,.75393-1.345.07155-2.36376.14358-4.691a26.00311,26.00311,0,0,1-2.44042,2.8725A4.66985,4.66985,0,0,1,84.3328,20.873a12.06894,12.06894,0,0,1-1.54291,4.036q-.93378,1.52775-1.75853,1.5275-.43074,0-.43075-.291a9.69349,9.69349,0,0,0,1.32778-2.5815,33.36848,33.36848,0,0,0,1.18419-6.4005,61.7841,61.7841,0,0,0,.43075-7.2,3.9607,3.9607,0,0,0-.82548-2.291C82.71785,7.50333,82.84927,7.418,83.11258,7.418Zm1.72251,10.655q.96882-.79976,3.33745-3.055.07155-2.65376.1796-5.2725a12.73247,12.73247,0,0,1-.75393,1.9635,28.99933,28.99933,0,0,1-2.5475,4.582Q84.97843,17.23723,84.83509,18.073Zm.39473-3.7455q.43076-1.2.71792-2.2185a16.78033,16.78033,0,0,0,.53831-2.1455V9.818a2.38331,2.38331,0,0,1-1.00508.764Q85.4087,12.03649,85.22982,14.3275Zm20.59806-13.164a1.26936,1.26936,0,0,1,.8615.2545.76565.76565,0,0,1,.39473.7275,3.82507,3.82507,0,0,1-1.36379,2.4725,10.12873,10.12873,0,0,1-1.97366,1.7455,4.943,4.943,0,0,1,.96906-.109q.96882,0,.96858,1.018-.03577.58225-5.16752,4.2185a15.18454,15.18454,0,0,1,4.48562-1.382,3.7371,3.7371,0,0,1,1.687.3635.94821.94821,0,0,1,.39473.9095q-.03649.79975-.53831.836a10.25774,10.25774,0,0,0-1.97366-.2545,6.37261,6.37261,0,0,0-1.32778.1455,12.91433,12.91433,0,0,1,2.512,1.9275,10.74641,10.74641,0,0,0,3.48055,2.4365,8.83875,8.83875,0,0,1,2.33286,1.309A1.07614,1.07614,0,0,1,112,18.473q-.03578.654-1.54291.727a5.30639,5.30639,0,0,1-1.90162-.4,7.8032,7.8032,0,0,1-2.548-1.891,26.929,26.929,0,0,1-3.51656-4.618,16.22892,16.22892,0,0,0-3.481,1.491q-.43076.25449-.82548.4725-.3592.65475-.71743,1.2365a14.44759,14.44759,0,0,1-4.05537,4.8,3.442,3.442,0,0,1-1.18419.618v-.1455a38.33376,38.33376,0,0,0,3.51705-5.127,14.50682,14.50682,0,0,1-3.80422,1.709.754.754,0,0,1-.825-.8365q0-.87225,6.02854-5.127a8.11105,8.11105,0,0,1-1.54291.1455,1.6183,1.6183,0,0,1-.93305-.582,1.32272,1.32272,0,0,1-.32318-.691,33.95991,33.95991,0,0,0,4.52164-1.818q.39425-1.16375.78947-2.4a17.26,17.26,0,0,0,1.00459-4.3275.87575.87575,0,0,0-.39473-.618q-.32269-.2545-.3227-.364a.6977.6977,0,0,1,.35872-.5455A1.39356,1.39356,0,0,1,101.05509,0a1.9838,1.9838,0,0,1,1.22021.327,1.28314,1.28314,0,0,1,.46677,1.1275,16.15551,16.15551,0,0,1-.71792,3.5635q-.21537.58226-.39473,1.164a21.02562,21.02562,0,0,0,1.651-1.382q2.00919-2.036,2.00919-3.491Q105.28957,1.164,105.82788,1.1635ZM95.74447,4.4365q.25043,0,.78946.8a1.026,1.026,0,0,0,.75345.327q.17888,0,.96906-.727V4.982q-.78994,2.582-1.687,2.5815-1.79454,0-1.79405-1.2365a2.45074,2.45074,0,0,1,.39473-1.345Q95.56438,4.436,95.74447,4.4365Zm6.96158,11.491a3.81733,3.81733,0,0,1,2.512.8,4.058,4.058,0,0,1,.60986,2.691,19.18446,19.18446,0,0,1-.60986,4.4725,14.01685,14.01685,0,0,1-1.86609,4.5455q-.61035.79976-1.00459.8365a1.455,1.455,0,0,1-.89752-.4365,5.50981,5.50981,0,0,1-1.21972-2.109V26.582a1.95046,1.95046,0,0,0,.825.291q.5023,0,.96906-.691a7.36,7.36,0,0,0,1.11265-2.909,17.30892,17.30892,0,0,0,.46628-3.8545,1.6299,1.6299,0,0,0-.1796-.982.98.98,0,0,0-.71743-.218,7.06421,7.06421,0,0,0-1.14818.1815,7.16822,7.16822,0,0,1-.3592.7635,25.77322,25.77322,0,0,1-2.97825,5.491A8.95829,8.95829,0,0,1,94.919,27.564c-.09588,0-.14358-.0365-.14358-.1095a50.6661,50.6661,0,0,0,3.409-5.818q.78921-1.49076,1.29176-2.7275a6.72862,6.72862,0,0,1-1.21973.1455q-.96882,0-.96906-.436,0-.182.35871-.4a14.456,14.456,0,0,1,2.584-1.6005,6.74391,6.74391,0,0,0,.14358-1.2725,1.717,1.717,0,0,0-.14358-.691c0-.09667.09491-.1455.28668-.1455q.395,0,1.04109.8365a1.768,1.768,0,0,1,.35872.6545A4.78244,4.78244,0,0,1,102.70605,15.9275Z" style="fill:#333"/></svg>